G04 #@! TF.FileFunction,Copper,L2,Bot,Signal*
%FSLAX46Y46*%
G04 Gerber Fmt 4.6, Leading zero omitted, Abs format (unit mm)*
G04 Created by KiCad (PCBNEW 4.0.7) date 2018 May 15, Tuesday 19:27:55*
%MOMM*%
%LPD*%
G01*
G04 APERTURE LIST*
%ADD10C,0.100000*%
%ADD11C,0.600000*%
%ADD12C,2.800000*%
%ADD13R,3.960000X3.960000*%
%ADD14R,0.900000X0.500000*%
%ADD15R,1.000000X1.000000*%
%ADD16O,1.000000X1.000000*%
%ADD17C,1.450000*%
%ADD18C,1.200000*%
%ADD19C,0.400000*%
%ADD20C,0.200000*%
G04 APERTURE END LIST*
D10*
D11*
X144470000Y-41050000D03*
X160660000Y-98440000D03*
X132850000Y-45710000D03*
D12*
X125441680Y-46029880D03*
X146551680Y-46029880D03*
D13*
X135996680Y-46029880D03*
D11*
X139446000Y-35306000D03*
X143750000Y-53750000D03*
X126740000Y-53750000D03*
X131560000Y-35730000D03*
X147190000Y-43120000D03*
X146180000Y-59730000D03*
X144510000Y-59310000D03*
X144580000Y-57160000D03*
D12*
X154552500Y-96830898D03*
X165107500Y-78549102D03*
D10*
G36*
X157125270Y-88414730D02*
X159105270Y-84985270D01*
X162534730Y-86965270D01*
X160554730Y-90394730D01*
X157125270Y-88414730D01*
X157125270Y-88414730D01*
G37*
D11*
X114600000Y-93090000D03*
X152920000Y-91150000D03*
X160480000Y-95000000D03*
X111950000Y-98980000D03*
X101040000Y-85320000D03*
X111950000Y-87680000D03*
X148000000Y-47780000D03*
X124720000Y-42460000D03*
X124060000Y-47890000D03*
X136870000Y-43150000D03*
X129090000Y-43740000D03*
X126390000Y-43370000D03*
X141980000Y-43860000D03*
X142140000Y-46100000D03*
X144140000Y-45850000D03*
X141130000Y-53720000D03*
X127683260Y-59098180D03*
X124810000Y-51160000D03*
X125530000Y-52800000D03*
X133040000Y-36460000D03*
X144560000Y-39660000D03*
X146050000Y-55530000D03*
X128935480Y-53398420D03*
X124978160Y-59138820D03*
X146100000Y-57450000D03*
X129760000Y-46470000D03*
X127140000Y-39680000D03*
X126390000Y-41490000D03*
X124600000Y-43920000D03*
X144390000Y-47530000D03*
X140200000Y-47970000D03*
X142740000Y-47550000D03*
X145710000Y-41610000D03*
X140970000Y-36068000D03*
X145060000Y-43180000D03*
X138530000Y-43570000D03*
X131480000Y-49990000D03*
X131490000Y-48520000D03*
X134260000Y-51930000D03*
X137720000Y-51910000D03*
X136570000Y-51910000D03*
X135420000Y-51910000D03*
X134270000Y-50890000D03*
X137720000Y-50890000D03*
X136570000Y-50890000D03*
X135420000Y-50890000D03*
X134270000Y-49770000D03*
X137720000Y-49770000D03*
X136570000Y-49770000D03*
X135420000Y-49770000D03*
X136580000Y-48940000D03*
X137720000Y-48940000D03*
X135450000Y-48940000D03*
D14*
X142622960Y-42682160D03*
D15*
X134100000Y-35200000D03*
D16*
X135370000Y-35200000D03*
X136640000Y-35200000D03*
X137910000Y-35200000D03*
D11*
X134280000Y-48940000D03*
D12*
X106672500Y-78534102D03*
X117227500Y-96815898D03*
D10*
G36*
X112674730Y-84970270D02*
X114654730Y-88399730D01*
X111225270Y-90379730D01*
X109245270Y-86950270D01*
X112674730Y-84970270D01*
X112674730Y-84970270D01*
G37*
D17*
X104414620Y-89184516D03*
X106914620Y-93514644D03*
D18*
X101273242Y-89843491D02*
X101879460Y-89493491D01*
X105379460Y-95555669D02*
X104773242Y-95905669D01*
D11*
X136000000Y-46020000D03*
X141248176Y-51880010D03*
X116393298Y-79344733D03*
X114300000Y-77175000D03*
X139186920Y-45897800D03*
X140515340Y-46837600D03*
D19*
X141248176Y-51455746D02*
X141248176Y-51880010D01*
X141248176Y-39178176D02*
X141248176Y-51455746D01*
X138940000Y-36870000D02*
X141248176Y-39178176D01*
X137914380Y-35847020D02*
X137914380Y-35204380D01*
X137914380Y-35204380D02*
X137910000Y-35200000D01*
X138940000Y-36870000D02*
X138760000Y-36690000D01*
X138417019Y-36347019D02*
X138940000Y-36870000D01*
X137914380Y-35847020D02*
X138414379Y-36347019D01*
X138414379Y-36347019D02*
X138417019Y-36347019D01*
X146551680Y-48009778D02*
X146551680Y-46029880D01*
X141871457Y-52690001D02*
X146551680Y-48009778D01*
X132101801Y-52690001D02*
X141871457Y-52690001D01*
X125441680Y-46029880D02*
X132101801Y-52690001D01*
X116393298Y-79268298D02*
X116393298Y-79344733D01*
X114300000Y-77175000D02*
X116393298Y-79268298D01*
X106672500Y-78534102D02*
X104757182Y-80449420D01*
X104757182Y-86626662D02*
X104757182Y-80449420D01*
X113546419Y-95415899D02*
X104757182Y-86626662D01*
X117227500Y-96815898D02*
X115827501Y-95415899D01*
X115827501Y-95415899D02*
X113546419Y-95415899D01*
X119617502Y-96815898D02*
X135750300Y-87775733D01*
X136670000Y-87770000D02*
X135756033Y-87770000D01*
X135756033Y-87770000D02*
X135750300Y-87775733D01*
X152284178Y-96830898D02*
X136670000Y-87770000D01*
X154552500Y-96830898D02*
X152284178Y-96830898D01*
X117227500Y-96815898D02*
X119617502Y-96815898D01*
X146551680Y-48009778D02*
X148064220Y-49522318D01*
X148064220Y-49522318D02*
X148064220Y-67553840D01*
X148064220Y-67553840D02*
X163580000Y-76080000D01*
X163580000Y-76080000D02*
X163605860Y-76080000D01*
X165107500Y-77581640D02*
X165107500Y-78549102D01*
X163605860Y-76080000D02*
X165107500Y-77581640D01*
X165107500Y-78549102D02*
X170908980Y-84350582D01*
X154552500Y-96830898D02*
X166247062Y-96830898D01*
X169486580Y-93591380D02*
X170890000Y-90770000D01*
X166247062Y-96830898D02*
X169486580Y-93591380D01*
X170890000Y-90770000D02*
X170890000Y-84369562D01*
X109679740Y-74954471D02*
X109679740Y-75526862D01*
X109679740Y-75526862D02*
X106672500Y-78534102D01*
X109679740Y-74954471D02*
X123891040Y-67049954D01*
X123891040Y-67049954D02*
X123891040Y-49883960D01*
X123891040Y-49883960D02*
X125441680Y-48333320D01*
X125441680Y-48333320D02*
X125441680Y-46029880D01*
X114300000Y-77175000D02*
X112079471Y-74954471D01*
X112079471Y-74954471D02*
X109679740Y-74954471D01*
X109679740Y-74954471D02*
X109664740Y-74954471D01*
D20*
X139186920Y-45897800D02*
X139186920Y-41629560D01*
X139186920Y-41629560D02*
X134104380Y-36547020D01*
X134104380Y-35204380D02*
X134100000Y-35200000D01*
X134104380Y-36547020D02*
X134104380Y-35204380D01*
X136644380Y-35847020D02*
X136644380Y-35204380D01*
X136644380Y-35204380D02*
X136640000Y-35200000D01*
X136644380Y-35847020D02*
X140515340Y-39717980D01*
X140515340Y-39717980D02*
X140515340Y-46837600D01*
G36*
X104972796Y-78194468D02*
X104972206Y-78870769D01*
X105164160Y-79335335D01*
X104403629Y-80095867D01*
X104295242Y-80258078D01*
X104257182Y-80449420D01*
X104257182Y-86626662D01*
X104267133Y-86676688D01*
X104295242Y-86818004D01*
X104403629Y-86980215D01*
X113192865Y-95769452D01*
X113355077Y-95877839D01*
X113546419Y-95915899D01*
X115620395Y-95915899D01*
X115719378Y-96014882D01*
X115527796Y-96476264D01*
X115527206Y-97152565D01*
X115785470Y-97777613D01*
X116263270Y-98256248D01*
X116887866Y-98515602D01*
X117197222Y-98515872D01*
X114324898Y-99485307D01*
X109509980Y-99161280D01*
X105185573Y-97019328D01*
X104972329Y-96775312D01*
X105202035Y-96697336D01*
X105850669Y-96322846D01*
X106114687Y-96091309D01*
X106270002Y-95776360D01*
X106292969Y-95425949D01*
X106180091Y-95093423D01*
X105948553Y-94829405D01*
X105633605Y-94674090D01*
X105283194Y-94651123D01*
X104950668Y-94764001D01*
X104302033Y-95138492D01*
X104038015Y-95370029D01*
X103932047Y-95584914D01*
X102300244Y-93717635D01*
X105889442Y-93717635D01*
X106045161Y-94094501D01*
X106333246Y-94383090D01*
X106709840Y-94539466D01*
X107117611Y-94539822D01*
X107494477Y-94384103D01*
X107783066Y-94096018D01*
X107939442Y-93719424D01*
X107939798Y-93311653D01*
X107784079Y-92934787D01*
X107495994Y-92646198D01*
X107119400Y-92489822D01*
X106711629Y-92489466D01*
X106334763Y-92645185D01*
X106046174Y-92933270D01*
X105889798Y-93309864D01*
X105889442Y-93717635D01*
X102300244Y-93717635D01*
X102010032Y-93385545D01*
X101114201Y-90731302D01*
X101369507Y-90748036D01*
X101702033Y-90635158D01*
X102350667Y-90260670D01*
X102614686Y-90029133D01*
X102770001Y-89714185D01*
X102791413Y-89387507D01*
X103389442Y-89387507D01*
X103545161Y-89764373D01*
X103833246Y-90052962D01*
X104209840Y-90209338D01*
X104617611Y-90209694D01*
X104994477Y-90053975D01*
X105283066Y-89765890D01*
X105439442Y-89389296D01*
X105439798Y-88981525D01*
X105284079Y-88604659D01*
X104995994Y-88316070D01*
X104619400Y-88159694D01*
X104211629Y-88159338D01*
X103834763Y-88315057D01*
X103546174Y-88603142D01*
X103389798Y-88979736D01*
X103389442Y-89387507D01*
X102791413Y-89387507D01*
X102792969Y-89363774D01*
X102680092Y-89031248D01*
X102448555Y-88767229D01*
X102133607Y-88611914D01*
X101783196Y-88588946D01*
X101450669Y-88701823D01*
X100802035Y-89076312D01*
X100611903Y-89243052D01*
X100466804Y-88813139D01*
X100790831Y-83998221D01*
X102932855Y-79673670D01*
X105172837Y-77712713D01*
X104972796Y-78194468D01*
X104972796Y-78194468D01*
G37*
X104972796Y-78194468D02*
X104972206Y-78870769D01*
X105164160Y-79335335D01*
X104403629Y-80095867D01*
X104295242Y-80258078D01*
X104257182Y-80449420D01*
X104257182Y-86626662D01*
X104267133Y-86676688D01*
X104295242Y-86818004D01*
X104403629Y-86980215D01*
X113192865Y-95769452D01*
X113355077Y-95877839D01*
X113546419Y-95915899D01*
X115620395Y-95915899D01*
X115719378Y-96014882D01*
X115527796Y-96476264D01*
X115527206Y-97152565D01*
X115785470Y-97777613D01*
X116263270Y-98256248D01*
X116887866Y-98515602D01*
X117197222Y-98515872D01*
X114324898Y-99485307D01*
X109509980Y-99161280D01*
X105185573Y-97019328D01*
X104972329Y-96775312D01*
X105202035Y-96697336D01*
X105850669Y-96322846D01*
X106114687Y-96091309D01*
X106270002Y-95776360D01*
X106292969Y-95425949D01*
X106180091Y-95093423D01*
X105948553Y-94829405D01*
X105633605Y-94674090D01*
X105283194Y-94651123D01*
X104950668Y-94764001D01*
X104302033Y-95138492D01*
X104038015Y-95370029D01*
X103932047Y-95584914D01*
X102300244Y-93717635D01*
X105889442Y-93717635D01*
X106045161Y-94094501D01*
X106333246Y-94383090D01*
X106709840Y-94539466D01*
X107117611Y-94539822D01*
X107494477Y-94384103D01*
X107783066Y-94096018D01*
X107939442Y-93719424D01*
X107939798Y-93311653D01*
X107784079Y-92934787D01*
X107495994Y-92646198D01*
X107119400Y-92489822D01*
X106711629Y-92489466D01*
X106334763Y-92645185D01*
X106046174Y-92933270D01*
X105889798Y-93309864D01*
X105889442Y-93717635D01*
X102300244Y-93717635D01*
X102010032Y-93385545D01*
X101114201Y-90731302D01*
X101369507Y-90748036D01*
X101702033Y-90635158D01*
X102350667Y-90260670D01*
X102614686Y-90029133D01*
X102770001Y-89714185D01*
X102791413Y-89387507D01*
X103389442Y-89387507D01*
X103545161Y-89764373D01*
X103833246Y-90052962D01*
X104209840Y-90209338D01*
X104617611Y-90209694D01*
X104994477Y-90053975D01*
X105283066Y-89765890D01*
X105439442Y-89389296D01*
X105439798Y-88981525D01*
X105284079Y-88604659D01*
X104995994Y-88316070D01*
X104619400Y-88159694D01*
X104211629Y-88159338D01*
X103834763Y-88315057D01*
X103546174Y-88603142D01*
X103389798Y-88979736D01*
X103389442Y-89387507D01*
X102791413Y-89387507D01*
X102792969Y-89363774D01*
X102680092Y-89031248D01*
X102448555Y-88767229D01*
X102133607Y-88611914D01*
X101783196Y-88588946D01*
X101450669Y-88701823D01*
X100802035Y-89076312D01*
X100611903Y-89243052D01*
X100466804Y-88813139D01*
X100790831Y-83998221D01*
X102932855Y-79673670D01*
X105172837Y-77712713D01*
X104972796Y-78194468D01*
G36*
X162438609Y-99166885D02*
X157623127Y-99482508D01*
X154820467Y-98531132D01*
X154889167Y-98531192D01*
X155514215Y-98272928D01*
X155992850Y-97795128D01*
X156185614Y-97330898D01*
X166161621Y-97330898D01*
X162438609Y-99166885D01*
X162438609Y-99166885D01*
G37*
X162438609Y-99166885D02*
X157623127Y-99482508D01*
X154820467Y-98531132D01*
X154889167Y-98531192D01*
X155514215Y-98272928D01*
X155992850Y-97795128D01*
X156185614Y-97330898D01*
X166161621Y-97330898D01*
X162438609Y-99166885D01*
G36*
X131748247Y-53043554D02*
X131910459Y-53151941D01*
X132101801Y-53190001D01*
X141871457Y-53190001D01*
X142062799Y-53151941D01*
X142225010Y-53043554D01*
X146551680Y-48716885D01*
X147564220Y-49729425D01*
X147564220Y-67553840D01*
X147577994Y-67623086D01*
X147584099Y-67693424D01*
X147596875Y-67718007D01*
X147602280Y-67745182D01*
X147641504Y-67803885D01*
X147674062Y-67866533D01*
X147695275Y-67884358D01*
X147710667Y-67907393D01*
X147769368Y-67946616D01*
X147823424Y-67992038D01*
X151402996Y-69959068D01*
X151258249Y-69930276D01*
X150645956Y-70052069D01*
X150126878Y-70398905D01*
X149780042Y-70917983D01*
X149658249Y-71530276D01*
X149780042Y-72142569D01*
X150126878Y-72661647D01*
X150645956Y-73008483D01*
X151258249Y-73130276D01*
X151870542Y-73008483D01*
X152389620Y-72661647D01*
X152736456Y-72142569D01*
X152858249Y-71530276D01*
X152736456Y-70917983D01*
X152497664Y-70560605D01*
X163334205Y-76515451D01*
X164035709Y-77216956D01*
X163667150Y-77584872D01*
X163407796Y-78209468D01*
X163407206Y-78885769D01*
X163665470Y-79510817D01*
X164143270Y-79989452D01*
X164767866Y-80248806D01*
X165444167Y-80249396D01*
X165908733Y-80057442D01*
X170390000Y-84538709D01*
X170390000Y-90652511D01*
X169075279Y-93295574D01*
X166039956Y-96330898D01*
X156185306Y-96330898D01*
X155994530Y-95869183D01*
X155516730Y-95390548D01*
X154892134Y-95131194D01*
X154215833Y-95130604D01*
X153590785Y-95388868D01*
X153112150Y-95866668D01*
X152919386Y-96330898D01*
X152418744Y-96330898D01*
X141296451Y-89876638D01*
X158745368Y-89876638D01*
X158801004Y-90084274D01*
X160355467Y-90981743D01*
X160595275Y-91013314D01*
X160828911Y-90950712D01*
X161020805Y-90803466D01*
X161141743Y-90593994D01*
X161918274Y-89249004D01*
X161862638Y-89041368D01*
X159886368Y-87900368D01*
X158745368Y-89876638D01*
X141296451Y-89876638D01*
X138329460Y-88154895D01*
X140060028Y-88154895D01*
X140181821Y-88767188D01*
X140528657Y-89286266D01*
X141047735Y-89633102D01*
X141660028Y-89754895D01*
X142272321Y-89633102D01*
X142791399Y-89286266D01*
X143138235Y-88767188D01*
X143200278Y-88455274D01*
X156506685Y-88455274D01*
X156569288Y-88688909D01*
X156716533Y-88880804D01*
X158270996Y-89778274D01*
X158478632Y-89722638D01*
X159619632Y-87746368D01*
X159424368Y-87633632D01*
X160040368Y-87633632D01*
X162016638Y-88774632D01*
X162224274Y-88718996D01*
X163000804Y-87374006D01*
X163121743Y-87164534D01*
X163153315Y-86924726D01*
X163090712Y-86691091D01*
X162943467Y-86499196D01*
X161389004Y-85601726D01*
X161181368Y-85657362D01*
X160040368Y-87633632D01*
X159424368Y-87633632D01*
X157643362Y-86605368D01*
X157435726Y-86661004D01*
X156659196Y-88005994D01*
X156538257Y-88215466D01*
X156506685Y-88455274D01*
X143200278Y-88455274D01*
X143260028Y-88154895D01*
X143138235Y-87542602D01*
X142791399Y-87023524D01*
X142272321Y-86676688D01*
X141660028Y-86554895D01*
X141047735Y-86676688D01*
X140528657Y-87023524D01*
X140181821Y-87542602D01*
X140060028Y-88154895D01*
X138329460Y-88154895D01*
X136920956Y-87337541D01*
X136889226Y-87326692D01*
X136861342Y-87308060D01*
X136797726Y-87295406D01*
X136736358Y-87274423D01*
X136702891Y-87276542D01*
X136670000Y-87270000D01*
X135756033Y-87270000D01*
X135704537Y-87280243D01*
X135691406Y-87279213D01*
X135662568Y-87288591D01*
X135564691Y-87308060D01*
X135541729Y-87323403D01*
X135528652Y-87332141D01*
X135505879Y-87339547D01*
X119486961Y-96315898D01*
X118860306Y-96315898D01*
X118669530Y-95854183D01*
X118191730Y-95375548D01*
X117567134Y-95116194D01*
X116890833Y-95115604D01*
X116426267Y-95307558D01*
X116181054Y-95062346D01*
X116018843Y-94953959D01*
X115827501Y-94915899D01*
X113753526Y-94915899D01*
X108071631Y-89234004D01*
X109861726Y-89234004D01*
X110638257Y-90578994D01*
X110759195Y-90788466D01*
X110951089Y-90935712D01*
X111184725Y-90998314D01*
X111424533Y-90966743D01*
X112978996Y-90069274D01*
X113034632Y-89861638D01*
X111893632Y-87885368D01*
X109917362Y-89026368D01*
X109861726Y-89234004D01*
X108071631Y-89234004D01*
X105747353Y-86909726D01*
X108626685Y-86909726D01*
X108658257Y-87149534D01*
X108779196Y-87359006D01*
X109555726Y-88703996D01*
X109763362Y-88759632D01*
X111544367Y-87731368D01*
X112160368Y-87731368D01*
X113301368Y-89707638D01*
X113509004Y-89763274D01*
X115063467Y-88865804D01*
X115210712Y-88673909D01*
X115273315Y-88440274D01*
X115241743Y-88200466D01*
X115215433Y-88154895D01*
X128709412Y-88154895D01*
X128831205Y-88767188D01*
X129178041Y-89286266D01*
X129697119Y-89633102D01*
X130309412Y-89754895D01*
X130921705Y-89633102D01*
X131440783Y-89286266D01*
X131787619Y-88767188D01*
X131909412Y-88154895D01*
X131787619Y-87542602D01*
X131440783Y-87023524D01*
X130921705Y-86676688D01*
X130309412Y-86554895D01*
X129697119Y-86676688D01*
X129178041Y-87023524D01*
X128831205Y-87542602D01*
X128709412Y-88154895D01*
X115215433Y-88154895D01*
X115120804Y-87990994D01*
X114344274Y-86646004D01*
X114136638Y-86590368D01*
X112160368Y-87731368D01*
X111544367Y-87731368D01*
X111739632Y-87618632D01*
X110598632Y-85642362D01*
X110390996Y-85586726D01*
X108836533Y-86484196D01*
X108689288Y-86676091D01*
X108626685Y-86909726D01*
X105747353Y-86909726D01*
X105257182Y-86419556D01*
X105257182Y-85488362D01*
X110865368Y-85488362D01*
X112006368Y-87464632D01*
X113982638Y-86323632D01*
X114034254Y-86130996D01*
X157741726Y-86130996D01*
X157797362Y-86338632D01*
X159773632Y-87479632D01*
X160914632Y-85503362D01*
X160858996Y-85295726D01*
X159304533Y-84398257D01*
X159064725Y-84366686D01*
X158831089Y-84429288D01*
X158639195Y-84576534D01*
X158518257Y-84786006D01*
X157741726Y-86130996D01*
X114034254Y-86130996D01*
X114038274Y-86115996D01*
X113261743Y-84771006D01*
X113140805Y-84561534D01*
X112948911Y-84414288D01*
X112715275Y-84351686D01*
X112475467Y-84383257D01*
X110921004Y-85280726D01*
X110865368Y-85488362D01*
X105257182Y-85488362D01*
X105257182Y-80656526D01*
X105871484Y-80042224D01*
X106332866Y-80233806D01*
X107009167Y-80234396D01*
X107634215Y-79976132D01*
X108112850Y-79498332D01*
X108372204Y-78873736D01*
X108372794Y-78197435D01*
X108180840Y-77732869D01*
X110033294Y-75880415D01*
X110136172Y-75726447D01*
X110141680Y-75718204D01*
X110179740Y-75526862D01*
X110179740Y-75454471D01*
X111872365Y-75454471D01*
X113699906Y-77282013D01*
X113699896Y-77293824D01*
X113791048Y-77514429D01*
X113959683Y-77683359D01*
X114180129Y-77774896D01*
X114192801Y-77774907D01*
X115793271Y-79375378D01*
X115793194Y-79463557D01*
X115884346Y-79684162D01*
X116052981Y-79853092D01*
X116273427Y-79944629D01*
X116512122Y-79944837D01*
X116732727Y-79853685D01*
X116901657Y-79685050D01*
X116993194Y-79464604D01*
X116993402Y-79225909D01*
X116902250Y-79005304D01*
X116733615Y-78836374D01*
X116622230Y-78790123D01*
X114900094Y-77067988D01*
X114900104Y-77056176D01*
X114808952Y-76835571D01*
X114640317Y-76666641D01*
X114419871Y-76575104D01*
X114407200Y-76575093D01*
X112433024Y-74600918D01*
X112270813Y-74492531D01*
X112079471Y-74454471D01*
X111607309Y-74454471D01*
X112792634Y-73795177D01*
X124584720Y-73795177D01*
X125452493Y-78157768D01*
X127923703Y-81856194D01*
X131622129Y-84327404D01*
X135984720Y-85195177D01*
X140347311Y-84327404D01*
X144045737Y-81856194D01*
X146516947Y-78157768D01*
X147384720Y-73795177D01*
X146516947Y-69432586D01*
X144045737Y-65734160D01*
X140347311Y-63262950D01*
X135984720Y-62395177D01*
X131622129Y-63262950D01*
X127923703Y-65734160D01*
X125452493Y-69432586D01*
X124584720Y-73795177D01*
X112792634Y-73795177D01*
X116864633Y-71530276D01*
X119111183Y-71530276D01*
X119232976Y-72142569D01*
X119579812Y-72661647D01*
X120098890Y-73008483D01*
X120711183Y-73130276D01*
X121323476Y-73008483D01*
X121842554Y-72661647D01*
X122189390Y-72142569D01*
X122311183Y-71530276D01*
X122189390Y-70917983D01*
X121842554Y-70398905D01*
X121323476Y-70052069D01*
X120711183Y-69930276D01*
X120098890Y-70052069D01*
X119579812Y-70398905D01*
X119232976Y-70917983D01*
X119111183Y-71530276D01*
X116864633Y-71530276D01*
X124134081Y-67486911D01*
X124186943Y-67442028D01*
X124244593Y-67403507D01*
X124260696Y-67379407D01*
X124282797Y-67360642D01*
X124314456Y-67298950D01*
X124352980Y-67241296D01*
X124358636Y-67212861D01*
X124371870Y-67187073D01*
X124377511Y-67117968D01*
X124391040Y-67049954D01*
X124391040Y-61700358D01*
X124786492Y-61700358D01*
X124908285Y-62312651D01*
X125255121Y-62831729D01*
X125774199Y-63178565D01*
X126386492Y-63300358D01*
X126998785Y-63178565D01*
X127517863Y-62831729D01*
X127864699Y-62312651D01*
X127986492Y-61700358D01*
X143982948Y-61700358D01*
X144104741Y-62312651D01*
X144451577Y-62831729D01*
X144970655Y-63178565D01*
X145582948Y-63300358D01*
X146195241Y-63178565D01*
X146714319Y-62831729D01*
X147061155Y-62312651D01*
X147182948Y-61700358D01*
X147061155Y-61088065D01*
X146714319Y-60568987D01*
X146195241Y-60222151D01*
X145582948Y-60100358D01*
X144970655Y-60222151D01*
X144451577Y-60568987D01*
X144104741Y-61088065D01*
X143982948Y-61700358D01*
X127986492Y-61700358D01*
X127864699Y-61088065D01*
X127517863Y-60568987D01*
X126998785Y-60222151D01*
X126386492Y-60100358D01*
X125774199Y-60222151D01*
X125255121Y-60568987D01*
X124908285Y-61088065D01*
X124786492Y-61700358D01*
X124391040Y-61700358D01*
X124391040Y-50091066D01*
X125795233Y-48686873D01*
X125903620Y-48524662D01*
X125935710Y-48363331D01*
X125941680Y-48333320D01*
X125941680Y-47662686D01*
X126242913Y-47538220D01*
X131748247Y-53043554D01*
X131748247Y-53043554D01*
G37*
X131748247Y-53043554D02*
X131910459Y-53151941D01*
X132101801Y-53190001D01*
X141871457Y-53190001D01*
X142062799Y-53151941D01*
X142225010Y-53043554D01*
X146551680Y-48716885D01*
X147564220Y-49729425D01*
X147564220Y-67553840D01*
X147577994Y-67623086D01*
X147584099Y-67693424D01*
X147596875Y-67718007D01*
X147602280Y-67745182D01*
X147641504Y-67803885D01*
X147674062Y-67866533D01*
X147695275Y-67884358D01*
X147710667Y-67907393D01*
X147769368Y-67946616D01*
X147823424Y-67992038D01*
X151402996Y-69959068D01*
X151258249Y-69930276D01*
X150645956Y-70052069D01*
X150126878Y-70398905D01*
X149780042Y-70917983D01*
X149658249Y-71530276D01*
X149780042Y-72142569D01*
X150126878Y-72661647D01*
X150645956Y-73008483D01*
X151258249Y-73130276D01*
X151870542Y-73008483D01*
X152389620Y-72661647D01*
X152736456Y-72142569D01*
X152858249Y-71530276D01*
X152736456Y-70917983D01*
X152497664Y-70560605D01*
X163334205Y-76515451D01*
X164035709Y-77216956D01*
X163667150Y-77584872D01*
X163407796Y-78209468D01*
X163407206Y-78885769D01*
X163665470Y-79510817D01*
X164143270Y-79989452D01*
X164767866Y-80248806D01*
X165444167Y-80249396D01*
X165908733Y-80057442D01*
X170390000Y-84538709D01*
X170390000Y-90652511D01*
X169075279Y-93295574D01*
X166039956Y-96330898D01*
X156185306Y-96330898D01*
X155994530Y-95869183D01*
X155516730Y-95390548D01*
X154892134Y-95131194D01*
X154215833Y-95130604D01*
X153590785Y-95388868D01*
X153112150Y-95866668D01*
X152919386Y-96330898D01*
X152418744Y-96330898D01*
X141296451Y-89876638D01*
X158745368Y-89876638D01*
X158801004Y-90084274D01*
X160355467Y-90981743D01*
X160595275Y-91013314D01*
X160828911Y-90950712D01*
X161020805Y-90803466D01*
X161141743Y-90593994D01*
X161918274Y-89249004D01*
X161862638Y-89041368D01*
X159886368Y-87900368D01*
X158745368Y-89876638D01*
X141296451Y-89876638D01*
X138329460Y-88154895D01*
X140060028Y-88154895D01*
X140181821Y-88767188D01*
X140528657Y-89286266D01*
X141047735Y-89633102D01*
X141660028Y-89754895D01*
X142272321Y-89633102D01*
X142791399Y-89286266D01*
X143138235Y-88767188D01*
X143200278Y-88455274D01*
X156506685Y-88455274D01*
X156569288Y-88688909D01*
X156716533Y-88880804D01*
X158270996Y-89778274D01*
X158478632Y-89722638D01*
X159619632Y-87746368D01*
X159424368Y-87633632D01*
X160040368Y-87633632D01*
X162016638Y-88774632D01*
X162224274Y-88718996D01*
X163000804Y-87374006D01*
X163121743Y-87164534D01*
X163153315Y-86924726D01*
X163090712Y-86691091D01*
X162943467Y-86499196D01*
X161389004Y-85601726D01*
X161181368Y-85657362D01*
X160040368Y-87633632D01*
X159424368Y-87633632D01*
X157643362Y-86605368D01*
X157435726Y-86661004D01*
X156659196Y-88005994D01*
X156538257Y-88215466D01*
X156506685Y-88455274D01*
X143200278Y-88455274D01*
X143260028Y-88154895D01*
X143138235Y-87542602D01*
X142791399Y-87023524D01*
X142272321Y-86676688D01*
X141660028Y-86554895D01*
X141047735Y-86676688D01*
X140528657Y-87023524D01*
X140181821Y-87542602D01*
X140060028Y-88154895D01*
X138329460Y-88154895D01*
X136920956Y-87337541D01*
X136889226Y-87326692D01*
X136861342Y-87308060D01*
X136797726Y-87295406D01*
X136736358Y-87274423D01*
X136702891Y-87276542D01*
X136670000Y-87270000D01*
X135756033Y-87270000D01*
X135704537Y-87280243D01*
X135691406Y-87279213D01*
X135662568Y-87288591D01*
X135564691Y-87308060D01*
X135541729Y-87323403D01*
X135528652Y-87332141D01*
X135505879Y-87339547D01*
X119486961Y-96315898D01*
X118860306Y-96315898D01*
X118669530Y-95854183D01*
X118191730Y-95375548D01*
X117567134Y-95116194D01*
X116890833Y-95115604D01*
X116426267Y-95307558D01*
X116181054Y-95062346D01*
X116018843Y-94953959D01*
X115827501Y-94915899D01*
X113753526Y-94915899D01*
X108071631Y-89234004D01*
X109861726Y-89234004D01*
X110638257Y-90578994D01*
X110759195Y-90788466D01*
X110951089Y-90935712D01*
X111184725Y-90998314D01*
X111424533Y-90966743D01*
X112978996Y-90069274D01*
X113034632Y-89861638D01*
X111893632Y-87885368D01*
X109917362Y-89026368D01*
X109861726Y-89234004D01*
X108071631Y-89234004D01*
X105747353Y-86909726D01*
X108626685Y-86909726D01*
X108658257Y-87149534D01*
X108779196Y-87359006D01*
X109555726Y-88703996D01*
X109763362Y-88759632D01*
X111544367Y-87731368D01*
X112160368Y-87731368D01*
X113301368Y-89707638D01*
X113509004Y-89763274D01*
X115063467Y-88865804D01*
X115210712Y-88673909D01*
X115273315Y-88440274D01*
X115241743Y-88200466D01*
X115215433Y-88154895D01*
X128709412Y-88154895D01*
X128831205Y-88767188D01*
X129178041Y-89286266D01*
X129697119Y-89633102D01*
X130309412Y-89754895D01*
X130921705Y-89633102D01*
X131440783Y-89286266D01*
X131787619Y-88767188D01*
X131909412Y-88154895D01*
X131787619Y-87542602D01*
X131440783Y-87023524D01*
X130921705Y-86676688D01*
X130309412Y-86554895D01*
X129697119Y-86676688D01*
X129178041Y-87023524D01*
X128831205Y-87542602D01*
X128709412Y-88154895D01*
X115215433Y-88154895D01*
X115120804Y-87990994D01*
X114344274Y-86646004D01*
X114136638Y-86590368D01*
X112160368Y-87731368D01*
X111544367Y-87731368D01*
X111739632Y-87618632D01*
X110598632Y-85642362D01*
X110390996Y-85586726D01*
X108836533Y-86484196D01*
X108689288Y-86676091D01*
X108626685Y-86909726D01*
X105747353Y-86909726D01*
X105257182Y-86419556D01*
X105257182Y-85488362D01*
X110865368Y-85488362D01*
X112006368Y-87464632D01*
X113982638Y-86323632D01*
X114034254Y-86130996D01*
X157741726Y-86130996D01*
X157797362Y-86338632D01*
X159773632Y-87479632D01*
X160914632Y-85503362D01*
X160858996Y-85295726D01*
X159304533Y-84398257D01*
X159064725Y-84366686D01*
X158831089Y-84429288D01*
X158639195Y-84576534D01*
X158518257Y-84786006D01*
X157741726Y-86130996D01*
X114034254Y-86130996D01*
X114038274Y-86115996D01*
X113261743Y-84771006D01*
X113140805Y-84561534D01*
X112948911Y-84414288D01*
X112715275Y-84351686D01*
X112475467Y-84383257D01*
X110921004Y-85280726D01*
X110865368Y-85488362D01*
X105257182Y-85488362D01*
X105257182Y-80656526D01*
X105871484Y-80042224D01*
X106332866Y-80233806D01*
X107009167Y-80234396D01*
X107634215Y-79976132D01*
X108112850Y-79498332D01*
X108372204Y-78873736D01*
X108372794Y-78197435D01*
X108180840Y-77732869D01*
X110033294Y-75880415D01*
X110136172Y-75726447D01*
X110141680Y-75718204D01*
X110179740Y-75526862D01*
X110179740Y-75454471D01*
X111872365Y-75454471D01*
X113699906Y-77282013D01*
X113699896Y-77293824D01*
X113791048Y-77514429D01*
X113959683Y-77683359D01*
X114180129Y-77774896D01*
X114192801Y-77774907D01*
X115793271Y-79375378D01*
X115793194Y-79463557D01*
X115884346Y-79684162D01*
X116052981Y-79853092D01*
X116273427Y-79944629D01*
X116512122Y-79944837D01*
X116732727Y-79853685D01*
X116901657Y-79685050D01*
X116993194Y-79464604D01*
X116993402Y-79225909D01*
X116902250Y-79005304D01*
X116733615Y-78836374D01*
X116622230Y-78790123D01*
X114900094Y-77067988D01*
X114900104Y-77056176D01*
X114808952Y-76835571D01*
X114640317Y-76666641D01*
X114419871Y-76575104D01*
X114407200Y-76575093D01*
X112433024Y-74600918D01*
X112270813Y-74492531D01*
X112079471Y-74454471D01*
X111607309Y-74454471D01*
X112792634Y-73795177D01*
X124584720Y-73795177D01*
X125452493Y-78157768D01*
X127923703Y-81856194D01*
X131622129Y-84327404D01*
X135984720Y-85195177D01*
X140347311Y-84327404D01*
X144045737Y-81856194D01*
X146516947Y-78157768D01*
X147384720Y-73795177D01*
X146516947Y-69432586D01*
X144045737Y-65734160D01*
X140347311Y-63262950D01*
X135984720Y-62395177D01*
X131622129Y-63262950D01*
X127923703Y-65734160D01*
X125452493Y-69432586D01*
X124584720Y-73795177D01*
X112792634Y-73795177D01*
X116864633Y-71530276D01*
X119111183Y-71530276D01*
X119232976Y-72142569D01*
X119579812Y-72661647D01*
X120098890Y-73008483D01*
X120711183Y-73130276D01*
X121323476Y-73008483D01*
X121842554Y-72661647D01*
X122189390Y-72142569D01*
X122311183Y-71530276D01*
X122189390Y-70917983D01*
X121842554Y-70398905D01*
X121323476Y-70052069D01*
X120711183Y-69930276D01*
X120098890Y-70052069D01*
X119579812Y-70398905D01*
X119232976Y-70917983D01*
X119111183Y-71530276D01*
X116864633Y-71530276D01*
X124134081Y-67486911D01*
X124186943Y-67442028D01*
X124244593Y-67403507D01*
X124260696Y-67379407D01*
X124282797Y-67360642D01*
X124314456Y-67298950D01*
X124352980Y-67241296D01*
X124358636Y-67212861D01*
X124371870Y-67187073D01*
X124377511Y-67117968D01*
X124391040Y-67049954D01*
X124391040Y-61700358D01*
X124786492Y-61700358D01*
X124908285Y-62312651D01*
X125255121Y-62831729D01*
X125774199Y-63178565D01*
X126386492Y-63300358D01*
X126998785Y-63178565D01*
X127517863Y-62831729D01*
X127864699Y-62312651D01*
X127986492Y-61700358D01*
X143982948Y-61700358D01*
X144104741Y-62312651D01*
X144451577Y-62831729D01*
X144970655Y-63178565D01*
X145582948Y-63300358D01*
X146195241Y-63178565D01*
X146714319Y-62831729D01*
X147061155Y-62312651D01*
X147182948Y-61700358D01*
X147061155Y-61088065D01*
X146714319Y-60568987D01*
X146195241Y-60222151D01*
X145582948Y-60100358D01*
X144970655Y-60222151D01*
X144451577Y-60568987D01*
X144104741Y-61088065D01*
X143982948Y-61700358D01*
X127986492Y-61700358D01*
X127864699Y-61088065D01*
X127517863Y-60568987D01*
X126998785Y-60222151D01*
X126386492Y-60100358D01*
X125774199Y-60222151D01*
X125255121Y-60568987D01*
X124908285Y-61088065D01*
X124786492Y-61700358D01*
X124391040Y-61700358D01*
X124391040Y-50091066D01*
X125795233Y-48686873D01*
X125903620Y-48524662D01*
X125935710Y-48363331D01*
X125941680Y-48333320D01*
X125941680Y-47662686D01*
X126242913Y-47538220D01*
X131748247Y-53043554D01*
G36*
X135524000Y-35046000D02*
X135544000Y-35046000D01*
X135544000Y-35354000D01*
X135524000Y-35354000D01*
X135524000Y-36143515D01*
X135693751Y-36259646D01*
X135890366Y-36178221D01*
X136225104Y-35904623D01*
X136234001Y-35888058D01*
X136255385Y-35902346D01*
X136274828Y-36000094D01*
X136361537Y-36129863D01*
X140115340Y-39883666D01*
X140115340Y-46389113D01*
X140006981Y-46497283D01*
X139915444Y-46717729D01*
X139915236Y-46956424D01*
X140006388Y-47177029D01*
X140175023Y-47345959D01*
X140395469Y-47437496D01*
X140634164Y-47437704D01*
X140748176Y-47390595D01*
X140748176Y-51531349D01*
X140739817Y-51539693D01*
X140648280Y-51760139D01*
X140648072Y-51998834D01*
X140727060Y-52190001D01*
X132308908Y-52190001D01*
X126949802Y-46830896D01*
X127141384Y-46369514D01*
X127141413Y-46335880D01*
X133408680Y-46335880D01*
X133408680Y-48130819D01*
X133501243Y-48354285D01*
X133672276Y-48525318D01*
X133895742Y-48617880D01*
X135690680Y-48617880D01*
X135842680Y-48465880D01*
X135842680Y-46183880D01*
X136150680Y-46183880D01*
X136150680Y-48465880D01*
X136302680Y-48617880D01*
X138097618Y-48617880D01*
X138321084Y-48525318D01*
X138492117Y-48354285D01*
X138584680Y-48130819D01*
X138584680Y-46335880D01*
X138432680Y-46183880D01*
X136150680Y-46183880D01*
X135842680Y-46183880D01*
X133560680Y-46183880D01*
X133408680Y-46335880D01*
X127141413Y-46335880D01*
X127141974Y-45693213D01*
X126883710Y-45068165D01*
X126405910Y-44589530D01*
X125781314Y-44330176D01*
X125105013Y-44329586D01*
X124479965Y-44587850D01*
X124001330Y-45065650D01*
X123980424Y-45115998D01*
X124216544Y-43928941D01*
X133408680Y-43928941D01*
X133408680Y-45723880D01*
X133560680Y-45875880D01*
X135842680Y-45875880D01*
X135842680Y-43593880D01*
X136150680Y-43593880D01*
X136150680Y-45875880D01*
X138432680Y-45875880D01*
X138584680Y-45723880D01*
X138584680Y-43928941D01*
X138492117Y-43705475D01*
X138321084Y-43534442D01*
X138097618Y-43441880D01*
X136302680Y-43441880D01*
X136150680Y-43593880D01*
X135842680Y-43593880D01*
X135690680Y-43441880D01*
X133895742Y-43441880D01*
X133672276Y-43534442D01*
X133501243Y-43705475D01*
X133408680Y-43928941D01*
X124216544Y-43928941D01*
X124558046Y-42212094D01*
X127239122Y-38199580D01*
X131251636Y-35518504D01*
X133294123Y-35112228D01*
X133294123Y-35700000D01*
X133315042Y-35811173D01*
X133380745Y-35913279D01*
X133480997Y-35981778D01*
X133600000Y-36005877D01*
X133704380Y-36005877D01*
X133704380Y-36547020D01*
X133734828Y-36700094D01*
X133821537Y-36829863D01*
X138786920Y-41795246D01*
X138786920Y-45449313D01*
X138678561Y-45557483D01*
X138587024Y-45777929D01*
X138586816Y-46016624D01*
X138677968Y-46237229D01*
X138846603Y-46406159D01*
X139067049Y-46497696D01*
X139305744Y-46497904D01*
X139526349Y-46406752D01*
X139695279Y-46238117D01*
X139786816Y-46017671D01*
X139787024Y-45778976D01*
X139695872Y-45558371D01*
X139586920Y-45449228D01*
X139586920Y-41629560D01*
X139556472Y-41476487D01*
X139556472Y-41476486D01*
X139469763Y-41346717D01*
X134504380Y-36381334D01*
X134504380Y-36005877D01*
X134600000Y-36005877D01*
X134631520Y-35999946D01*
X134849634Y-36178221D01*
X135046249Y-36259646D01*
X135216000Y-36143515D01*
X135216000Y-35354000D01*
X135196000Y-35354000D01*
X135196000Y-35046000D01*
X135216000Y-35046000D01*
X135216000Y-35026000D01*
X135524000Y-35026000D01*
X135524000Y-35046000D01*
X135524000Y-35046000D01*
G37*
X135524000Y-35046000D02*
X135544000Y-35046000D01*
X135544000Y-35354000D01*
X135524000Y-35354000D01*
X135524000Y-36143515D01*
X135693751Y-36259646D01*
X135890366Y-36178221D01*
X136225104Y-35904623D01*
X136234001Y-35888058D01*
X136255385Y-35902346D01*
X136274828Y-36000094D01*
X136361537Y-36129863D01*
X140115340Y-39883666D01*
X140115340Y-46389113D01*
X140006981Y-46497283D01*
X139915444Y-46717729D01*
X139915236Y-46956424D01*
X140006388Y-47177029D01*
X140175023Y-47345959D01*
X140395469Y-47437496D01*
X140634164Y-47437704D01*
X140748176Y-47390595D01*
X140748176Y-51531349D01*
X140739817Y-51539693D01*
X140648280Y-51760139D01*
X140648072Y-51998834D01*
X140727060Y-52190001D01*
X132308908Y-52190001D01*
X126949802Y-46830896D01*
X127141384Y-46369514D01*
X127141413Y-46335880D01*
X133408680Y-46335880D01*
X133408680Y-48130819D01*
X133501243Y-48354285D01*
X133672276Y-48525318D01*
X133895742Y-48617880D01*
X135690680Y-48617880D01*
X135842680Y-48465880D01*
X135842680Y-46183880D01*
X136150680Y-46183880D01*
X136150680Y-48465880D01*
X136302680Y-48617880D01*
X138097618Y-48617880D01*
X138321084Y-48525318D01*
X138492117Y-48354285D01*
X138584680Y-48130819D01*
X138584680Y-46335880D01*
X138432680Y-46183880D01*
X136150680Y-46183880D01*
X135842680Y-46183880D01*
X133560680Y-46183880D01*
X133408680Y-46335880D01*
X127141413Y-46335880D01*
X127141974Y-45693213D01*
X126883710Y-45068165D01*
X126405910Y-44589530D01*
X125781314Y-44330176D01*
X125105013Y-44329586D01*
X124479965Y-44587850D01*
X124001330Y-45065650D01*
X123980424Y-45115998D01*
X124216544Y-43928941D01*
X133408680Y-43928941D01*
X133408680Y-45723880D01*
X133560680Y-45875880D01*
X135842680Y-45875880D01*
X135842680Y-43593880D01*
X136150680Y-43593880D01*
X136150680Y-45875880D01*
X138432680Y-45875880D01*
X138584680Y-45723880D01*
X138584680Y-43928941D01*
X138492117Y-43705475D01*
X138321084Y-43534442D01*
X138097618Y-43441880D01*
X136302680Y-43441880D01*
X136150680Y-43593880D01*
X135842680Y-43593880D01*
X135690680Y-43441880D01*
X133895742Y-43441880D01*
X133672276Y-43534442D01*
X133501243Y-43705475D01*
X133408680Y-43928941D01*
X124216544Y-43928941D01*
X124558046Y-42212094D01*
X127239122Y-38199580D01*
X131251636Y-35518504D01*
X133294123Y-35112228D01*
X133294123Y-35700000D01*
X133315042Y-35811173D01*
X133380745Y-35913279D01*
X133480997Y-35981778D01*
X133600000Y-36005877D01*
X133704380Y-36005877D01*
X133704380Y-36547020D01*
X133734828Y-36700094D01*
X133821537Y-36829863D01*
X138786920Y-41795246D01*
X138786920Y-45449313D01*
X138678561Y-45557483D01*
X138587024Y-45777929D01*
X138586816Y-46016624D01*
X138677968Y-46237229D01*
X138846603Y-46406159D01*
X139067049Y-46497696D01*
X139305744Y-46497904D01*
X139526349Y-46406752D01*
X139695279Y-46238117D01*
X139786816Y-46017671D01*
X139787024Y-45778976D01*
X139695872Y-45558371D01*
X139586920Y-45449228D01*
X139586920Y-41629560D01*
X139556472Y-41476487D01*
X139556472Y-41476486D01*
X139469763Y-41346717D01*
X134504380Y-36381334D01*
X134504380Y-36005877D01*
X134600000Y-36005877D01*
X134631520Y-35999946D01*
X134849634Y-36178221D01*
X135046249Y-36259646D01*
X135216000Y-36143515D01*
X135216000Y-35354000D01*
X135196000Y-35354000D01*
X135196000Y-35046000D01*
X135216000Y-35046000D01*
X135216000Y-35026000D01*
X135524000Y-35026000D01*
X135524000Y-35046000D01*
G36*
X140717804Y-35518504D02*
X144730318Y-38199580D01*
X147411394Y-42212094D01*
X147975966Y-45050390D01*
X147515910Y-44589530D01*
X146891314Y-44330176D01*
X146215013Y-44329586D01*
X145589965Y-44587850D01*
X145111330Y-45065650D01*
X144851976Y-45690246D01*
X144851386Y-46366547D01*
X145109650Y-46991595D01*
X145587450Y-47470230D01*
X146051680Y-47662994D01*
X146051680Y-47802671D01*
X141843528Y-52010824D01*
X141848072Y-51999881D01*
X141848280Y-51761186D01*
X141757128Y-51540581D01*
X141748176Y-51531613D01*
X141748176Y-39178176D01*
X141710116Y-38986834D01*
X141601730Y-38824623D01*
X139293556Y-36516450D01*
X139293554Y-36516447D01*
X138770572Y-35993466D01*
X138762619Y-35988152D01*
X138507785Y-35733318D01*
X138649104Y-35521820D01*
X138710000Y-35215673D01*
X138710000Y-35184327D01*
X138696497Y-35116441D01*
X140717804Y-35518504D01*
X140717804Y-35518504D01*
G37*
X140717804Y-35518504D02*
X144730318Y-38199580D01*
X147411394Y-42212094D01*
X147975966Y-45050390D01*
X147515910Y-44589530D01*
X146891314Y-44330176D01*
X146215013Y-44329586D01*
X145589965Y-44587850D01*
X145111330Y-45065650D01*
X144851976Y-45690246D01*
X144851386Y-46366547D01*
X145109650Y-46991595D01*
X145587450Y-47470230D01*
X146051680Y-47662994D01*
X146051680Y-47802671D01*
X141843528Y-52010824D01*
X141848072Y-51999881D01*
X141848280Y-51761186D01*
X141757128Y-51540581D01*
X141748176Y-51531613D01*
X141748176Y-39178176D01*
X141710116Y-38986834D01*
X141601730Y-38824623D01*
X139293556Y-36516450D01*
X139293554Y-36516447D01*
X138770572Y-35993466D01*
X138762619Y-35988152D01*
X138507785Y-35733318D01*
X138649104Y-35521820D01*
X138710000Y-35215673D01*
X138710000Y-35184327D01*
X138696497Y-35116441D01*
X140717804Y-35518504D01*
G36*
X123741386Y-46366547D02*
X123999650Y-46991595D01*
X124477450Y-47470230D01*
X124941680Y-47662994D01*
X124941680Y-48126214D01*
X123609722Y-49458172D01*
X123609722Y-46979641D01*
X123741429Y-46317506D01*
X123741386Y-46366547D01*
X123741386Y-46366547D01*
G37*
X123741386Y-46366547D02*
X123999650Y-46991595D01*
X124477450Y-47470230D01*
X124941680Y-47662994D01*
X124941680Y-48126214D01*
X123609722Y-49458172D01*
X123609722Y-46979641D01*
X123741429Y-46317506D01*
X123741386Y-46366547D01*
G36*
X148359718Y-46979641D02*
X148359718Y-49110709D01*
X147051680Y-47802672D01*
X147051680Y-47662686D01*
X147513395Y-47471910D01*
X147992030Y-46994110D01*
X148242576Y-46390727D01*
X148359718Y-46979641D01*
X148359718Y-46979641D01*
G37*
X148359718Y-46979641D02*
X148359718Y-49110709D01*
X147051680Y-47802672D01*
X147051680Y-47662686D01*
X147513395Y-47471910D01*
X147992030Y-46994110D01*
X148242576Y-46390727D01*
X148359718Y-46979641D01*
M02*
