G04 #@! TF.FileFunction,Copper,L1,Top,Signal*
%FSLAX46Y46*%
G04 Gerber Fmt 4.6, Leading zero omitted, Abs format (unit mm)*
G04 Created by KiCad (PCBNEW 4.0.7) date 2018 May 15, Tuesday 19:27:54*
%MOMM*%
%LPD*%
G01*
G04 APERTURE LIST*
%ADD10C,0.100000*%
%ADD11C,0.600000*%
%ADD12C,2.800000*%
%ADD13R,0.500000X0.600000*%
%ADD14R,0.600000X0.500000*%
%ADD15R,0.750000X1.200000*%
%ADD16R,0.600000X0.400000*%
%ADD17R,1.550000X1.300000*%
%ADD18R,0.680000X0.250000*%
%ADD19R,0.250000X0.680000*%
%ADD20R,4.660000X4.660000*%
%ADD21R,1.500000X0.450000*%
%ADD22R,1.800000X1.000000*%
%ADD23R,0.900000X0.800000*%
%ADD24R,0.900000X1.200000*%
%ADD25R,0.400000X0.600000*%
%ADD26R,0.900000X0.500000*%
%ADD27R,0.500000X0.500000*%
%ADD28R,1.000000X1.000000*%
%ADD29O,1.000000X1.000000*%
%ADD30C,1.450000*%
%ADD31C,1.200000*%
%ADD32C,0.200000*%
%ADD33C,0.400000*%
G04 APERTURE END LIST*
D10*
G36*
X138072960Y-40172160D02*
X136072960Y-40172160D01*
X136072960Y-37532160D01*
X133372960Y-37532160D01*
X133372960Y-40172160D01*
X131372960Y-40172160D01*
X131372960Y-37532160D01*
X128672960Y-37532160D01*
X128672960Y-41972160D01*
X129172960Y-41972160D01*
X129172960Y-38032160D01*
X130872960Y-38032160D01*
X130872960Y-40672160D01*
X133872960Y-40672160D01*
X133872960Y-38032160D01*
X135572960Y-38032160D01*
X135572960Y-40672160D01*
X138572960Y-40672160D01*
X138572960Y-38032160D01*
X140272960Y-38032160D01*
X140272960Y-42932160D01*
X140772960Y-42932160D01*
X140772960Y-38032160D01*
X142172960Y-38032160D01*
X142172960Y-42932160D01*
X143072960Y-42932160D01*
X143072960Y-42688945D01*
X142770543Y-42688945D01*
X142760702Y-42736555D01*
X142736634Y-42778957D01*
X142698691Y-42811741D01*
X142690779Y-42816095D01*
X142648116Y-42828203D01*
X142599597Y-42827460D01*
X142554082Y-42814560D01*
X142535471Y-42803947D01*
X142501828Y-42768713D01*
X142481269Y-42723528D01*
X142474738Y-42674002D01*
X142483178Y-42625743D01*
X142500072Y-42593517D01*
X142535332Y-42560847D01*
X142580642Y-42540752D01*
X142630227Y-42534178D01*
X142678313Y-42542068D01*
X142711205Y-42558974D01*
X142746145Y-42595744D01*
X142765807Y-42640538D01*
X142770543Y-42688945D01*
X143072960Y-42688945D01*
X143072960Y-37532160D01*
X138072960Y-37532160D01*
X138072960Y-40172160D01*
X138072960Y-40172160D01*
G37*
D11*
X144470000Y-41050000D03*
X160660000Y-98440000D03*
X132850000Y-45710000D03*
D12*
X125441680Y-46029880D03*
X146551680Y-46029880D03*
D11*
X139446000Y-35306000D03*
X143750000Y-53750000D03*
X126740000Y-53750000D03*
X131560000Y-35730000D03*
X147190000Y-43120000D03*
X146180000Y-59730000D03*
X144510000Y-59310000D03*
X144580000Y-57160000D03*
D12*
X154552500Y-96830898D03*
X165107500Y-78549102D03*
D11*
X114600000Y-93090000D03*
X152920000Y-91150000D03*
X160480000Y-95000000D03*
X111950000Y-98980000D03*
X101040000Y-85320000D03*
X111950000Y-87680000D03*
X148000000Y-47780000D03*
X124720000Y-42460000D03*
X124060000Y-47890000D03*
X136870000Y-43150000D03*
X129090000Y-43740000D03*
X126390000Y-43370000D03*
X141980000Y-43860000D03*
X142140000Y-46100000D03*
X144140000Y-45850000D03*
X141130000Y-53720000D03*
X127683260Y-59098180D03*
X124810000Y-51160000D03*
X125530000Y-52800000D03*
X133040000Y-36460000D03*
X144560000Y-39660000D03*
X146050000Y-55530000D03*
X128935480Y-53398420D03*
X124978160Y-59138820D03*
X146100000Y-57450000D03*
X129760000Y-46470000D03*
X127140000Y-39680000D03*
X126390000Y-41490000D03*
X124600000Y-43920000D03*
X144390000Y-47530000D03*
X140200000Y-47970000D03*
X142740000Y-47550000D03*
X145710000Y-41610000D03*
X140970000Y-36068000D03*
X145060000Y-43180000D03*
X138530000Y-43570000D03*
X131480000Y-49990000D03*
X131490000Y-48520000D03*
X134260000Y-51930000D03*
X137720000Y-51910000D03*
X136570000Y-51910000D03*
X135420000Y-51910000D03*
X134270000Y-50890000D03*
X137720000Y-50890000D03*
X136570000Y-50890000D03*
X135420000Y-50890000D03*
X134270000Y-49770000D03*
X137720000Y-49770000D03*
X136570000Y-49770000D03*
X135420000Y-49770000D03*
X136580000Y-48940000D03*
X137720000Y-48940000D03*
X135450000Y-48940000D03*
D13*
X143164560Y-44911100D03*
X143164560Y-43811100D03*
D14*
X130710000Y-47460000D03*
X131810000Y-47460000D03*
D15*
X127297180Y-50291960D03*
X127297180Y-52191960D03*
D14*
X131189820Y-53276500D03*
X130089820Y-53276500D03*
D13*
X135290000Y-44810000D03*
X135290000Y-43710000D03*
D15*
X127850000Y-46510000D03*
X127850000Y-48410000D03*
D14*
X126234280Y-55074820D03*
X125134280Y-55074820D03*
D13*
X133170000Y-43700000D03*
X133170000Y-44800000D03*
D14*
X126244440Y-57564020D03*
X125144440Y-57564020D03*
D13*
X128300000Y-44800000D03*
X128300000Y-43700000D03*
D10*
G36*
X108760155Y-84541093D02*
X107720925Y-85141093D01*
X107270925Y-84361671D01*
X108310155Y-83761671D01*
X108760155Y-84541093D01*
X108760155Y-84541093D01*
G37*
G36*
X107110155Y-81683209D02*
X106070925Y-82283209D01*
X105620925Y-81503787D01*
X106660155Y-80903787D01*
X107110155Y-81683209D01*
X107110155Y-81683209D01*
G37*
G36*
X155447451Y-87178403D02*
X154668029Y-86728403D01*
X155268029Y-85689173D01*
X156047451Y-86139173D01*
X155447451Y-87178403D01*
X155447451Y-87178403D01*
G37*
G36*
X156547451Y-85273147D02*
X155768029Y-84823147D01*
X156368029Y-83783917D01*
X157147451Y-84233917D01*
X156547451Y-85273147D01*
X156547451Y-85273147D01*
G37*
G36*
X157183451Y-88174211D02*
X156404029Y-87724211D01*
X157004029Y-86684981D01*
X157783451Y-87134981D01*
X157183451Y-88174211D01*
X157183451Y-88174211D01*
G37*
G36*
X158283451Y-86268955D02*
X157504029Y-85818955D01*
X158104029Y-84779725D01*
X158883451Y-85229725D01*
X158283451Y-86268955D01*
X158283451Y-86268955D01*
G37*
G36*
X158910651Y-89185131D02*
X158131229Y-88735131D01*
X158731229Y-87695901D01*
X159510651Y-88145901D01*
X158910651Y-89185131D01*
X158910651Y-89185131D01*
G37*
G36*
X160010651Y-87279875D02*
X159231229Y-86829875D01*
X159831229Y-85790645D01*
X160610651Y-86240645D01*
X160010651Y-87279875D01*
X160010651Y-87279875D01*
G37*
G36*
X160641751Y-90190843D02*
X159862329Y-89740843D01*
X160462329Y-88701613D01*
X161241751Y-89151613D01*
X160641751Y-90190843D01*
X160641751Y-90190843D01*
G37*
G36*
X161741751Y-88285587D02*
X160962329Y-87835587D01*
X161562329Y-86796357D01*
X162341751Y-87246357D01*
X161741751Y-88285587D01*
X161741751Y-88285587D01*
G37*
G36*
X162371491Y-91191603D02*
X161592069Y-90741603D01*
X162192069Y-89702373D01*
X162971491Y-90152373D01*
X162371491Y-91191603D01*
X162371491Y-91191603D01*
G37*
G36*
X163471491Y-89286347D02*
X162692069Y-88836347D01*
X163292069Y-87797117D01*
X164071491Y-88247117D01*
X163471491Y-89286347D01*
X163471491Y-89286347D01*
G37*
G36*
X164111391Y-92210143D02*
X163331969Y-91760143D01*
X163931969Y-90720913D01*
X164711391Y-91170913D01*
X164111391Y-92210143D01*
X164111391Y-92210143D01*
G37*
G36*
X165211391Y-90304887D02*
X164431969Y-89854887D01*
X165031969Y-88815657D01*
X165811391Y-89265657D01*
X165211391Y-90304887D01*
X165211391Y-90304887D01*
G37*
G36*
X165838591Y-93216243D02*
X165059169Y-92766243D01*
X165659169Y-91727013D01*
X166438591Y-92177013D01*
X165838591Y-93216243D01*
X165838591Y-93216243D01*
G37*
G36*
X166938591Y-91310987D02*
X166159169Y-90860987D01*
X166759169Y-89821757D01*
X167538591Y-90271757D01*
X166938591Y-91310987D01*
X166938591Y-91310987D01*
G37*
G36*
X167569151Y-94216243D02*
X166789729Y-93766243D01*
X167389729Y-92727013D01*
X168169151Y-93177013D01*
X167569151Y-94216243D01*
X167569151Y-94216243D01*
G37*
G36*
X168669151Y-92310987D02*
X167889729Y-91860987D01*
X168489729Y-90821757D01*
X169269151Y-91271757D01*
X168669151Y-92310987D01*
X168669151Y-92310987D01*
G37*
D16*
X140502640Y-43951740D03*
X140502640Y-44851740D03*
D10*
G36*
X115421762Y-80926314D02*
X115821762Y-81619134D01*
X114176314Y-82569134D01*
X113776314Y-81876314D01*
X115421762Y-80926314D01*
X115421762Y-80926314D01*
G37*
G36*
X114471762Y-79280866D02*
X114871762Y-79973686D01*
X113226314Y-80923686D01*
X112826314Y-80230866D01*
X114471762Y-79280866D01*
X114471762Y-79280866D01*
G37*
G36*
X112348686Y-81603590D02*
X112748686Y-82296410D01*
X111103238Y-83246410D01*
X110703238Y-82553590D01*
X112348686Y-81603590D01*
X112348686Y-81603590D01*
G37*
D17*
X139974140Y-56548460D03*
X139974140Y-61048460D03*
X132014140Y-61048460D03*
X132014140Y-56548460D03*
D18*
X133145000Y-52525000D03*
X133145000Y-52125000D03*
X133145000Y-51725000D03*
X133145000Y-51325000D03*
X133145000Y-50925000D03*
X133145000Y-50525000D03*
X133145000Y-50125000D03*
X133145000Y-49725000D03*
X133145000Y-49325000D03*
X133145000Y-48925000D03*
X133145000Y-48525000D03*
X133145000Y-48125000D03*
D19*
X133805000Y-47465000D03*
X134205000Y-47465000D03*
X134605000Y-47465000D03*
X135005000Y-47465000D03*
X135405000Y-47465000D03*
X135805000Y-47465000D03*
X136205000Y-47465000D03*
X136605000Y-47465000D03*
X137005000Y-47465000D03*
X137405000Y-47465000D03*
X137805000Y-47465000D03*
X138205000Y-47465000D03*
D18*
X138865000Y-48125000D03*
X138865000Y-48525000D03*
X138865000Y-48925000D03*
X138865000Y-49325000D03*
X138865000Y-49725000D03*
X138865000Y-50125000D03*
X138865000Y-50525000D03*
X138865000Y-50925000D03*
X138865000Y-51325000D03*
X138865000Y-51725000D03*
X138865000Y-52125000D03*
X138865000Y-52525000D03*
D19*
X138205000Y-53185000D03*
X137805000Y-53185000D03*
X137405000Y-53185000D03*
X137005000Y-53185000D03*
X136605000Y-53185000D03*
X136205000Y-53185000D03*
X135805000Y-53185000D03*
X135405000Y-53185000D03*
X135005000Y-53185000D03*
X134605000Y-53185000D03*
X134205000Y-53185000D03*
X133805000Y-53185000D03*
D20*
X136005000Y-50325000D03*
D10*
G36*
X114841559Y-85208794D02*
X114516559Y-84645878D01*
X115434545Y-84115878D01*
X115759545Y-84678794D01*
X114841559Y-85208794D01*
X114841559Y-85208794D01*
G37*
G36*
X115316559Y-86031518D02*
X114991559Y-85468602D01*
X115909545Y-84938602D01*
X116234545Y-85501518D01*
X115316559Y-86031518D01*
X115316559Y-86031518D01*
G37*
G36*
X115791559Y-86854242D02*
X115466559Y-86291326D01*
X116384545Y-85761326D01*
X116709545Y-86324242D01*
X115791559Y-86854242D01*
X115791559Y-86854242D01*
G37*
G36*
X117696815Y-85754242D02*
X117371815Y-85191326D01*
X118289801Y-84661326D01*
X118614801Y-85224242D01*
X117696815Y-85754242D01*
X117696815Y-85754242D01*
G37*
G36*
X116746815Y-84108794D02*
X116421815Y-83545878D01*
X117339801Y-83015878D01*
X117664801Y-83578794D01*
X116746815Y-84108794D01*
X116746815Y-84108794D01*
G37*
G36*
X114688251Y-75621010D02*
X114363251Y-75058094D01*
X115281237Y-74528094D01*
X115606237Y-75091010D01*
X114688251Y-75621010D01*
X114688251Y-75621010D01*
G37*
G36*
X115163251Y-76443734D02*
X114838251Y-75880818D01*
X115756237Y-75350818D01*
X116081237Y-75913734D01*
X115163251Y-76443734D01*
X115163251Y-76443734D01*
G37*
G36*
X115638251Y-77266458D02*
X115313251Y-76703542D01*
X116231237Y-76173542D01*
X116556237Y-76736458D01*
X115638251Y-77266458D01*
X115638251Y-77266458D01*
G37*
G36*
X117543507Y-76166458D02*
X117218507Y-75603542D01*
X118136493Y-75073542D01*
X118461493Y-75636458D01*
X117543507Y-76166458D01*
X117543507Y-76166458D01*
G37*
G36*
X116593507Y-74521010D02*
X116268507Y-73958094D01*
X117186493Y-73428094D01*
X117511493Y-73991010D01*
X116593507Y-74521010D01*
X116593507Y-74521010D01*
G37*
D21*
X160534140Y-80402860D03*
X160534140Y-79752860D03*
X160534140Y-79102860D03*
X160534140Y-78452860D03*
X160534140Y-77802860D03*
X160534140Y-77152860D03*
X160534140Y-76502860D03*
X160534140Y-75852860D03*
X154634140Y-75852860D03*
X154634140Y-76502860D03*
X154634140Y-77152860D03*
X154634140Y-77802860D03*
X154634140Y-78452860D03*
X154634140Y-79102860D03*
X154634140Y-79752860D03*
X154634140Y-80402860D03*
D22*
X128587500Y-55084980D03*
X128587500Y-57584980D03*
D23*
X131600000Y-43700000D03*
X130200000Y-43700000D03*
X130200000Y-44800000D03*
X131600000Y-44800000D03*
D24*
X129400000Y-48920000D03*
X129400000Y-51120000D03*
D10*
G36*
X157724172Y-81687352D02*
X158243788Y-81987352D01*
X158043788Y-82333762D01*
X157524172Y-82033762D01*
X157724172Y-81687352D01*
X157724172Y-81687352D01*
G37*
G36*
X157274172Y-82466774D02*
X157793788Y-82766774D01*
X157593788Y-83113184D01*
X157074172Y-82813184D01*
X157274172Y-82466774D01*
X157274172Y-82466774D01*
G37*
G36*
X159466612Y-82680492D02*
X159986228Y-82980492D01*
X159786228Y-83326902D01*
X159266612Y-83026902D01*
X159466612Y-82680492D01*
X159466612Y-82680492D01*
G37*
G36*
X159016612Y-83459914D02*
X159536228Y-83759914D01*
X159336228Y-84106324D01*
X158816612Y-83806324D01*
X159016612Y-83459914D01*
X159016612Y-83459914D01*
G37*
G36*
X161201432Y-83686332D02*
X161721048Y-83986332D01*
X161521048Y-84332742D01*
X161001432Y-84032742D01*
X161201432Y-83686332D01*
X161201432Y-83686332D01*
G37*
G36*
X160751432Y-84465754D02*
X161271048Y-84765754D01*
X161071048Y-85112164D01*
X160551432Y-84812164D01*
X160751432Y-84465754D01*
X160751432Y-84465754D01*
G37*
G36*
X162935072Y-84692044D02*
X163454688Y-84992044D01*
X163254688Y-85338454D01*
X162735072Y-85038454D01*
X162935072Y-84692044D01*
X162935072Y-84692044D01*
G37*
G36*
X162485072Y-85471466D02*
X163004688Y-85771466D01*
X162804688Y-86117876D01*
X162285072Y-85817876D01*
X162485072Y-85471466D01*
X162485072Y-85471466D01*
G37*
G36*
X164659732Y-85690264D02*
X165179348Y-85990264D01*
X164979348Y-86336674D01*
X164459732Y-86036674D01*
X164659732Y-85690264D01*
X164659732Y-85690264D01*
G37*
G36*
X164209732Y-86469686D02*
X164729348Y-86769686D01*
X164529348Y-87116096D01*
X164009732Y-86816096D01*
X164209732Y-86469686D01*
X164209732Y-86469686D01*
G37*
G36*
X166403532Y-86703596D02*
X166923148Y-87003596D01*
X166723148Y-87350006D01*
X166203532Y-87050006D01*
X166403532Y-86703596D01*
X166403532Y-86703596D01*
G37*
G36*
X165953532Y-87483018D02*
X166473148Y-87783018D01*
X166273148Y-88129428D01*
X165753532Y-87829428D01*
X165953532Y-87483018D01*
X165953532Y-87483018D01*
G37*
G36*
X168128192Y-87711976D02*
X168647808Y-88011976D01*
X168447808Y-88358386D01*
X167928192Y-88058386D01*
X168128192Y-87711976D01*
X168128192Y-87711976D01*
G37*
G36*
X167678192Y-88491398D02*
X168197808Y-88791398D01*
X167997808Y-89137808D01*
X167478192Y-88837808D01*
X167678192Y-88491398D01*
X167678192Y-88491398D01*
G37*
G36*
X169860472Y-88707656D02*
X170380088Y-89007656D01*
X170180088Y-89354066D01*
X169660472Y-89054066D01*
X169860472Y-88707656D01*
X169860472Y-88707656D01*
G37*
G36*
X169410472Y-89487078D02*
X169930088Y-89787078D01*
X169730088Y-90133488D01*
X169210472Y-89833488D01*
X169410472Y-89487078D01*
X169410472Y-89487078D01*
G37*
G36*
X110631379Y-84610000D02*
X111006379Y-85259520D01*
X109967149Y-85859520D01*
X109592149Y-85210000D01*
X110631379Y-84610000D01*
X110631379Y-84610000D01*
G37*
G36*
X108985931Y-85560000D02*
X109360931Y-86209520D01*
X108321701Y-86809520D01*
X107946701Y-86160000D01*
X108985931Y-85560000D01*
X108985931Y-85560000D01*
G37*
G36*
X118460240Y-86855161D02*
X119109760Y-86480161D01*
X119709760Y-87519391D01*
X119060240Y-87894391D01*
X118460240Y-86855161D01*
X118460240Y-86855161D01*
G37*
G36*
X119410240Y-88500609D02*
X120059760Y-88125609D01*
X120659760Y-89164839D01*
X120010240Y-89539839D01*
X119410240Y-88500609D01*
X119410240Y-88500609D01*
G37*
G36*
X112830776Y-77870712D02*
X113130776Y-78390328D01*
X112784366Y-78590328D01*
X112484366Y-78070712D01*
X112830776Y-77870712D01*
X112830776Y-77870712D01*
G37*
G36*
X112051354Y-78320712D02*
X112351354Y-78840328D01*
X112004944Y-79040328D01*
X111704944Y-78520712D01*
X112051354Y-78320712D01*
X112051354Y-78320712D01*
G37*
G36*
X114493648Y-86838956D02*
X113974032Y-87138956D01*
X113774032Y-86792546D01*
X114293648Y-86492546D01*
X114493648Y-86838956D01*
X114493648Y-86838956D01*
G37*
G36*
X114043648Y-86059534D02*
X113524032Y-86359534D01*
X113324032Y-86013124D01*
X113843648Y-85713124D01*
X114043648Y-86059534D01*
X114043648Y-86059534D01*
G37*
D25*
X139550000Y-54490000D03*
X140450000Y-54490000D03*
D16*
X130012440Y-59001240D03*
X130012440Y-59901240D03*
D10*
G36*
X111660332Y-74194504D02*
X112179948Y-73894504D01*
X112379948Y-74240914D01*
X111860332Y-74540914D01*
X111660332Y-74194504D01*
X111660332Y-74194504D01*
G37*
G36*
X112110332Y-74973926D02*
X112629948Y-74673926D01*
X112829948Y-75020336D01*
X112310332Y-75320336D01*
X112110332Y-74973926D01*
X112110332Y-74973926D01*
G37*
G36*
X118091612Y-73221684D02*
X118611228Y-72921684D01*
X118811228Y-73268094D01*
X118291612Y-73568094D01*
X118091612Y-73221684D01*
X118091612Y-73221684D01*
G37*
G36*
X118541612Y-74001106D02*
X119061228Y-73701106D01*
X119261228Y-74047516D01*
X118741612Y-74347516D01*
X118541612Y-74001106D01*
X118541612Y-74001106D01*
G37*
G36*
X149855192Y-77307084D02*
X150374808Y-77607084D01*
X150174808Y-77953494D01*
X149655192Y-77653494D01*
X149855192Y-77307084D01*
X149855192Y-77307084D01*
G37*
G36*
X149405192Y-78086506D02*
X149924808Y-78386506D01*
X149724808Y-78732916D01*
X149205192Y-78432916D01*
X149405192Y-78086506D01*
X149405192Y-78086506D01*
G37*
D14*
X144100000Y-52530000D03*
X143000000Y-52530000D03*
D24*
X141890000Y-58450620D03*
X141890000Y-56250620D03*
D10*
G36*
X113702997Y-74028491D02*
X113252997Y-73249069D01*
X114292227Y-72649069D01*
X114742227Y-73428491D01*
X113702997Y-74028491D01*
X113702997Y-74028491D01*
G37*
G36*
X115608253Y-72928491D02*
X115158253Y-72149069D01*
X116197483Y-71549069D01*
X116647483Y-72328491D01*
X115608253Y-72928491D01*
X115608253Y-72928491D01*
G37*
G36*
X112307622Y-76170634D02*
X112557622Y-76603646D01*
X112038006Y-76903646D01*
X111788006Y-76470634D01*
X112307622Y-76170634D01*
X112307622Y-76170634D01*
G37*
G36*
X111354994Y-76720634D02*
X111604994Y-77153646D01*
X111085378Y-77453646D01*
X110835378Y-77020634D01*
X111354994Y-76720634D01*
X111354994Y-76720634D01*
G37*
D13*
X154614880Y-81981040D03*
X154614880Y-83081040D03*
D26*
X142622960Y-42682160D03*
D27*
X140522960Y-42682160D03*
D28*
X134100000Y-35200000D03*
D29*
X135370000Y-35200000D03*
X136640000Y-35200000D03*
X137910000Y-35200000D03*
D10*
G36*
X148190736Y-81301314D02*
X147790736Y-81994134D01*
X147011314Y-81544134D01*
X147411314Y-80851314D01*
X148190736Y-81301314D01*
X148190736Y-81301314D01*
G37*
G36*
X149140736Y-79655866D02*
X148740736Y-80348686D01*
X147961314Y-79898686D01*
X148361314Y-79205866D01*
X149140736Y-79655866D01*
X149140736Y-79655866D01*
G37*
G36*
X146933686Y-79478590D02*
X146533686Y-80171410D01*
X145754264Y-79721410D01*
X146154264Y-79028590D01*
X146933686Y-79478590D01*
X146933686Y-79478590D01*
G37*
D11*
X134280000Y-48940000D03*
D12*
X106672500Y-78534102D03*
X117227500Y-96815898D03*
D10*
G36*
X102628627Y-93391086D02*
X104274075Y-92441086D01*
X105024075Y-93740124D01*
X103378627Y-94690124D01*
X102628627Y-93391086D01*
X102628627Y-93391086D01*
G37*
D30*
X104414620Y-89184516D03*
D10*
G36*
X104655053Y-90950958D02*
X105824187Y-90275958D01*
X106024187Y-90622368D01*
X104855053Y-91297368D01*
X104655053Y-90950958D01*
X104655053Y-90950958D01*
G37*
G36*
X104330053Y-90388042D02*
X105499187Y-89713042D01*
X105699187Y-90059452D01*
X104530053Y-90734452D01*
X104330053Y-90388042D01*
X104330053Y-90388042D01*
G37*
G36*
X105630053Y-92639708D02*
X106799187Y-91964708D01*
X106999187Y-92311118D01*
X105830053Y-92986118D01*
X105630053Y-92639708D01*
X105630053Y-92639708D01*
G37*
G36*
X105305053Y-92076792D02*
X106474187Y-91401792D01*
X106674187Y-91748202D01*
X105505053Y-92423202D01*
X105305053Y-92076792D01*
X105305053Y-92076792D01*
G37*
G36*
X104980053Y-91513875D02*
X106149187Y-90838875D01*
X106349187Y-91185285D01*
X105180053Y-91860285D01*
X104980053Y-91513875D01*
X104980053Y-91513875D01*
G37*
D30*
X106914620Y-93514644D03*
D10*
G36*
X101628627Y-91659036D02*
X103274075Y-90709036D01*
X104024075Y-92008074D01*
X102378627Y-92958074D01*
X101628627Y-91659036D01*
X101628627Y-91659036D01*
G37*
D31*
X101273242Y-89843491D02*
X101879460Y-89493491D01*
X105379460Y-95555669D02*
X104773242Y-95905669D01*
D10*
G36*
X103653627Y-95166439D02*
X105299075Y-94216439D01*
X105899075Y-95255669D01*
X104253627Y-96205669D01*
X103653627Y-95166439D01*
X103653627Y-95166439D01*
G37*
G36*
X100753627Y-90143491D02*
X102399075Y-89193491D01*
X102999075Y-90232721D01*
X101353627Y-91182721D01*
X100753627Y-90143491D01*
X100753627Y-90143491D01*
G37*
G36*
X126114808Y-83832916D02*
X125595192Y-84132916D01*
X125395192Y-83786506D01*
X125914808Y-83486506D01*
X126114808Y-83832916D01*
X126114808Y-83832916D01*
G37*
G36*
X125664808Y-83053494D02*
X125145192Y-83353494D01*
X124945192Y-83007084D01*
X125464808Y-82707084D01*
X125664808Y-83053494D01*
X125664808Y-83053494D01*
G37*
G36*
X123329264Y-80468686D02*
X122929264Y-79775866D01*
X123708686Y-79325866D01*
X124108686Y-80018686D01*
X123329264Y-80468686D01*
X123329264Y-80468686D01*
G37*
G36*
X124279264Y-82114134D02*
X123879264Y-81421314D01*
X124658686Y-80971314D01*
X125058686Y-81664134D01*
X124279264Y-82114134D01*
X124279264Y-82114134D01*
G37*
G36*
X125536314Y-80291410D02*
X125136314Y-79598590D01*
X125915736Y-79148590D01*
X126315736Y-79841410D01*
X125536314Y-80291410D01*
X125536314Y-80291410D01*
G37*
D11*
X136000000Y-46020000D03*
X141248176Y-51880010D03*
X116393298Y-79344733D03*
X114300000Y-77175000D03*
X139186920Y-45897800D03*
X140515340Y-46837600D03*
D32*
X140502640Y-44851740D02*
X143105200Y-44851740D01*
X143105200Y-44851740D02*
X143164560Y-44911100D01*
X136205000Y-47465000D02*
X136205000Y-46925000D01*
X136205000Y-46925000D02*
X138278260Y-44851740D01*
X138278260Y-44851740D02*
X140002640Y-44851740D01*
X140002640Y-44851740D02*
X140502640Y-44851740D01*
D33*
X127850000Y-46510000D02*
X127850000Y-45510000D01*
X127850000Y-45510000D02*
X126390000Y-44050000D01*
X126390000Y-44050000D02*
X126390000Y-43794264D01*
X126390000Y-43794264D02*
X126390000Y-43370000D01*
X125678040Y-50291960D02*
X125678040Y-48906960D01*
X125678040Y-48906960D02*
X127850000Y-46735000D01*
X127850000Y-46735000D02*
X127850000Y-46510000D01*
X127297180Y-50291960D02*
X125678040Y-50291960D01*
X125678040Y-50291960D02*
X124810000Y-51160000D01*
D32*
X135805000Y-47465000D02*
X135805000Y-46215000D01*
X135805000Y-46215000D02*
X136000000Y-46020000D01*
X135405000Y-47465000D02*
X135405000Y-46615000D01*
X135405000Y-46615000D02*
X136000000Y-46020000D01*
X133145000Y-51325000D02*
X132390736Y-51325000D01*
X132390736Y-51325000D02*
X131480000Y-50414264D01*
X131480000Y-50414264D02*
X131480000Y-49990000D01*
X143164560Y-43811100D02*
X143164560Y-43223760D01*
X143164560Y-43223760D02*
X142622960Y-42682160D01*
X155399060Y-86392468D02*
X155357740Y-86433788D01*
X130935000Y-47465000D02*
X130900000Y-47500000D01*
D33*
X117043308Y-83087059D02*
X117043308Y-83562336D01*
X122289989Y-77840378D02*
X117043308Y-83087059D01*
X122289989Y-69597611D02*
X122289989Y-77840378D01*
X130839140Y-61048460D02*
X122289989Y-69597611D01*
X132014140Y-61048460D02*
X130839140Y-61048460D01*
X139974140Y-61048460D02*
X141149140Y-61048460D01*
X142889381Y-59308219D02*
X142889381Y-54920000D01*
X141149140Y-61048460D02*
X142889381Y-59308219D01*
D32*
X140948177Y-52180009D02*
X141248176Y-51880010D01*
D33*
X143000000Y-52530000D02*
X141898166Y-52530000D01*
D32*
X140603186Y-52525000D02*
X140948177Y-52180009D01*
D33*
X141898166Y-52530000D02*
X141548175Y-52180009D01*
D32*
X138865000Y-52525000D02*
X140603186Y-52525000D01*
D33*
X141548175Y-52180009D02*
X141248176Y-51880010D01*
X127810000Y-85861781D02*
X130380000Y-85861781D01*
X130380000Y-85861781D02*
X143287993Y-85861781D01*
X124377276Y-79897276D02*
X130341781Y-85861781D01*
X130341781Y-85861781D02*
X130380000Y-85861781D01*
X123518975Y-79897276D02*
X124377276Y-79897276D01*
X123041443Y-85861781D02*
X127810000Y-85861781D01*
X125755000Y-83809711D02*
X125972120Y-84026831D01*
X125972120Y-84026831D02*
X125975050Y-84026831D01*
X125975050Y-84026831D02*
X127810000Y-85861781D01*
X152787571Y-80402860D02*
X151767707Y-81422724D01*
X151767707Y-81422724D02*
X147601025Y-81422724D01*
X150015000Y-77630289D02*
X152787571Y-80402860D01*
X152787571Y-80402860D02*
X154634140Y-80402860D01*
X142889381Y-54920000D02*
X142889381Y-52640619D01*
X142889381Y-53833645D02*
X142889381Y-54920000D01*
X142889381Y-52640619D02*
X143000000Y-52530000D01*
X154634140Y-80402860D02*
X154634140Y-81961780D01*
X154634140Y-81961780D02*
X154614880Y-81981040D01*
D32*
X138870000Y-52530000D02*
X138865000Y-52525000D01*
D33*
X132014140Y-61048460D02*
X133189140Y-61048460D01*
X133189140Y-61048460D02*
X139974140Y-61048460D01*
X117043308Y-83562336D02*
X120741998Y-83562336D01*
X120741998Y-83562336D02*
X123041443Y-85861781D01*
X119085000Y-87187276D02*
X120082514Y-86189762D01*
X143287993Y-85861781D02*
X147687050Y-81462724D01*
X120082514Y-86189762D02*
X122713462Y-86189762D01*
X122713462Y-86189762D02*
X123041443Y-85861781D01*
D32*
X133805000Y-47465000D02*
X131815000Y-47465000D01*
X131815000Y-47465000D02*
X131810000Y-47460000D01*
X133145000Y-52525000D02*
X128205220Y-52525000D01*
X128205220Y-52525000D02*
X127872180Y-52191960D01*
X127872180Y-52191960D02*
X127297180Y-52191960D01*
D33*
X113175000Y-84400289D02*
X113175000Y-85527489D01*
X113175000Y-85527489D02*
X113683840Y-86036329D01*
X108015540Y-84451382D02*
X109515886Y-84451382D01*
X109515886Y-84451382D02*
X110299264Y-85234760D01*
X111725962Y-83808062D02*
X112582773Y-83808062D01*
X112582773Y-83808062D02*
X113175000Y-84400289D01*
X111725962Y-82425000D02*
X111725962Y-83808062D01*
X111725962Y-83808062D02*
X110299264Y-85234760D01*
X111725962Y-82425000D02*
X111725962Y-82811762D01*
X113175000Y-84400289D02*
X114876005Y-84400289D01*
X114876005Y-84400289D02*
X115138052Y-84662336D01*
X111725962Y-82425000D02*
X111725962Y-82951251D01*
D32*
X133805000Y-53185000D02*
X131281320Y-53185000D01*
X131281320Y-53185000D02*
X131189820Y-53276500D01*
X135005000Y-47465000D02*
X135005000Y-45095000D01*
X135005000Y-45095000D02*
X135290000Y-44810000D01*
X129400000Y-48920000D02*
X128360000Y-48920000D01*
X128360000Y-48920000D02*
X127850000Y-48410000D01*
X133145000Y-51725000D02*
X132055000Y-51725000D01*
X132055000Y-51725000D02*
X129400000Y-49070000D01*
X129400000Y-49070000D02*
X129400000Y-48920000D01*
D33*
X114799038Y-81747724D02*
X116393298Y-80153464D01*
X116393298Y-80153464D02*
X116393298Y-79768997D01*
X116393298Y-79768997D02*
X116393298Y-79344733D01*
X112172814Y-76537140D02*
X113662140Y-76537140D01*
X113662140Y-76537140D02*
X114300000Y-77175000D01*
X115934744Y-76720000D02*
X115479744Y-77175000D01*
X115479744Y-77175000D02*
X114300000Y-77175000D01*
X120077120Y-74094870D02*
X118551990Y-75620000D01*
X120077120Y-73477120D02*
X120077120Y-74094870D01*
X118838780Y-72238780D02*
X120077120Y-73477120D01*
X115902868Y-72238780D02*
X118838780Y-72238780D01*
X118551990Y-75620000D02*
X117840000Y-75620000D01*
X106365540Y-81593498D02*
X107856762Y-80102276D01*
X107856762Y-80102276D02*
X113849038Y-80102276D01*
X105014620Y-90223747D02*
X106365540Y-88872827D01*
X106365540Y-88872827D02*
X106365540Y-81593498D01*
X113849038Y-80102276D02*
X113849038Y-79271987D01*
X113849038Y-79271987D02*
X112807571Y-78230520D01*
X117840000Y-75620000D02*
X117840000Y-76111314D01*
X117840000Y-76111314D02*
X113849038Y-80102276D01*
D32*
X140450000Y-54490000D02*
X140450000Y-54660620D01*
X140450000Y-54660620D02*
X141890000Y-56100620D01*
X141890000Y-56100620D02*
X141890000Y-56250620D01*
X142089380Y-56100620D02*
X142089380Y-56250620D01*
D33*
X113997612Y-73338780D02*
X112899069Y-73338780D01*
X112899069Y-73338780D02*
X112020140Y-74217709D01*
D32*
X157433980Y-82789979D02*
X157433980Y-83552292D01*
X157433980Y-83552292D02*
X156457740Y-84528532D01*
X159176420Y-83783119D02*
X158193740Y-84765799D01*
X158193740Y-84765799D02*
X158193740Y-85524340D01*
X160911240Y-84788959D02*
X159920940Y-85779259D01*
X159920940Y-85779259D02*
X159920940Y-86535260D01*
X162644880Y-85794671D02*
X161652040Y-86787511D01*
X161652040Y-86787511D02*
X161652040Y-87540972D01*
X163891720Y-88031792D02*
X163381780Y-88541732D01*
X164369540Y-87553972D02*
X163891720Y-88031792D01*
X164369540Y-86792891D02*
X164369540Y-87553972D01*
X166113340Y-87806223D02*
X166113340Y-88568612D01*
X166113340Y-88568612D02*
X165121680Y-89560272D01*
X167838000Y-88814603D02*
X166848880Y-89803723D01*
X166848880Y-89803723D02*
X166848880Y-90566372D01*
X169570280Y-89810283D02*
X168579440Y-90801123D01*
X168579440Y-90801123D02*
X168579440Y-91566372D01*
X138107420Y-45897800D02*
X137805000Y-46200220D01*
X137805000Y-46200220D02*
X137805000Y-47465000D01*
X139186920Y-45897800D02*
X138107420Y-45897800D01*
X140515340Y-46837600D02*
X139887940Y-47465000D01*
X139887940Y-47465000D02*
X138205000Y-47465000D01*
X133145000Y-52125000D02*
X130255000Y-52125000D01*
X130255000Y-52125000D02*
X129400000Y-51270000D01*
X129400000Y-51270000D02*
X129400000Y-51120000D01*
D33*
X114133840Y-86815751D02*
X115580085Y-86815751D01*
X115580085Y-86815751D02*
X116088052Y-86307784D01*
D32*
X116300071Y-86519803D02*
X116088052Y-86307784D01*
X132014140Y-56548460D02*
X139974140Y-56548460D01*
X136605000Y-53725000D02*
X136605000Y-53185000D01*
X136605000Y-53794992D02*
X136605000Y-53725000D01*
X139849140Y-56548460D02*
X139974140Y-56548460D01*
X130012440Y-59001240D02*
X130512440Y-59001240D01*
X130512440Y-59001240D02*
X132014140Y-57499540D01*
X132014140Y-57499540D02*
X132014140Y-57398460D01*
X132014140Y-57398460D02*
X132014140Y-56548460D01*
X132630000Y-55060000D02*
X132014140Y-55675860D01*
X132014140Y-55675860D02*
X132014140Y-56548460D01*
X135270000Y-55060000D02*
X132630000Y-55060000D01*
X136605000Y-53725000D02*
X135270000Y-55060000D01*
D33*
X112470140Y-74997131D02*
X114907323Y-74997131D01*
X114907323Y-74997131D02*
X114984744Y-75074552D01*
X116890000Y-73974552D02*
X117721757Y-73974552D01*
X117721757Y-73974552D02*
X118451420Y-73244889D01*
D32*
X154634140Y-79752860D02*
X155626283Y-79752860D01*
X155626283Y-79752860D02*
X157883980Y-82010557D01*
X160534140Y-80402860D02*
X160534140Y-82095977D01*
X160534140Y-82095977D02*
X159626420Y-83003697D01*
X160534140Y-79752860D02*
X161309142Y-79752860D01*
X161309142Y-79752860D02*
X161578360Y-80022078D01*
X161578360Y-80022078D02*
X161578360Y-83792417D01*
X161578360Y-83792417D02*
X161361240Y-84009537D01*
X163094880Y-84684310D02*
X163094880Y-85015249D01*
X160534140Y-79102860D02*
X161239296Y-79102860D01*
X161239296Y-79102860D02*
X163094880Y-80958444D01*
X163094880Y-80958444D02*
X163094880Y-84684310D01*
X164819540Y-82188114D02*
X164819540Y-85682530D01*
X162407468Y-79376188D02*
X162407469Y-79776043D01*
X161484140Y-78452860D02*
X162407468Y-79376188D01*
X160534140Y-78452860D02*
X161484140Y-78452860D01*
X164819540Y-85682530D02*
X164819540Y-86013469D01*
X162407469Y-79776043D02*
X164819540Y-82188114D01*
X166563340Y-86695862D02*
X166563340Y-87026801D01*
X166563340Y-83436924D02*
X166563340Y-86695862D01*
X161484140Y-77802860D02*
X162757479Y-79076199D01*
X160534140Y-77802860D02*
X161484140Y-77802860D01*
X162757479Y-79076199D02*
X162757479Y-79631063D01*
X162757479Y-79631063D02*
X166563340Y-83436924D01*
X168288000Y-87704242D02*
X168288000Y-88035181D01*
X161484140Y-77152860D02*
X163107488Y-78776208D01*
X168288000Y-84111730D02*
X168288000Y-87704242D01*
X164725384Y-80549114D02*
X168288000Y-84111730D01*
X163107489Y-79486083D02*
X164170519Y-80549113D01*
X164170519Y-80549113D02*
X164725384Y-80549114D01*
X160534140Y-77152860D02*
X161484140Y-77152860D01*
X163107488Y-78776208D02*
X163107489Y-79486083D01*
X164870364Y-80199104D02*
X170020280Y-85349020D01*
X170020280Y-85349020D02*
X170020280Y-88699922D01*
X160534140Y-76502860D02*
X161484140Y-76502860D01*
X163457499Y-78476219D02*
X163457499Y-79341103D01*
X170020280Y-88699922D02*
X170020280Y-89030861D01*
X161484140Y-76502860D02*
X163457499Y-78476219D01*
X163457499Y-79341103D02*
X164315499Y-80199103D01*
X164315499Y-80199103D02*
X164870364Y-80199104D01*
X147706080Y-52705000D02*
X147706080Y-66893440D01*
X147997000Y-67196000D02*
X147997000Y-67184360D01*
X147997000Y-67184360D02*
X147706080Y-66893440D01*
X152872440Y-69997320D02*
X147997000Y-67196000D01*
X153684140Y-77802860D02*
X154634140Y-77802860D01*
X152934118Y-77052838D02*
X153684140Y-77802860D01*
X154228800Y-73843220D02*
X152934118Y-75137902D01*
X154228800Y-71358760D02*
X154228800Y-73843220D01*
X152934115Y-70064075D02*
X154228800Y-71358760D01*
X152934115Y-70058995D02*
X152934115Y-70064075D01*
X152872440Y-69997320D02*
X152934115Y-70058995D01*
X144326080Y-49325000D02*
X147706080Y-52705000D01*
X152934118Y-75137902D02*
X152934118Y-77052838D01*
X138865000Y-49325000D02*
X144326080Y-49325000D01*
X148637000Y-66710000D02*
X148637000Y-66686440D01*
X148637000Y-66686440D02*
X148427440Y-66476880D01*
X153162400Y-69297300D02*
X148637000Y-66710000D01*
X153684140Y-76502860D02*
X154634140Y-76502860D01*
X153634139Y-75427859D02*
X153634139Y-76452859D01*
X154984150Y-71119050D02*
X154984150Y-74077848D01*
X153634139Y-76452859D02*
X153684140Y-76502860D01*
X148427440Y-52423438D02*
X148427440Y-66476880D01*
X144529002Y-48525000D02*
X148427440Y-52423438D01*
X153162400Y-69297300D02*
X154984150Y-71119050D01*
X138865000Y-48525000D02*
X144529002Y-48525000D01*
X154984150Y-74077848D02*
X153634139Y-75427859D01*
X148059140Y-52563070D02*
X148059140Y-66705480D01*
X148300000Y-66960000D02*
X148300000Y-66946340D01*
X148300000Y-66946340D02*
X148059140Y-66705480D01*
X153017420Y-69647310D02*
X148300000Y-66960000D01*
X153684140Y-77152860D02*
X154634140Y-77152860D01*
X153284128Y-76752848D02*
X153684140Y-77152860D01*
X153284128Y-75282880D02*
X153284128Y-76752848D01*
X144413930Y-48917860D02*
X148059140Y-52563070D01*
X138865000Y-48925000D02*
X141388982Y-48925000D01*
X154634140Y-71264030D02*
X154634140Y-73932868D01*
X141388982Y-48925000D02*
X141396122Y-48917860D01*
X153017420Y-69647310D02*
X154634140Y-71264030D01*
X154634140Y-73932868D02*
X153284128Y-75282880D01*
X141396122Y-48917860D02*
X144413930Y-48917860D01*
X147335240Y-52860250D02*
X147335240Y-67137280D01*
X144199990Y-49725000D02*
X147335240Y-52860250D01*
X138865000Y-49725000D02*
X144199990Y-49725000D01*
X147345400Y-67137280D02*
X147734020Y-67525900D01*
X152659780Y-70346000D02*
X153832560Y-71518780D01*
X147734020Y-67525900D02*
X147734020Y-67530980D01*
X147734020Y-67530980D02*
X152650000Y-70346000D01*
X152650000Y-70346000D02*
X152659780Y-70346000D01*
X153832560Y-71518780D02*
X153832559Y-73744469D01*
X153832559Y-73744469D02*
X152486360Y-75090668D01*
X152486360Y-75090668D02*
X152486360Y-77905080D01*
X152486360Y-77905080D02*
X153684140Y-79102860D01*
X153684140Y-79102860D02*
X154634140Y-79102860D01*
X128587500Y-55084980D02*
X126244440Y-55084980D01*
X126244440Y-55084980D02*
X126234280Y-55074820D01*
X129687500Y-55084980D02*
X128587500Y-55084980D01*
X130586151Y-54186329D02*
X129687500Y-55084980D01*
X133648681Y-54186329D02*
X130586151Y-54186329D01*
X134205000Y-53630010D02*
X133648681Y-54186329D01*
X134205000Y-53185000D02*
X134205000Y-53630010D01*
X133170000Y-43700000D02*
X131600000Y-43700000D01*
X134605000Y-47465000D02*
X134605000Y-44685000D01*
X134605000Y-44685000D02*
X133620000Y-43700000D01*
X133620000Y-43700000D02*
X133170000Y-43700000D01*
X128587500Y-57584980D02*
X126265400Y-57584980D01*
X126265400Y-57584980D02*
X126244440Y-57564020D01*
X134605000Y-53185000D02*
X134605000Y-53725000D01*
X134605000Y-53725000D02*
X133704760Y-54625240D01*
X133704760Y-54625240D02*
X130810000Y-54625240D01*
X130810000Y-54625240D02*
X130032760Y-55402480D01*
X130032760Y-55402480D02*
X130032760Y-57597040D01*
X130020700Y-57584980D02*
X128587500Y-57584980D01*
X134205000Y-47465000D02*
X134205000Y-46925000D01*
X134205000Y-46925000D02*
X133650001Y-46370001D01*
X133650001Y-46370001D02*
X131820001Y-46370001D01*
X131820001Y-46370001D02*
X130250000Y-44800000D01*
X130250000Y-44800000D02*
X130200000Y-44800000D01*
X130200000Y-44800000D02*
X128300000Y-44800000D01*
X137005000Y-53620010D02*
X137159991Y-53775001D01*
X137005000Y-53185000D02*
X137005000Y-53620010D01*
X139150000Y-54490000D02*
X139550000Y-54490000D01*
X137159991Y-53775001D02*
X138435001Y-53775001D01*
X138435001Y-53775001D02*
X139150000Y-54490000D01*
X148551025Y-78803835D02*
X149170876Y-78803835D01*
X149170876Y-78803835D02*
X149565000Y-78409711D01*
X148551025Y-79777276D02*
X148551025Y-79220000D01*
X148193760Y-78446570D02*
X148551025Y-78803835D01*
X148551025Y-78803835D02*
X148551025Y-79777276D01*
X146985230Y-67295230D02*
X148100000Y-68410000D01*
X148193760Y-69250560D02*
X148193760Y-68503760D01*
X148193760Y-68503760D02*
X148100000Y-68410000D01*
X146985230Y-67282258D02*
X146985230Y-67295230D01*
X148193760Y-78446570D02*
X148193760Y-69250560D01*
X146985230Y-67282258D02*
X146985230Y-53005228D01*
X146985230Y-53005228D02*
X144905000Y-50925000D01*
X144905000Y-50925000D02*
X138865000Y-50925000D01*
X140502640Y-43951740D02*
X140502640Y-42702480D01*
X140502640Y-42702480D02*
X140522960Y-42682160D01*
D33*
X102826351Y-91138106D02*
X101876351Y-90188106D01*
X105076351Y-95730669D02*
X105076351Y-95511054D01*
X105076351Y-95511054D02*
X104776351Y-95211054D01*
X101576351Y-89668491D02*
X101576351Y-89888106D01*
X101576351Y-89888106D02*
X101876351Y-90188106D01*
X103826351Y-93565605D02*
X103826351Y-94261054D01*
X103826351Y-94261054D02*
X104776351Y-95211054D01*
X102826351Y-91833555D02*
X102826351Y-92565605D01*
X102826351Y-92565605D02*
X103826351Y-93565605D01*
X102826351Y-91833555D02*
X102826351Y-91138106D01*
X106914620Y-93514644D02*
X106914620Y-93892400D01*
X106914620Y-93892400D02*
X105076351Y-95730669D01*
X104414620Y-89184516D02*
X102060326Y-89184516D01*
X102060326Y-89184516D02*
X101576351Y-89668491D01*
D32*
X139410000Y-51330000D02*
X144170000Y-51330000D01*
X145324002Y-54730000D02*
X143440000Y-56614002D01*
X144170000Y-51330000D02*
X145324002Y-52484002D01*
X145324002Y-52484002D02*
X145324002Y-54730000D01*
X138865000Y-51325000D02*
X139405000Y-51325000D01*
X143440000Y-60690000D02*
X141750000Y-62380000D01*
X122780000Y-70000000D02*
X122780000Y-78000000D01*
X139405000Y-51325000D02*
X139410000Y-51330000D01*
X122770000Y-69990000D02*
X122780000Y-70000000D01*
X121290000Y-79490000D02*
X121290000Y-82220000D01*
X121290000Y-82220000D02*
X123791699Y-82220000D01*
X130380000Y-62380000D02*
X122770000Y-69990000D01*
X143440000Y-56614002D02*
X143440000Y-60690000D01*
X122780000Y-78000000D02*
X121290000Y-79490000D01*
X141750000Y-62380000D02*
X130380000Y-62380000D01*
X123791699Y-82220000D02*
X124468975Y-81542724D01*
X124468975Y-81542724D02*
X124468975Y-82194264D01*
X124468975Y-82194264D02*
X125305000Y-83030289D01*
G36*
X165395131Y-76485864D02*
X169049806Y-79690929D01*
X171184206Y-84019064D01*
X171499829Y-88834546D01*
X169948622Y-93404249D01*
X166766746Y-97032484D01*
X162438609Y-99166885D01*
X157623127Y-99482508D01*
X154820467Y-98531132D01*
X154889167Y-98531192D01*
X155514215Y-98272928D01*
X155992850Y-97795128D01*
X156252204Y-97170532D01*
X156252794Y-96494231D01*
X155994530Y-95869183D01*
X155516730Y-95390548D01*
X154892134Y-95131194D01*
X154215833Y-95130604D01*
X153590785Y-95388868D01*
X153112150Y-95866668D01*
X152852796Y-96491264D01*
X152852206Y-97167565D01*
X153110470Y-97792613D01*
X153349115Y-98031675D01*
X153020160Y-97920009D01*
X147032708Y-94463151D01*
X167084808Y-94463151D01*
X167140444Y-94670787D01*
X167160415Y-94682317D01*
X167369887Y-94803256D01*
X167609695Y-94834828D01*
X167843330Y-94772225D01*
X168035225Y-94624979D01*
X168242695Y-94265632D01*
X168187059Y-94057996D01*
X167535808Y-93681996D01*
X167084808Y-94463151D01*
X147032708Y-94463151D01*
X145300657Y-93463151D01*
X165354248Y-93463151D01*
X165409884Y-93670787D01*
X165429855Y-93682317D01*
X165639327Y-93803256D01*
X165879135Y-93834828D01*
X166112770Y-93772225D01*
X166182766Y-93718515D01*
X166171145Y-93806788D01*
X166233747Y-94040424D01*
X166380993Y-94232318D01*
X166590465Y-94353256D01*
X166610436Y-94364787D01*
X166818072Y-94309151D01*
X167269072Y-93527996D01*
X167073808Y-93415260D01*
X167689808Y-93415260D01*
X168341059Y-93791260D01*
X168548695Y-93735624D01*
X168756164Y-93376277D01*
X168787735Y-93136468D01*
X168725133Y-92902832D01*
X168577887Y-92710938D01*
X168368415Y-92590000D01*
X168348444Y-92578469D01*
X168140808Y-92634105D01*
X167689808Y-93415260D01*
X167073808Y-93415260D01*
X166617821Y-93151996D01*
X166490806Y-93186030D01*
X166456499Y-93057996D01*
X165805248Y-92681996D01*
X165354248Y-93463151D01*
X145300657Y-93463151D01*
X143558040Y-92457051D01*
X163627048Y-92457051D01*
X163682684Y-92664687D01*
X163702655Y-92676217D01*
X163912127Y-92797156D01*
X164151935Y-92828728D01*
X164385570Y-92766125D01*
X164452722Y-92714598D01*
X164440585Y-92806788D01*
X164503187Y-93040424D01*
X164650433Y-93232318D01*
X164859905Y-93353256D01*
X164879876Y-93364787D01*
X165087512Y-93309151D01*
X165538512Y-92527996D01*
X165343248Y-92415260D01*
X165959248Y-92415260D01*
X166610499Y-92791260D01*
X166737514Y-92757226D01*
X166771821Y-92885260D01*
X167423072Y-93261260D01*
X167874072Y-92480105D01*
X167818436Y-92272469D01*
X167798465Y-92260939D01*
X167588993Y-92140000D01*
X167349185Y-92108428D01*
X167115550Y-92171031D01*
X167045554Y-92224741D01*
X167057175Y-92136468D01*
X166994573Y-91902832D01*
X166847327Y-91710938D01*
X166637855Y-91590000D01*
X166617884Y-91578469D01*
X166410248Y-91634105D01*
X165959248Y-92415260D01*
X165343248Y-92415260D01*
X164887261Y-92151996D01*
X164764906Y-92184781D01*
X164729299Y-92051896D01*
X164078048Y-91675896D01*
X163627048Y-92457051D01*
X143558040Y-92457051D01*
X141793876Y-91438511D01*
X161887148Y-91438511D01*
X161942784Y-91646147D01*
X161962755Y-91657677D01*
X162172227Y-91778616D01*
X162412035Y-91810188D01*
X162645670Y-91747585D01*
X162728771Y-91683820D01*
X162713385Y-91800688D01*
X162775987Y-92034324D01*
X162923233Y-92226218D01*
X163132705Y-92347156D01*
X163152676Y-92358687D01*
X163360312Y-92303051D01*
X163811312Y-91521896D01*
X163616048Y-91409160D01*
X164232048Y-91409160D01*
X164883299Y-91785160D01*
X165005654Y-91752375D01*
X165041261Y-91885260D01*
X165692512Y-92261260D01*
X166143512Y-91480105D01*
X166087876Y-91272469D01*
X166067905Y-91260939D01*
X165858433Y-91140000D01*
X165618625Y-91108428D01*
X165384990Y-91171031D01*
X165317838Y-91222558D01*
X165329975Y-91130368D01*
X165267373Y-90896732D01*
X165120127Y-90704838D01*
X164910655Y-90583900D01*
X164890684Y-90572369D01*
X164683048Y-90628005D01*
X164232048Y-91409160D01*
X163616048Y-91409160D01*
X163160061Y-91145896D01*
X163028966Y-91181023D01*
X162989399Y-91033356D01*
X162338148Y-90657356D01*
X161887148Y-91438511D01*
X141793876Y-91438511D01*
X140060508Y-90437751D01*
X160157408Y-90437751D01*
X160213044Y-90645387D01*
X160233015Y-90656917D01*
X160442487Y-90777856D01*
X160682295Y-90809428D01*
X160915930Y-90746825D01*
X160985125Y-90693730D01*
X160973485Y-90782148D01*
X161036087Y-91015784D01*
X161183333Y-91207678D01*
X161392805Y-91328616D01*
X161412776Y-91340147D01*
X161620412Y-91284511D01*
X162071412Y-90503356D01*
X161876148Y-90390620D01*
X162492148Y-90390620D01*
X163143399Y-90766620D01*
X163274494Y-90731493D01*
X163314061Y-90879160D01*
X163965312Y-91255160D01*
X164416312Y-90474005D01*
X164360676Y-90266369D01*
X164340705Y-90254839D01*
X164131233Y-90133900D01*
X163891425Y-90102328D01*
X163657790Y-90164931D01*
X163574689Y-90228696D01*
X163590075Y-90111828D01*
X163527473Y-89878192D01*
X163380227Y-89686298D01*
X163170755Y-89565360D01*
X163150784Y-89553829D01*
X162943148Y-89609465D01*
X162492148Y-90390620D01*
X161876148Y-90390620D01*
X161420161Y-90127356D01*
X161294101Y-90161134D01*
X161259659Y-90032596D01*
X160608408Y-89656596D01*
X160157408Y-90437751D01*
X140060508Y-90437751D01*
X136659720Y-88474306D01*
X136637846Y-88466881D01*
X136618660Y-88454061D01*
X136377479Y-88354159D01*
X136321529Y-88343030D01*
X136266429Y-88328266D01*
X135877087Y-88302748D01*
X135877085Y-88302748D01*
X135845582Y-88306896D01*
X135741691Y-88320573D01*
X135372217Y-88445992D01*
X135342376Y-88463221D01*
X135309720Y-88474306D01*
X118930423Y-97930901D01*
X118305542Y-98141804D01*
X118667850Y-97780128D01*
X118927204Y-97155532D01*
X118927794Y-96479231D01*
X118669530Y-95854183D01*
X118191730Y-95375548D01*
X117567134Y-95116194D01*
X116890833Y-95115604D01*
X116265785Y-95373868D01*
X115787150Y-95851668D01*
X115527796Y-96476264D01*
X115527206Y-97152565D01*
X115785470Y-97777613D01*
X116263270Y-98256248D01*
X116887866Y-98515602D01*
X117197222Y-98515872D01*
X114324898Y-99485307D01*
X109509980Y-99161280D01*
X105185573Y-97019328D01*
X104972329Y-96775312D01*
X105202035Y-96697336D01*
X105850669Y-96322846D01*
X106114687Y-96091309D01*
X106270002Y-95776360D01*
X106292969Y-95425949D01*
X106241069Y-95273057D01*
X106974429Y-94539697D01*
X107117611Y-94539822D01*
X107494477Y-94384103D01*
X107783066Y-94096018D01*
X107939442Y-93719424D01*
X107939798Y-93311653D01*
X107784079Y-92934787D01*
X107503030Y-92653247D01*
X107555169Y-92585298D01*
X107617771Y-92351663D01*
X107586200Y-92111854D01*
X107551731Y-92052151D01*
X107344095Y-91996516D01*
X106497988Y-92485016D01*
X106534988Y-92549101D01*
X106453648Y-92596063D01*
X106334763Y-92645185D01*
X106288396Y-92691471D01*
X106268252Y-92703101D01*
X106231252Y-92639016D01*
X105385145Y-93127516D01*
X105329509Y-93335151D01*
X105363979Y-93394854D01*
X105555874Y-93542100D01*
X105789509Y-93604702D01*
X105889552Y-93591531D01*
X105889442Y-93717635D01*
X106033539Y-94066375D01*
X105736898Y-94363016D01*
X105563972Y-94063500D01*
X105490270Y-93977681D01*
X105382316Y-93922106D01*
X105271894Y-93913719D01*
X105318408Y-93823365D01*
X105327604Y-93702295D01*
X105288972Y-93587185D01*
X104538972Y-92288147D01*
X104465270Y-92202328D01*
X104357316Y-92146753D01*
X104292406Y-92141823D01*
X104318408Y-92091315D01*
X104327604Y-91970245D01*
X104288972Y-91855135D01*
X103538972Y-90556097D01*
X103465270Y-90470278D01*
X103357316Y-90414703D01*
X103246893Y-90406316D01*
X103293408Y-90315962D01*
X103302604Y-90194892D01*
X103263972Y-90079782D01*
X103035765Y-89684516D01*
X103512165Y-89684516D01*
X103545161Y-89764373D01*
X103833246Y-90052962D01*
X104120128Y-90172086D01*
X104091295Y-90196848D01*
X104035720Y-90304801D01*
X104026524Y-90425871D01*
X104065156Y-90540981D01*
X104265156Y-90887391D01*
X104338858Y-90973210D01*
X104352186Y-90980071D01*
X104351524Y-90988787D01*
X104390156Y-91103897D01*
X104590156Y-91450307D01*
X104663858Y-91536126D01*
X104677186Y-91542987D01*
X104676524Y-91551704D01*
X104715156Y-91666814D01*
X104915156Y-92013224D01*
X104988858Y-92099043D01*
X105002186Y-92105904D01*
X105001524Y-92114621D01*
X105040156Y-92229731D01*
X105099457Y-92332444D01*
X105074071Y-92365528D01*
X105011469Y-92599163D01*
X105043040Y-92838972D01*
X105077509Y-92898675D01*
X105285145Y-92954310D01*
X106131252Y-92465810D01*
X106109191Y-92427599D01*
X106375927Y-92273599D01*
X106397988Y-92311810D01*
X107244095Y-91823310D01*
X107299731Y-91615675D01*
X107265261Y-91555972D01*
X107073366Y-91408726D01*
X106839731Y-91346124D01*
X106798386Y-91351567D01*
X106739084Y-91248853D01*
X106665382Y-91163034D01*
X106652054Y-91156173D01*
X106652716Y-91147456D01*
X106614084Y-91032346D01*
X106414084Y-90685936D01*
X106340382Y-90600117D01*
X106327054Y-90593256D01*
X106327716Y-90584539D01*
X106289084Y-90469429D01*
X106089084Y-90123019D01*
X106015382Y-90037200D01*
X106002054Y-90030339D01*
X106002716Y-90021623D01*
X105982899Y-89962575D01*
X106356246Y-89589228D01*
X119336697Y-89589228D01*
X119544167Y-89948575D01*
X119736061Y-90095821D01*
X119969697Y-90158424D01*
X120209505Y-90126852D01*
X120373996Y-90031883D01*
X120429632Y-89824247D01*
X120381635Y-89741113D01*
X120877624Y-89741113D01*
X120904004Y-89725883D01*
X120904003Y-89725883D01*
X120877624Y-89741113D01*
X120381635Y-89741113D01*
X119978632Y-89043092D01*
X119392333Y-89381592D01*
X119336697Y-89589228D01*
X106356246Y-89589228D01*
X106719093Y-89226381D01*
X106827480Y-89064169D01*
X106837370Y-89014449D01*
X106865540Y-88872827D01*
X106865540Y-87020156D01*
X107741254Y-87020156D01*
X107760657Y-87053764D01*
X107760657Y-87053763D01*
X107855626Y-87218255D01*
X108047520Y-87365501D01*
X108281156Y-87428104D01*
X108520965Y-87396532D01*
X108880312Y-87189063D01*
X108935948Y-86981427D01*
X108597448Y-86395128D01*
X107816293Y-86846128D01*
X107760657Y-87053763D01*
X107741254Y-87020156D01*
X106865540Y-87020156D01*
X106865540Y-86119457D01*
X107328116Y-86119457D01*
X107359688Y-86359265D01*
X107454657Y-86523756D01*
X107662293Y-86579392D01*
X108443448Y-86128392D01*
X108104948Y-85542093D01*
X107897312Y-85486457D01*
X107537965Y-85693927D01*
X107390719Y-85885821D01*
X107328116Y-86119457D01*
X106865540Y-86119457D01*
X106865540Y-84399500D01*
X106967396Y-84399500D01*
X107006028Y-84514610D01*
X107456028Y-85294032D01*
X107529731Y-85379851D01*
X107637684Y-85435426D01*
X107758754Y-85444622D01*
X107873864Y-85405990D01*
X108661268Y-84951382D01*
X108950778Y-84951382D01*
X108786667Y-84972988D01*
X108427320Y-85180457D01*
X108371684Y-85388093D01*
X108710184Y-85974392D01*
X108727504Y-85964392D01*
X108881504Y-86231128D01*
X108864184Y-86241128D01*
X109202684Y-86827427D01*
X109410320Y-86883063D01*
X109769667Y-86675593D01*
X109916913Y-86483699D01*
X109979516Y-86250063D01*
X109967687Y-86160217D01*
X110004978Y-86163049D01*
X110120088Y-86124417D01*
X111159318Y-85524417D01*
X111245137Y-85450715D01*
X111300712Y-85342761D01*
X111309908Y-85221691D01*
X111271276Y-85106582D01*
X111221230Y-85019900D01*
X111933069Y-84308062D01*
X112375667Y-84308062D01*
X112675000Y-84607396D01*
X112675000Y-85527489D01*
X112705888Y-85682775D01*
X112713060Y-85718831D01*
X112821447Y-85881042D01*
X113035225Y-86094821D01*
X113059135Y-86166063D01*
X113259135Y-86512473D01*
X113332837Y-86598292D01*
X113440791Y-86653867D01*
X113505701Y-86658797D01*
X113479699Y-86709305D01*
X113470503Y-86830375D01*
X113509135Y-86945485D01*
X113709135Y-87291895D01*
X113782837Y-87377714D01*
X113890791Y-87433289D01*
X114011861Y-87442485D01*
X114126970Y-87403853D01*
X114279567Y-87315751D01*
X115580085Y-87315751D01*
X115771427Y-87277691D01*
X115933638Y-87169304D01*
X116037495Y-87065447D01*
X116292400Y-86918277D01*
X116300071Y-86919803D01*
X116453145Y-86889355D01*
X116582914Y-86802646D01*
X116639587Y-86717829D01*
X116862484Y-86589139D01*
X116948303Y-86515436D01*
X117003878Y-86407483D01*
X117013074Y-86286413D01*
X116974442Y-86171303D01*
X116765140Y-85808782D01*
X116790527Y-85775697D01*
X116853130Y-85542062D01*
X116821558Y-85302254D01*
X116779355Y-85229155D01*
X117068286Y-85229155D01*
X117106918Y-85344265D01*
X117431918Y-85907181D01*
X117505621Y-85993000D01*
X117613574Y-86048575D01*
X117734644Y-86057771D01*
X117849754Y-86019139D01*
X118767740Y-85489139D01*
X118853559Y-85415436D01*
X118909134Y-85307483D01*
X118918330Y-85186413D01*
X118879698Y-85071303D01*
X118554698Y-84508387D01*
X118480995Y-84422568D01*
X118373042Y-84366993D01*
X118251972Y-84357797D01*
X118136862Y-84396429D01*
X117218876Y-84926429D01*
X117133057Y-85000132D01*
X117077482Y-85108085D01*
X117068286Y-85229155D01*
X116779355Y-85229155D01*
X116751589Y-85181064D01*
X116543953Y-85125428D01*
X115823420Y-85541428D01*
X115833420Y-85558748D01*
X115566684Y-85712748D01*
X115556684Y-85695428D01*
X114836151Y-86111428D01*
X114781403Y-86315751D01*
X114778603Y-86315751D01*
X114779178Y-86316747D01*
X114778602Y-86315751D01*
X114538057Y-86315751D01*
X114513233Y-86286845D01*
X114761914Y-86286845D01*
X114778602Y-86315751D01*
X114778603Y-86315751D01*
X114761914Y-86286845D01*
X114513233Y-86286845D01*
X114484843Y-86253788D01*
X114376889Y-86198213D01*
X114311979Y-86193283D01*
X114337981Y-86142775D01*
X114347177Y-86021705D01*
X114308545Y-85906595D01*
X114108545Y-85560185D01*
X114034843Y-85474366D01*
X113926889Y-85418791D01*
X113805819Y-85409595D01*
X113774667Y-85420050D01*
X113675000Y-85320383D01*
X113675000Y-84900289D01*
X114310247Y-84900289D01*
X114460964Y-85161338D01*
X114435577Y-85194423D01*
X114372974Y-85428058D01*
X114404546Y-85667866D01*
X114474515Y-85789056D01*
X114682151Y-85844692D01*
X115402684Y-85428692D01*
X115392684Y-85411372D01*
X115659420Y-85257372D01*
X115669420Y-85274692D01*
X116389953Y-84858692D01*
X116445589Y-84651056D01*
X116375620Y-84529866D01*
X116183726Y-84382620D01*
X115950090Y-84320018D01*
X115908744Y-84325461D01*
X115699442Y-83962939D01*
X115625739Y-83877120D01*
X115517786Y-83821545D01*
X115396716Y-83812349D01*
X115281606Y-83850981D01*
X115096519Y-83957841D01*
X115067347Y-83938349D01*
X115056508Y-83936193D01*
X114876005Y-83900289D01*
X113382107Y-83900289D01*
X112936326Y-83454509D01*
X112774115Y-83346122D01*
X112582773Y-83308062D01*
X112225962Y-83308062D01*
X112225962Y-82951401D01*
X112901625Y-82561307D01*
X112987444Y-82487604D01*
X113043019Y-82379651D01*
X113052215Y-82258581D01*
X113013583Y-82143471D01*
X112881181Y-81914143D01*
X113472785Y-81914143D01*
X113511417Y-82029253D01*
X113911417Y-82722073D01*
X113985119Y-82807892D01*
X114093073Y-82863467D01*
X114214143Y-82872663D01*
X114329253Y-82834031D01*
X115974701Y-81884031D01*
X116060520Y-81810328D01*
X116116095Y-81702375D01*
X116125291Y-81581305D01*
X116086659Y-81466195D01*
X115977222Y-81276646D01*
X116746851Y-80507017D01*
X116855238Y-80344806D01*
X116862884Y-80306368D01*
X116893298Y-80153464D01*
X116893298Y-79693394D01*
X116901657Y-79685050D01*
X116993194Y-79464604D01*
X116993402Y-79225909D01*
X116902250Y-79005304D01*
X116733615Y-78836374D01*
X116513169Y-78744837D01*
X116274474Y-78744629D01*
X116053869Y-78835781D01*
X115884939Y-79004416D01*
X115793402Y-79224862D01*
X115793194Y-79463557D01*
X115884346Y-79684162D01*
X115893298Y-79693130D01*
X115893298Y-79946358D01*
X115054499Y-80785157D01*
X113623375Y-81611417D01*
X113537556Y-81685120D01*
X113481981Y-81793073D01*
X113472785Y-81914143D01*
X112881181Y-81914143D01*
X112613583Y-81450651D01*
X112539881Y-81364832D01*
X112431927Y-81309257D01*
X112310857Y-81300061D01*
X112195747Y-81338693D01*
X110550299Y-82288693D01*
X110464480Y-82362396D01*
X110408905Y-82470349D01*
X110399709Y-82591419D01*
X110438341Y-82706529D01*
X110838341Y-83399349D01*
X110912043Y-83485168D01*
X111019997Y-83540743D01*
X111141067Y-83549939D01*
X111225962Y-83521447D01*
X111225962Y-83600955D01*
X110483519Y-84343398D01*
X110478440Y-84345103D01*
X110249115Y-84477504D01*
X109869439Y-84097829D01*
X109707228Y-83989442D01*
X109705207Y-83989040D01*
X109515886Y-83951382D01*
X108772881Y-83951382D01*
X108575052Y-83608732D01*
X108501349Y-83522913D01*
X108393396Y-83467338D01*
X108272326Y-83458142D01*
X108157216Y-83496774D01*
X107117986Y-84096774D01*
X107032167Y-84170477D01*
X106976592Y-84278430D01*
X106967396Y-84399500D01*
X106865540Y-84399500D01*
X106865540Y-82177634D01*
X107263094Y-81948106D01*
X107348913Y-81874403D01*
X107404488Y-81766450D01*
X107413684Y-81645380D01*
X107375052Y-81530270D01*
X107287507Y-81378638D01*
X108063869Y-80602276D01*
X112687551Y-80602276D01*
X112961417Y-81076625D01*
X113035119Y-81162444D01*
X113143073Y-81218019D01*
X113264143Y-81227215D01*
X113379253Y-81188583D01*
X115024701Y-80238583D01*
X115110520Y-80164880D01*
X115166095Y-80056927D01*
X115175291Y-79935857D01*
X115136659Y-79820747D01*
X115027223Y-79631198D01*
X118193554Y-76464867D01*
X118273113Y-76345798D01*
X118301940Y-76302656D01*
X118338272Y-76120000D01*
X118551990Y-76120000D01*
X118743332Y-76081940D01*
X118905543Y-75973553D01*
X120430674Y-74448423D01*
X120508452Y-74332020D01*
X120539060Y-74286212D01*
X120577120Y-74094870D01*
X120577120Y-73477120D01*
X120539060Y-73285778D01*
X120496995Y-73222824D01*
X120430673Y-73123566D01*
X120369397Y-73062290D01*
X120711183Y-73130276D01*
X121323476Y-73008483D01*
X121789989Y-72696770D01*
X121789989Y-77633271D01*
X116689755Y-82733506D01*
X116581368Y-82895717D01*
X116543308Y-83087059D01*
X116543308Y-83122537D01*
X116268876Y-83280981D01*
X116183057Y-83354684D01*
X116127482Y-83462637D01*
X116118286Y-83583707D01*
X116156918Y-83698817D01*
X116481918Y-84261733D01*
X116555621Y-84347552D01*
X116663574Y-84403127D01*
X116784644Y-84412323D01*
X116899754Y-84373691D01*
X117439036Y-84062336D01*
X120534892Y-84062336D01*
X122162317Y-85689762D01*
X120082514Y-85689762D01*
X119891172Y-85727822D01*
X119728961Y-85836208D01*
X119311494Y-86253675D01*
X119300955Y-86241403D01*
X119193001Y-86185828D01*
X119071931Y-86176632D01*
X118956822Y-86215264D01*
X118307302Y-86590264D01*
X118221482Y-86663967D01*
X118165907Y-86771920D01*
X118156711Y-86892990D01*
X118195343Y-87008100D01*
X118795343Y-88047330D01*
X118869045Y-88133149D01*
X118909754Y-88154106D01*
X118854259Y-88226428D01*
X118791656Y-88460064D01*
X118823228Y-88699873D01*
X119030697Y-89059220D01*
X119238333Y-89114856D01*
X119629367Y-88889092D01*
X120245368Y-88889092D01*
X120696368Y-89670247D01*
X120904003Y-89725883D01*
X121068495Y-89630914D01*
X121215741Y-89439020D01*
X121278344Y-89205384D01*
X121246772Y-88965575D01*
X121039303Y-88606228D01*
X120831667Y-88550592D01*
X120245368Y-88889092D01*
X119629367Y-88889092D01*
X119824632Y-88776356D01*
X119814632Y-88759036D01*
X120081368Y-88605036D01*
X120091368Y-88622356D01*
X120677667Y-88283856D01*
X120712222Y-88154895D01*
X128709412Y-88154895D01*
X128831205Y-88767188D01*
X129178041Y-89286266D01*
X129697119Y-89633102D01*
X130309412Y-89754895D01*
X130921705Y-89633102D01*
X131440783Y-89286266D01*
X131787619Y-88767188D01*
X131909412Y-88154895D01*
X140060028Y-88154895D01*
X140181821Y-88767188D01*
X140528657Y-89286266D01*
X141047735Y-89633102D01*
X141660028Y-89754895D01*
X142272321Y-89633102D01*
X142573233Y-89432039D01*
X158426308Y-89432039D01*
X158481944Y-89639675D01*
X158501915Y-89651205D01*
X158711387Y-89772144D01*
X158951195Y-89803716D01*
X159184830Y-89741113D01*
X159256263Y-89686300D01*
X159243745Y-89781388D01*
X159306347Y-90015024D01*
X159453593Y-90206918D01*
X159663065Y-90327856D01*
X159683036Y-90339387D01*
X159890672Y-90283751D01*
X160341672Y-89502596D01*
X160146408Y-89389860D01*
X160762408Y-89389860D01*
X161413659Y-89765860D01*
X161539719Y-89732082D01*
X161574161Y-89860620D01*
X162225412Y-90236620D01*
X162676412Y-89455465D01*
X162620776Y-89247829D01*
X162600805Y-89236299D01*
X162391333Y-89115360D01*
X162151525Y-89083788D01*
X161917890Y-89146391D01*
X161848695Y-89199486D01*
X161860335Y-89111068D01*
X161797733Y-88877432D01*
X161650487Y-88685538D01*
X161441015Y-88564600D01*
X161421044Y-88553069D01*
X161213408Y-88608705D01*
X160762408Y-89389860D01*
X160146408Y-89389860D01*
X159690421Y-89126596D01*
X159564330Y-89160382D01*
X159528559Y-89026884D01*
X158877308Y-88650884D01*
X158426308Y-89432039D01*
X142573233Y-89432039D01*
X142791399Y-89286266D01*
X143138235Y-88767188D01*
X143207072Y-88421119D01*
X156699108Y-88421119D01*
X156754744Y-88628755D01*
X156774715Y-88640285D01*
X156984187Y-88761224D01*
X157223995Y-88792796D01*
X157457630Y-88730193D01*
X157525488Y-88678124D01*
X157512645Y-88775676D01*
X157575247Y-89009312D01*
X157722493Y-89201206D01*
X157931965Y-89322144D01*
X157951936Y-89333675D01*
X158159572Y-89278039D01*
X158610572Y-88496884D01*
X158415308Y-88384148D01*
X159031308Y-88384148D01*
X159682559Y-88760148D01*
X159808650Y-88726362D01*
X159844421Y-88859860D01*
X160495672Y-89235860D01*
X160946672Y-88454705D01*
X160891036Y-88247069D01*
X160871065Y-88235539D01*
X160661593Y-88114600D01*
X160421785Y-88083028D01*
X160188150Y-88145631D01*
X160116717Y-88200444D01*
X160129235Y-88105356D01*
X160066633Y-87871720D01*
X159919387Y-87679826D01*
X159709915Y-87558888D01*
X159689944Y-87547357D01*
X159482308Y-87602993D01*
X159031308Y-88384148D01*
X158415308Y-88384148D01*
X157959321Y-88120884D01*
X157838171Y-88153346D01*
X157801359Y-88015964D01*
X157150108Y-87639964D01*
X156699108Y-88421119D01*
X143207072Y-88421119D01*
X143260028Y-88154895D01*
X143138235Y-87542602D01*
X143059864Y-87425311D01*
X154963108Y-87425311D01*
X155018744Y-87632947D01*
X155038715Y-87644477D01*
X155248187Y-87765416D01*
X155487995Y-87796988D01*
X155721630Y-87734385D01*
X155797064Y-87676503D01*
X155785445Y-87764756D01*
X155848047Y-87998392D01*
X155995293Y-88190286D01*
X156204765Y-88311224D01*
X156224736Y-88322755D01*
X156432372Y-88267119D01*
X156883372Y-87485964D01*
X156688108Y-87373228D01*
X157304108Y-87373228D01*
X157955359Y-87749228D01*
X158076509Y-87716766D01*
X158113321Y-87854148D01*
X158764572Y-88230148D01*
X159215572Y-87448993D01*
X159159936Y-87241357D01*
X159139965Y-87229827D01*
X158930493Y-87108888D01*
X158690685Y-87077316D01*
X158457050Y-87139919D01*
X158389192Y-87191988D01*
X158402035Y-87094436D01*
X158339433Y-86860800D01*
X158192187Y-86668906D01*
X157982715Y-86547968D01*
X157962744Y-86536437D01*
X157755108Y-86592073D01*
X157304108Y-87373228D01*
X156688108Y-87373228D01*
X156232121Y-87109964D01*
X156098982Y-87145639D01*
X156065359Y-87020156D01*
X155414108Y-86644156D01*
X154963108Y-87425311D01*
X143059864Y-87425311D01*
X142791399Y-87023524D01*
X142410399Y-86768948D01*
X154049445Y-86768948D01*
X154112047Y-87002584D01*
X154259293Y-87194478D01*
X154468765Y-87315416D01*
X154488736Y-87326947D01*
X154696372Y-87271311D01*
X155147372Y-86490156D01*
X154952108Y-86377420D01*
X155568108Y-86377420D01*
X156219359Y-86753420D01*
X156352498Y-86717745D01*
X156386121Y-86843228D01*
X157037372Y-87219228D01*
X157488372Y-86438073D01*
X157432736Y-86230437D01*
X157412765Y-86218907D01*
X157203293Y-86097968D01*
X156963485Y-86066396D01*
X156729850Y-86128999D01*
X156654416Y-86186881D01*
X156666035Y-86098628D01*
X156603433Y-85864992D01*
X156532657Y-85772755D01*
X157201661Y-85772755D01*
X157207509Y-85894032D01*
X157260080Y-86003480D01*
X157351090Y-86083852D01*
X158130512Y-86533852D01*
X158237251Y-86571323D01*
X158358529Y-86565475D01*
X158467976Y-86512904D01*
X158548348Y-86421894D01*
X159148348Y-85382664D01*
X159185819Y-85275925D01*
X159179971Y-85154648D01*
X159127400Y-85045200D01*
X159036390Y-84964828D01*
X158734622Y-84790602D01*
X159164723Y-84360501D01*
X159183290Y-84371221D01*
X159290028Y-84408692D01*
X159411306Y-84402844D01*
X159520753Y-84350273D01*
X159601125Y-84259263D01*
X159801125Y-83912853D01*
X159838596Y-83806114D01*
X159832748Y-83684836D01*
X159804563Y-83626158D01*
X159861306Y-83623422D01*
X159970753Y-83570851D01*
X160051125Y-83479841D01*
X160251125Y-83133431D01*
X160288596Y-83026692D01*
X160283099Y-82912704D01*
X160816983Y-82378820D01*
X160903692Y-82249051D01*
X160934140Y-82095977D01*
X160934140Y-80933737D01*
X161178360Y-80933737D01*
X161178360Y-83387304D01*
X161126354Y-83389812D01*
X161016907Y-83442383D01*
X160936535Y-83533393D01*
X160736535Y-83879803D01*
X160699064Y-83986542D01*
X160704912Y-84107820D01*
X160733097Y-84166498D01*
X160676354Y-84169234D01*
X160566907Y-84221805D01*
X160486535Y-84312815D01*
X160286535Y-84659225D01*
X160249064Y-84765964D01*
X160254561Y-84879953D01*
X159638097Y-85496416D01*
X159551388Y-85626185D01*
X159540037Y-85683250D01*
X158966332Y-86676936D01*
X158928861Y-86783675D01*
X158934709Y-86904952D01*
X158987280Y-87014400D01*
X159078290Y-87094772D01*
X159857712Y-87544772D01*
X159964451Y-87582243D01*
X160085729Y-87576395D01*
X160195176Y-87523824D01*
X160275548Y-87432814D01*
X160875548Y-86393584D01*
X160913019Y-86286845D01*
X160907171Y-86165568D01*
X160854600Y-86056120D01*
X160763590Y-85975748D01*
X160463433Y-85802452D01*
X160899543Y-85366341D01*
X160918110Y-85377061D01*
X161024848Y-85414532D01*
X161146126Y-85408684D01*
X161255573Y-85356113D01*
X161335945Y-85265103D01*
X161535945Y-84918693D01*
X161573416Y-84811954D01*
X161567568Y-84690676D01*
X161539383Y-84631998D01*
X161596126Y-84629262D01*
X161705573Y-84576691D01*
X161785945Y-84485681D01*
X161985945Y-84139271D01*
X162023416Y-84032532D01*
X162017568Y-83911254D01*
X161973126Y-83818730D01*
X161978360Y-83792417D01*
X161978360Y-80407610D01*
X162694880Y-81124130D01*
X162694880Y-84511130D01*
X162670175Y-84539105D01*
X162470175Y-84885515D01*
X162432704Y-84992254D01*
X162438552Y-85113532D01*
X162466737Y-85172210D01*
X162409994Y-85174946D01*
X162300547Y-85227517D01*
X162220175Y-85318527D01*
X162020175Y-85664937D01*
X161982704Y-85771676D01*
X161988201Y-85885664D01*
X161369197Y-86504668D01*
X161282488Y-86634437D01*
X161271908Y-86687627D01*
X160697432Y-87682648D01*
X160659961Y-87789387D01*
X160665809Y-87910664D01*
X160718380Y-88020112D01*
X160809390Y-88100484D01*
X161588812Y-88550484D01*
X161695551Y-88587955D01*
X161816829Y-88582107D01*
X161926276Y-88529536D01*
X162006648Y-88438526D01*
X162606648Y-87399296D01*
X162644119Y-87292557D01*
X162638271Y-87171280D01*
X162585700Y-87061832D01*
X162494690Y-86981460D01*
X162196143Y-86809094D01*
X162633183Y-86372054D01*
X162651750Y-86382773D01*
X162758488Y-86420244D01*
X162879766Y-86414396D01*
X162989213Y-86361825D01*
X163069585Y-86270815D01*
X163269585Y-85924405D01*
X163307056Y-85817666D01*
X163301208Y-85696388D01*
X163273023Y-85637710D01*
X163329766Y-85634974D01*
X163439213Y-85582403D01*
X163519585Y-85491393D01*
X163719585Y-85144983D01*
X163757056Y-85038244D01*
X163751208Y-84916966D01*
X163698637Y-84807518D01*
X163607626Y-84727147D01*
X163494880Y-84662053D01*
X163494880Y-81429139D01*
X164419540Y-82353799D01*
X164419540Y-85509350D01*
X164394835Y-85537325D01*
X164194835Y-85883735D01*
X164157364Y-85990474D01*
X164163212Y-86111752D01*
X164191397Y-86170430D01*
X164134654Y-86173166D01*
X164025207Y-86225737D01*
X163944835Y-86316747D01*
X163744835Y-86663157D01*
X163707364Y-86769896D01*
X163713212Y-86891174D01*
X163765783Y-87000622D01*
X163856794Y-87080993D01*
X163969540Y-87146087D01*
X163969540Y-87388287D01*
X163686297Y-87671529D01*
X163445008Y-87532220D01*
X163338269Y-87494749D01*
X163216991Y-87500597D01*
X163107544Y-87553168D01*
X163027172Y-87644178D01*
X162427172Y-88683408D01*
X162389701Y-88790147D01*
X162395549Y-88911424D01*
X162448120Y-89020872D01*
X162539130Y-89101244D01*
X163318552Y-89551244D01*
X163425291Y-89588715D01*
X163546569Y-89582867D01*
X163656016Y-89530296D01*
X163736388Y-89439286D01*
X164336388Y-88400056D01*
X164373859Y-88293317D01*
X164368011Y-88172040D01*
X164351510Y-88137687D01*
X164652380Y-87836817D01*
X164652383Y-87836815D01*
X164739092Y-87707045D01*
X164741768Y-87693592D01*
X164769541Y-87553972D01*
X164769540Y-87553967D01*
X164769540Y-87297010D01*
X164794245Y-87269035D01*
X164994245Y-86922625D01*
X165031716Y-86815886D01*
X165025868Y-86694608D01*
X164997683Y-86635930D01*
X165054426Y-86633194D01*
X165163873Y-86580623D01*
X165244245Y-86489613D01*
X165444245Y-86143203D01*
X165481716Y-86036464D01*
X165475868Y-85915186D01*
X165423297Y-85805738D01*
X165332286Y-85725367D01*
X165219540Y-85660273D01*
X165219540Y-82658810D01*
X166163340Y-83602610D01*
X166163340Y-86522682D01*
X166138635Y-86550657D01*
X165938635Y-86897067D01*
X165901164Y-87003806D01*
X165907012Y-87125084D01*
X165935197Y-87183762D01*
X165878454Y-87186498D01*
X165769007Y-87239069D01*
X165688635Y-87330079D01*
X165488635Y-87676489D01*
X165451164Y-87783228D01*
X165457012Y-87904506D01*
X165509583Y-88013954D01*
X165600594Y-88094325D01*
X165713340Y-88159419D01*
X165713340Y-88402926D01*
X165426197Y-88690069D01*
X165184908Y-88550760D01*
X165078169Y-88513289D01*
X164956891Y-88519137D01*
X164847444Y-88571708D01*
X164767072Y-88662718D01*
X164167072Y-89701948D01*
X164129601Y-89808687D01*
X164135449Y-89929964D01*
X164188020Y-90039412D01*
X164279030Y-90119784D01*
X165058452Y-90569784D01*
X165165191Y-90607255D01*
X165286469Y-90601407D01*
X165395916Y-90548836D01*
X165476288Y-90457826D01*
X166076288Y-89418596D01*
X166113759Y-89311857D01*
X166107911Y-89190580D01*
X166091411Y-89156227D01*
X166396183Y-88851455D01*
X166482892Y-88721686D01*
X166513340Y-88568612D01*
X166513340Y-88310342D01*
X166538045Y-88282367D01*
X166738045Y-87935957D01*
X166775516Y-87829218D01*
X166769668Y-87707940D01*
X166741483Y-87649262D01*
X166798226Y-87646526D01*
X166907673Y-87593955D01*
X166988045Y-87502945D01*
X167188045Y-87156535D01*
X167225516Y-87049796D01*
X167219668Y-86928518D01*
X167167097Y-86819070D01*
X167076086Y-86738699D01*
X166963340Y-86673605D01*
X166963340Y-83436924D01*
X166952622Y-83383040D01*
X166942441Y-83331857D01*
X167888000Y-84277416D01*
X167888000Y-87531062D01*
X167863295Y-87559037D01*
X167663295Y-87905447D01*
X167625824Y-88012186D01*
X167631672Y-88133464D01*
X167659857Y-88192142D01*
X167603114Y-88194878D01*
X167493667Y-88247449D01*
X167413295Y-88338459D01*
X167213295Y-88684869D01*
X167175824Y-88791608D01*
X167181321Y-88905596D01*
X166566037Y-89520880D01*
X166479328Y-89650649D01*
X166478864Y-89652984D01*
X166465960Y-89717856D01*
X165894272Y-90708048D01*
X165856801Y-90814787D01*
X165862649Y-90936064D01*
X165915220Y-91045512D01*
X166006230Y-91125884D01*
X166785652Y-91575884D01*
X166892391Y-91613355D01*
X167013669Y-91607507D01*
X167123116Y-91554936D01*
X167203488Y-91463926D01*
X167803488Y-90424696D01*
X167840959Y-90317957D01*
X167835111Y-90196680D01*
X167782540Y-90087232D01*
X167691530Y-90006860D01*
X167387158Y-89831131D01*
X167826303Y-89391986D01*
X167844870Y-89402705D01*
X167951608Y-89440176D01*
X168072886Y-89434328D01*
X168182333Y-89381757D01*
X168262705Y-89290747D01*
X168462705Y-88944337D01*
X168500176Y-88837598D01*
X168494328Y-88716320D01*
X168466143Y-88657642D01*
X168522886Y-88654906D01*
X168632333Y-88602335D01*
X168712705Y-88511325D01*
X168912705Y-88164915D01*
X168950176Y-88058176D01*
X168944328Y-87936898D01*
X168891757Y-87827450D01*
X168800746Y-87747079D01*
X168688000Y-87681985D01*
X168688000Y-84582426D01*
X169620280Y-85514706D01*
X169620280Y-88526742D01*
X169595575Y-88554717D01*
X169395575Y-88901127D01*
X169358104Y-89007866D01*
X169363952Y-89129144D01*
X169392137Y-89187822D01*
X169335394Y-89190558D01*
X169225947Y-89243129D01*
X169145575Y-89334139D01*
X168945575Y-89680549D01*
X168908104Y-89787288D01*
X168913601Y-89901277D01*
X168296597Y-90518280D01*
X168209888Y-90648049D01*
X168195731Y-90719223D01*
X167624832Y-91708048D01*
X167587361Y-91814787D01*
X167593209Y-91936064D01*
X167645780Y-92045512D01*
X167736790Y-92125884D01*
X168516212Y-92575884D01*
X168622951Y-92613355D01*
X168744229Y-92607507D01*
X168853676Y-92554936D01*
X168934048Y-92463926D01*
X169534048Y-91424696D01*
X169571519Y-91317957D01*
X169565671Y-91196680D01*
X169513100Y-91087232D01*
X169422090Y-91006860D01*
X169116070Y-90830179D01*
X169558583Y-90387665D01*
X169577150Y-90398385D01*
X169683888Y-90435856D01*
X169805166Y-90430008D01*
X169914613Y-90377437D01*
X169994985Y-90286427D01*
X170194985Y-89940017D01*
X170232456Y-89833278D01*
X170226608Y-89712000D01*
X170198423Y-89653322D01*
X170255166Y-89650586D01*
X170364613Y-89598015D01*
X170444985Y-89507005D01*
X170644985Y-89160595D01*
X170682456Y-89053856D01*
X170676608Y-88932578D01*
X170624037Y-88823130D01*
X170533026Y-88742759D01*
X170420280Y-88677665D01*
X170420280Y-85349020D01*
X170400152Y-85247829D01*
X170389832Y-85195946D01*
X170303123Y-85066177D01*
X165474011Y-80237065D01*
X166069215Y-79991132D01*
X166547850Y-79513332D01*
X166807204Y-78888736D01*
X166807794Y-78212435D01*
X166549530Y-77587387D01*
X166071730Y-77108752D01*
X165447134Y-76849398D01*
X164770833Y-76848808D01*
X164145785Y-77107072D01*
X163667150Y-77584872D01*
X163510088Y-77963122D01*
X161849268Y-76302302D01*
X161892140Y-76198798D01*
X161892140Y-76117360D01*
X161740140Y-75965360D01*
X160688140Y-75965360D01*
X160688140Y-75971983D01*
X160380140Y-75971983D01*
X160380140Y-75965360D01*
X159328140Y-75965360D01*
X159176140Y-76117360D01*
X159176140Y-76198798D01*
X159268702Y-76422264D01*
X159439735Y-76593297D01*
X159478263Y-76609256D01*
X159478263Y-76727860D01*
X159497770Y-76831531D01*
X159478263Y-76927860D01*
X159478263Y-77377860D01*
X159497770Y-77481531D01*
X159478263Y-77577860D01*
X159478263Y-78027860D01*
X159497770Y-78131531D01*
X159478263Y-78227860D01*
X159478263Y-78677860D01*
X159497770Y-78781531D01*
X159478263Y-78877860D01*
X159478263Y-79327860D01*
X159497770Y-79431531D01*
X159478263Y-79527860D01*
X159478263Y-79977860D01*
X159497770Y-80081531D01*
X159478263Y-80177860D01*
X159478263Y-80627860D01*
X159499182Y-80739033D01*
X159564885Y-80841139D01*
X159665137Y-80909638D01*
X159784140Y-80933737D01*
X160134140Y-80933737D01*
X160134140Y-81930291D01*
X159638117Y-82426314D01*
X159619550Y-82415595D01*
X159512812Y-82378124D01*
X159391534Y-82383972D01*
X159282087Y-82436543D01*
X159201715Y-82527553D01*
X159001715Y-82873963D01*
X158964244Y-82980702D01*
X158970092Y-83101980D01*
X158998277Y-83160658D01*
X158941534Y-83163394D01*
X158832087Y-83215965D01*
X158751715Y-83306975D01*
X158551715Y-83653385D01*
X158514244Y-83760124D01*
X158519741Y-83874113D01*
X157910897Y-84482956D01*
X157824188Y-84612725D01*
X157819581Y-84635885D01*
X157812067Y-84673665D01*
X157239132Y-85666016D01*
X157201661Y-85772755D01*
X156532657Y-85772755D01*
X156456187Y-85673098D01*
X156246715Y-85552160D01*
X156226744Y-85540629D01*
X156019108Y-85596265D01*
X155568108Y-86377420D01*
X154952108Y-86377420D01*
X154496121Y-86114156D01*
X154288485Y-86169792D01*
X154081016Y-86529139D01*
X154049445Y-86768948D01*
X142410399Y-86768948D01*
X142272321Y-86676688D01*
X141660028Y-86554895D01*
X141047735Y-86676688D01*
X140528657Y-87023524D01*
X140181821Y-87542602D01*
X140060028Y-88154895D01*
X131909412Y-88154895D01*
X131787619Y-87542602D01*
X131440783Y-87023524D01*
X130921705Y-86676688D01*
X130309412Y-86554895D01*
X129697119Y-86676688D01*
X129178041Y-87023524D01*
X128831205Y-87542602D01*
X128709412Y-88154895D01*
X120712222Y-88154895D01*
X120733303Y-88076220D01*
X120525833Y-87716873D01*
X120333939Y-87569627D01*
X120100303Y-87507024D01*
X120010457Y-87518853D01*
X120013289Y-87481562D01*
X119974657Y-87366452D01*
X119842256Y-87137127D01*
X120289621Y-86689762D01*
X122713462Y-86689762D01*
X122904804Y-86651702D01*
X123067015Y-86543315D01*
X123248550Y-86361781D01*
X143287993Y-86361781D01*
X143479335Y-86323721D01*
X143641546Y-86215334D01*
X144217096Y-85639784D01*
X154594485Y-85639784D01*
X154650121Y-85847420D01*
X155301372Y-86223420D01*
X155752372Y-85442265D01*
X155696736Y-85234629D01*
X155676765Y-85223099D01*
X155467293Y-85102160D01*
X155227485Y-85070588D01*
X154993850Y-85133191D01*
X154801955Y-85280437D01*
X154594485Y-85639784D01*
X144217096Y-85639784D01*
X146473840Y-83383040D01*
X153756880Y-83383040D01*
X153756880Y-83501979D01*
X153849443Y-83725445D01*
X154020476Y-83896478D01*
X154243942Y-83989040D01*
X154337880Y-83989040D01*
X154489880Y-83837040D01*
X154489880Y-83231040D01*
X154739880Y-83231040D01*
X154739880Y-83837040D01*
X154891880Y-83989040D01*
X154985818Y-83989040D01*
X155209284Y-83896478D01*
X155380317Y-83725445D01*
X155472880Y-83501979D01*
X155472880Y-83383040D01*
X155320880Y-83231040D01*
X154739880Y-83231040D01*
X154489880Y-83231040D01*
X153908880Y-83231040D01*
X153756880Y-83383040D01*
X146473840Y-83383040D01*
X147612471Y-82244409D01*
X147637797Y-82259031D01*
X147744536Y-82296502D01*
X147865814Y-82290654D01*
X147975261Y-82238083D01*
X148055633Y-82147073D01*
X148185161Y-81922724D01*
X151767707Y-81922724D01*
X151959049Y-81884664D01*
X152121260Y-81776277D01*
X152994678Y-80902860D01*
X153755217Y-80902860D01*
X153765137Y-80909638D01*
X153884140Y-80933737D01*
X154134140Y-80933737D01*
X154134140Y-81487340D01*
X154083102Y-81562037D01*
X154059003Y-81681040D01*
X154059003Y-82249644D01*
X154020476Y-82265602D01*
X153849443Y-82436635D01*
X153756880Y-82660101D01*
X153756880Y-82779040D01*
X153908880Y-82931040D01*
X154489880Y-82931040D01*
X154489880Y-82907040D01*
X154739880Y-82907040D01*
X154739880Y-82931040D01*
X155320880Y-82931040D01*
X155472880Y-82779040D01*
X155472880Y-82660101D01*
X155380317Y-82436635D01*
X155209284Y-82265602D01*
X155170757Y-82249644D01*
X155170757Y-81681040D01*
X155149838Y-81569867D01*
X155134140Y-81545471D01*
X155134140Y-80933737D01*
X155384140Y-80933737D01*
X155495313Y-80912818D01*
X155597419Y-80847115D01*
X155665918Y-80746863D01*
X155690017Y-80627860D01*
X155690017Y-80382280D01*
X157240901Y-81933164D01*
X157221804Y-81987562D01*
X157227652Y-82108840D01*
X157255837Y-82167518D01*
X157199094Y-82170254D01*
X157089647Y-82222825D01*
X157009275Y-82313835D01*
X156809275Y-82660245D01*
X156771804Y-82766984D01*
X156777652Y-82888262D01*
X156830223Y-82997710D01*
X156921234Y-83078081D01*
X157033980Y-83143175D01*
X157033980Y-83386606D01*
X156762257Y-83658329D01*
X156520968Y-83519020D01*
X156414229Y-83481549D01*
X156292951Y-83487397D01*
X156183504Y-83539968D01*
X156103132Y-83630978D01*
X155503132Y-84670208D01*
X155465661Y-84776947D01*
X155471509Y-84898224D01*
X155524080Y-85007672D01*
X155615090Y-85088044D01*
X156394512Y-85538044D01*
X156501251Y-85575515D01*
X156622529Y-85569667D01*
X156731976Y-85517096D01*
X156812348Y-85426086D01*
X157412348Y-84386856D01*
X157449819Y-84280117D01*
X157443971Y-84158840D01*
X157427471Y-84124487D01*
X157716823Y-83835135D01*
X157803532Y-83705366D01*
X157833981Y-83552292D01*
X157833980Y-83552287D01*
X157833980Y-83294098D01*
X157858685Y-83266123D01*
X158058685Y-82919713D01*
X158096156Y-82812974D01*
X158090308Y-82691696D01*
X158062123Y-82633018D01*
X158118866Y-82630282D01*
X158228313Y-82577711D01*
X158308685Y-82486701D01*
X158508685Y-82140291D01*
X158546156Y-82033552D01*
X158540308Y-81912274D01*
X158487737Y-81802826D01*
X158396726Y-81722455D01*
X157877110Y-81422455D01*
X157853154Y-81414045D01*
X155909126Y-79470017D01*
X155779357Y-79383308D01*
X155682682Y-79364078D01*
X155690017Y-79327860D01*
X155690017Y-79209256D01*
X155728545Y-79193297D01*
X155899578Y-79022264D01*
X155992140Y-78798798D01*
X155992140Y-78717360D01*
X155840140Y-78565360D01*
X154788140Y-78565360D01*
X154788140Y-78571983D01*
X154480140Y-78571983D01*
X154480140Y-78565360D01*
X154460140Y-78565360D01*
X154460140Y-78340360D01*
X154480140Y-78340360D01*
X154480140Y-78333737D01*
X154788140Y-78333737D01*
X154788140Y-78340360D01*
X155840140Y-78340360D01*
X155992140Y-78188360D01*
X155992140Y-78106922D01*
X155899578Y-77883456D01*
X155728545Y-77712423D01*
X155690017Y-77696464D01*
X155690017Y-77577860D01*
X155670510Y-77474189D01*
X155690017Y-77377860D01*
X155690017Y-76927860D01*
X155670510Y-76824189D01*
X155690017Y-76727860D01*
X155690017Y-76277860D01*
X155670510Y-76174189D01*
X155690017Y-76077860D01*
X155690017Y-75627860D01*
X155669098Y-75516687D01*
X155662815Y-75506922D01*
X159176140Y-75506922D01*
X159176140Y-75588360D01*
X159328140Y-75740360D01*
X160380140Y-75740360D01*
X160380140Y-75171860D01*
X160688140Y-75171860D01*
X160688140Y-75740360D01*
X161740140Y-75740360D01*
X161892140Y-75588360D01*
X161892140Y-75506922D01*
X161799578Y-75283456D01*
X161628545Y-75112423D01*
X161405079Y-75019860D01*
X160840140Y-75019860D01*
X160688140Y-75171860D01*
X160380140Y-75171860D01*
X160228140Y-75019860D01*
X159663201Y-75019860D01*
X159439735Y-75112423D01*
X159268702Y-75283456D01*
X159176140Y-75506922D01*
X155662815Y-75506922D01*
X155603395Y-75414581D01*
X155503143Y-75346082D01*
X155384140Y-75321983D01*
X154305701Y-75321983D01*
X155266993Y-74360691D01*
X155353702Y-74230922D01*
X155384151Y-74077848D01*
X155384150Y-74077843D01*
X155384150Y-71119055D01*
X155384151Y-71119050D01*
X155353702Y-70965977D01*
X155348880Y-70958760D01*
X155266993Y-70836207D01*
X155266990Y-70836205D01*
X154798937Y-70368152D01*
X165395131Y-76485864D01*
X165395131Y-76485864D01*
G37*
X165395131Y-76485864D02*
X169049806Y-79690929D01*
X171184206Y-84019064D01*
X171499829Y-88834546D01*
X169948622Y-93404249D01*
X166766746Y-97032484D01*
X162438609Y-99166885D01*
X157623127Y-99482508D01*
X154820467Y-98531132D01*
X154889167Y-98531192D01*
X155514215Y-98272928D01*
X155992850Y-97795128D01*
X156252204Y-97170532D01*
X156252794Y-96494231D01*
X155994530Y-95869183D01*
X155516730Y-95390548D01*
X154892134Y-95131194D01*
X154215833Y-95130604D01*
X153590785Y-95388868D01*
X153112150Y-95866668D01*
X152852796Y-96491264D01*
X152852206Y-97167565D01*
X153110470Y-97792613D01*
X153349115Y-98031675D01*
X153020160Y-97920009D01*
X147032708Y-94463151D01*
X167084808Y-94463151D01*
X167140444Y-94670787D01*
X167160415Y-94682317D01*
X167369887Y-94803256D01*
X167609695Y-94834828D01*
X167843330Y-94772225D01*
X168035225Y-94624979D01*
X168242695Y-94265632D01*
X168187059Y-94057996D01*
X167535808Y-93681996D01*
X167084808Y-94463151D01*
X147032708Y-94463151D01*
X145300657Y-93463151D01*
X165354248Y-93463151D01*
X165409884Y-93670787D01*
X165429855Y-93682317D01*
X165639327Y-93803256D01*
X165879135Y-93834828D01*
X166112770Y-93772225D01*
X166182766Y-93718515D01*
X166171145Y-93806788D01*
X166233747Y-94040424D01*
X166380993Y-94232318D01*
X166590465Y-94353256D01*
X166610436Y-94364787D01*
X166818072Y-94309151D01*
X167269072Y-93527996D01*
X167073808Y-93415260D01*
X167689808Y-93415260D01*
X168341059Y-93791260D01*
X168548695Y-93735624D01*
X168756164Y-93376277D01*
X168787735Y-93136468D01*
X168725133Y-92902832D01*
X168577887Y-92710938D01*
X168368415Y-92590000D01*
X168348444Y-92578469D01*
X168140808Y-92634105D01*
X167689808Y-93415260D01*
X167073808Y-93415260D01*
X166617821Y-93151996D01*
X166490806Y-93186030D01*
X166456499Y-93057996D01*
X165805248Y-92681996D01*
X165354248Y-93463151D01*
X145300657Y-93463151D01*
X143558040Y-92457051D01*
X163627048Y-92457051D01*
X163682684Y-92664687D01*
X163702655Y-92676217D01*
X163912127Y-92797156D01*
X164151935Y-92828728D01*
X164385570Y-92766125D01*
X164452722Y-92714598D01*
X164440585Y-92806788D01*
X164503187Y-93040424D01*
X164650433Y-93232318D01*
X164859905Y-93353256D01*
X164879876Y-93364787D01*
X165087512Y-93309151D01*
X165538512Y-92527996D01*
X165343248Y-92415260D01*
X165959248Y-92415260D01*
X166610499Y-92791260D01*
X166737514Y-92757226D01*
X166771821Y-92885260D01*
X167423072Y-93261260D01*
X167874072Y-92480105D01*
X167818436Y-92272469D01*
X167798465Y-92260939D01*
X167588993Y-92140000D01*
X167349185Y-92108428D01*
X167115550Y-92171031D01*
X167045554Y-92224741D01*
X167057175Y-92136468D01*
X166994573Y-91902832D01*
X166847327Y-91710938D01*
X166637855Y-91590000D01*
X166617884Y-91578469D01*
X166410248Y-91634105D01*
X165959248Y-92415260D01*
X165343248Y-92415260D01*
X164887261Y-92151996D01*
X164764906Y-92184781D01*
X164729299Y-92051896D01*
X164078048Y-91675896D01*
X163627048Y-92457051D01*
X143558040Y-92457051D01*
X141793876Y-91438511D01*
X161887148Y-91438511D01*
X161942784Y-91646147D01*
X161962755Y-91657677D01*
X162172227Y-91778616D01*
X162412035Y-91810188D01*
X162645670Y-91747585D01*
X162728771Y-91683820D01*
X162713385Y-91800688D01*
X162775987Y-92034324D01*
X162923233Y-92226218D01*
X163132705Y-92347156D01*
X163152676Y-92358687D01*
X163360312Y-92303051D01*
X163811312Y-91521896D01*
X163616048Y-91409160D01*
X164232048Y-91409160D01*
X164883299Y-91785160D01*
X165005654Y-91752375D01*
X165041261Y-91885260D01*
X165692512Y-92261260D01*
X166143512Y-91480105D01*
X166087876Y-91272469D01*
X166067905Y-91260939D01*
X165858433Y-91140000D01*
X165618625Y-91108428D01*
X165384990Y-91171031D01*
X165317838Y-91222558D01*
X165329975Y-91130368D01*
X165267373Y-90896732D01*
X165120127Y-90704838D01*
X164910655Y-90583900D01*
X164890684Y-90572369D01*
X164683048Y-90628005D01*
X164232048Y-91409160D01*
X163616048Y-91409160D01*
X163160061Y-91145896D01*
X163028966Y-91181023D01*
X162989399Y-91033356D01*
X162338148Y-90657356D01*
X161887148Y-91438511D01*
X141793876Y-91438511D01*
X140060508Y-90437751D01*
X160157408Y-90437751D01*
X160213044Y-90645387D01*
X160233015Y-90656917D01*
X160442487Y-90777856D01*
X160682295Y-90809428D01*
X160915930Y-90746825D01*
X160985125Y-90693730D01*
X160973485Y-90782148D01*
X161036087Y-91015784D01*
X161183333Y-91207678D01*
X161392805Y-91328616D01*
X161412776Y-91340147D01*
X161620412Y-91284511D01*
X162071412Y-90503356D01*
X161876148Y-90390620D01*
X162492148Y-90390620D01*
X163143399Y-90766620D01*
X163274494Y-90731493D01*
X163314061Y-90879160D01*
X163965312Y-91255160D01*
X164416312Y-90474005D01*
X164360676Y-90266369D01*
X164340705Y-90254839D01*
X164131233Y-90133900D01*
X163891425Y-90102328D01*
X163657790Y-90164931D01*
X163574689Y-90228696D01*
X163590075Y-90111828D01*
X163527473Y-89878192D01*
X163380227Y-89686298D01*
X163170755Y-89565360D01*
X163150784Y-89553829D01*
X162943148Y-89609465D01*
X162492148Y-90390620D01*
X161876148Y-90390620D01*
X161420161Y-90127356D01*
X161294101Y-90161134D01*
X161259659Y-90032596D01*
X160608408Y-89656596D01*
X160157408Y-90437751D01*
X140060508Y-90437751D01*
X136659720Y-88474306D01*
X136637846Y-88466881D01*
X136618660Y-88454061D01*
X136377479Y-88354159D01*
X136321529Y-88343030D01*
X136266429Y-88328266D01*
X135877087Y-88302748D01*
X135877085Y-88302748D01*
X135845582Y-88306896D01*
X135741691Y-88320573D01*
X135372217Y-88445992D01*
X135342376Y-88463221D01*
X135309720Y-88474306D01*
X118930423Y-97930901D01*
X118305542Y-98141804D01*
X118667850Y-97780128D01*
X118927204Y-97155532D01*
X118927794Y-96479231D01*
X118669530Y-95854183D01*
X118191730Y-95375548D01*
X117567134Y-95116194D01*
X116890833Y-95115604D01*
X116265785Y-95373868D01*
X115787150Y-95851668D01*
X115527796Y-96476264D01*
X115527206Y-97152565D01*
X115785470Y-97777613D01*
X116263270Y-98256248D01*
X116887866Y-98515602D01*
X117197222Y-98515872D01*
X114324898Y-99485307D01*
X109509980Y-99161280D01*
X105185573Y-97019328D01*
X104972329Y-96775312D01*
X105202035Y-96697336D01*
X105850669Y-96322846D01*
X106114687Y-96091309D01*
X106270002Y-95776360D01*
X106292969Y-95425949D01*
X106241069Y-95273057D01*
X106974429Y-94539697D01*
X107117611Y-94539822D01*
X107494477Y-94384103D01*
X107783066Y-94096018D01*
X107939442Y-93719424D01*
X107939798Y-93311653D01*
X107784079Y-92934787D01*
X107503030Y-92653247D01*
X107555169Y-92585298D01*
X107617771Y-92351663D01*
X107586200Y-92111854D01*
X107551731Y-92052151D01*
X107344095Y-91996516D01*
X106497988Y-92485016D01*
X106534988Y-92549101D01*
X106453648Y-92596063D01*
X106334763Y-92645185D01*
X106288396Y-92691471D01*
X106268252Y-92703101D01*
X106231252Y-92639016D01*
X105385145Y-93127516D01*
X105329509Y-93335151D01*
X105363979Y-93394854D01*
X105555874Y-93542100D01*
X105789509Y-93604702D01*
X105889552Y-93591531D01*
X105889442Y-93717635D01*
X106033539Y-94066375D01*
X105736898Y-94363016D01*
X105563972Y-94063500D01*
X105490270Y-93977681D01*
X105382316Y-93922106D01*
X105271894Y-93913719D01*
X105318408Y-93823365D01*
X105327604Y-93702295D01*
X105288972Y-93587185D01*
X104538972Y-92288147D01*
X104465270Y-92202328D01*
X104357316Y-92146753D01*
X104292406Y-92141823D01*
X104318408Y-92091315D01*
X104327604Y-91970245D01*
X104288972Y-91855135D01*
X103538972Y-90556097D01*
X103465270Y-90470278D01*
X103357316Y-90414703D01*
X103246893Y-90406316D01*
X103293408Y-90315962D01*
X103302604Y-90194892D01*
X103263972Y-90079782D01*
X103035765Y-89684516D01*
X103512165Y-89684516D01*
X103545161Y-89764373D01*
X103833246Y-90052962D01*
X104120128Y-90172086D01*
X104091295Y-90196848D01*
X104035720Y-90304801D01*
X104026524Y-90425871D01*
X104065156Y-90540981D01*
X104265156Y-90887391D01*
X104338858Y-90973210D01*
X104352186Y-90980071D01*
X104351524Y-90988787D01*
X104390156Y-91103897D01*
X104590156Y-91450307D01*
X104663858Y-91536126D01*
X104677186Y-91542987D01*
X104676524Y-91551704D01*
X104715156Y-91666814D01*
X104915156Y-92013224D01*
X104988858Y-92099043D01*
X105002186Y-92105904D01*
X105001524Y-92114621D01*
X105040156Y-92229731D01*
X105099457Y-92332444D01*
X105074071Y-92365528D01*
X105011469Y-92599163D01*
X105043040Y-92838972D01*
X105077509Y-92898675D01*
X105285145Y-92954310D01*
X106131252Y-92465810D01*
X106109191Y-92427599D01*
X106375927Y-92273599D01*
X106397988Y-92311810D01*
X107244095Y-91823310D01*
X107299731Y-91615675D01*
X107265261Y-91555972D01*
X107073366Y-91408726D01*
X106839731Y-91346124D01*
X106798386Y-91351567D01*
X106739084Y-91248853D01*
X106665382Y-91163034D01*
X106652054Y-91156173D01*
X106652716Y-91147456D01*
X106614084Y-91032346D01*
X106414084Y-90685936D01*
X106340382Y-90600117D01*
X106327054Y-90593256D01*
X106327716Y-90584539D01*
X106289084Y-90469429D01*
X106089084Y-90123019D01*
X106015382Y-90037200D01*
X106002054Y-90030339D01*
X106002716Y-90021623D01*
X105982899Y-89962575D01*
X106356246Y-89589228D01*
X119336697Y-89589228D01*
X119544167Y-89948575D01*
X119736061Y-90095821D01*
X119969697Y-90158424D01*
X120209505Y-90126852D01*
X120373996Y-90031883D01*
X120429632Y-89824247D01*
X120381635Y-89741113D01*
X120877624Y-89741113D01*
X120904004Y-89725883D01*
X120904003Y-89725883D01*
X120877624Y-89741113D01*
X120381635Y-89741113D01*
X119978632Y-89043092D01*
X119392333Y-89381592D01*
X119336697Y-89589228D01*
X106356246Y-89589228D01*
X106719093Y-89226381D01*
X106827480Y-89064169D01*
X106837370Y-89014449D01*
X106865540Y-88872827D01*
X106865540Y-87020156D01*
X107741254Y-87020156D01*
X107760657Y-87053764D01*
X107760657Y-87053763D01*
X107855626Y-87218255D01*
X108047520Y-87365501D01*
X108281156Y-87428104D01*
X108520965Y-87396532D01*
X108880312Y-87189063D01*
X108935948Y-86981427D01*
X108597448Y-86395128D01*
X107816293Y-86846128D01*
X107760657Y-87053763D01*
X107741254Y-87020156D01*
X106865540Y-87020156D01*
X106865540Y-86119457D01*
X107328116Y-86119457D01*
X107359688Y-86359265D01*
X107454657Y-86523756D01*
X107662293Y-86579392D01*
X108443448Y-86128392D01*
X108104948Y-85542093D01*
X107897312Y-85486457D01*
X107537965Y-85693927D01*
X107390719Y-85885821D01*
X107328116Y-86119457D01*
X106865540Y-86119457D01*
X106865540Y-84399500D01*
X106967396Y-84399500D01*
X107006028Y-84514610D01*
X107456028Y-85294032D01*
X107529731Y-85379851D01*
X107637684Y-85435426D01*
X107758754Y-85444622D01*
X107873864Y-85405990D01*
X108661268Y-84951382D01*
X108950778Y-84951382D01*
X108786667Y-84972988D01*
X108427320Y-85180457D01*
X108371684Y-85388093D01*
X108710184Y-85974392D01*
X108727504Y-85964392D01*
X108881504Y-86231128D01*
X108864184Y-86241128D01*
X109202684Y-86827427D01*
X109410320Y-86883063D01*
X109769667Y-86675593D01*
X109916913Y-86483699D01*
X109979516Y-86250063D01*
X109967687Y-86160217D01*
X110004978Y-86163049D01*
X110120088Y-86124417D01*
X111159318Y-85524417D01*
X111245137Y-85450715D01*
X111300712Y-85342761D01*
X111309908Y-85221691D01*
X111271276Y-85106582D01*
X111221230Y-85019900D01*
X111933069Y-84308062D01*
X112375667Y-84308062D01*
X112675000Y-84607396D01*
X112675000Y-85527489D01*
X112705888Y-85682775D01*
X112713060Y-85718831D01*
X112821447Y-85881042D01*
X113035225Y-86094821D01*
X113059135Y-86166063D01*
X113259135Y-86512473D01*
X113332837Y-86598292D01*
X113440791Y-86653867D01*
X113505701Y-86658797D01*
X113479699Y-86709305D01*
X113470503Y-86830375D01*
X113509135Y-86945485D01*
X113709135Y-87291895D01*
X113782837Y-87377714D01*
X113890791Y-87433289D01*
X114011861Y-87442485D01*
X114126970Y-87403853D01*
X114279567Y-87315751D01*
X115580085Y-87315751D01*
X115771427Y-87277691D01*
X115933638Y-87169304D01*
X116037495Y-87065447D01*
X116292400Y-86918277D01*
X116300071Y-86919803D01*
X116453145Y-86889355D01*
X116582914Y-86802646D01*
X116639587Y-86717829D01*
X116862484Y-86589139D01*
X116948303Y-86515436D01*
X117003878Y-86407483D01*
X117013074Y-86286413D01*
X116974442Y-86171303D01*
X116765140Y-85808782D01*
X116790527Y-85775697D01*
X116853130Y-85542062D01*
X116821558Y-85302254D01*
X116779355Y-85229155D01*
X117068286Y-85229155D01*
X117106918Y-85344265D01*
X117431918Y-85907181D01*
X117505621Y-85993000D01*
X117613574Y-86048575D01*
X117734644Y-86057771D01*
X117849754Y-86019139D01*
X118767740Y-85489139D01*
X118853559Y-85415436D01*
X118909134Y-85307483D01*
X118918330Y-85186413D01*
X118879698Y-85071303D01*
X118554698Y-84508387D01*
X118480995Y-84422568D01*
X118373042Y-84366993D01*
X118251972Y-84357797D01*
X118136862Y-84396429D01*
X117218876Y-84926429D01*
X117133057Y-85000132D01*
X117077482Y-85108085D01*
X117068286Y-85229155D01*
X116779355Y-85229155D01*
X116751589Y-85181064D01*
X116543953Y-85125428D01*
X115823420Y-85541428D01*
X115833420Y-85558748D01*
X115566684Y-85712748D01*
X115556684Y-85695428D01*
X114836151Y-86111428D01*
X114781403Y-86315751D01*
X114778603Y-86315751D01*
X114779178Y-86316747D01*
X114778602Y-86315751D01*
X114538057Y-86315751D01*
X114513233Y-86286845D01*
X114761914Y-86286845D01*
X114778602Y-86315751D01*
X114778603Y-86315751D01*
X114761914Y-86286845D01*
X114513233Y-86286845D01*
X114484843Y-86253788D01*
X114376889Y-86198213D01*
X114311979Y-86193283D01*
X114337981Y-86142775D01*
X114347177Y-86021705D01*
X114308545Y-85906595D01*
X114108545Y-85560185D01*
X114034843Y-85474366D01*
X113926889Y-85418791D01*
X113805819Y-85409595D01*
X113774667Y-85420050D01*
X113675000Y-85320383D01*
X113675000Y-84900289D01*
X114310247Y-84900289D01*
X114460964Y-85161338D01*
X114435577Y-85194423D01*
X114372974Y-85428058D01*
X114404546Y-85667866D01*
X114474515Y-85789056D01*
X114682151Y-85844692D01*
X115402684Y-85428692D01*
X115392684Y-85411372D01*
X115659420Y-85257372D01*
X115669420Y-85274692D01*
X116389953Y-84858692D01*
X116445589Y-84651056D01*
X116375620Y-84529866D01*
X116183726Y-84382620D01*
X115950090Y-84320018D01*
X115908744Y-84325461D01*
X115699442Y-83962939D01*
X115625739Y-83877120D01*
X115517786Y-83821545D01*
X115396716Y-83812349D01*
X115281606Y-83850981D01*
X115096519Y-83957841D01*
X115067347Y-83938349D01*
X115056508Y-83936193D01*
X114876005Y-83900289D01*
X113382107Y-83900289D01*
X112936326Y-83454509D01*
X112774115Y-83346122D01*
X112582773Y-83308062D01*
X112225962Y-83308062D01*
X112225962Y-82951401D01*
X112901625Y-82561307D01*
X112987444Y-82487604D01*
X113043019Y-82379651D01*
X113052215Y-82258581D01*
X113013583Y-82143471D01*
X112881181Y-81914143D01*
X113472785Y-81914143D01*
X113511417Y-82029253D01*
X113911417Y-82722073D01*
X113985119Y-82807892D01*
X114093073Y-82863467D01*
X114214143Y-82872663D01*
X114329253Y-82834031D01*
X115974701Y-81884031D01*
X116060520Y-81810328D01*
X116116095Y-81702375D01*
X116125291Y-81581305D01*
X116086659Y-81466195D01*
X115977222Y-81276646D01*
X116746851Y-80507017D01*
X116855238Y-80344806D01*
X116862884Y-80306368D01*
X116893298Y-80153464D01*
X116893298Y-79693394D01*
X116901657Y-79685050D01*
X116993194Y-79464604D01*
X116993402Y-79225909D01*
X116902250Y-79005304D01*
X116733615Y-78836374D01*
X116513169Y-78744837D01*
X116274474Y-78744629D01*
X116053869Y-78835781D01*
X115884939Y-79004416D01*
X115793402Y-79224862D01*
X115793194Y-79463557D01*
X115884346Y-79684162D01*
X115893298Y-79693130D01*
X115893298Y-79946358D01*
X115054499Y-80785157D01*
X113623375Y-81611417D01*
X113537556Y-81685120D01*
X113481981Y-81793073D01*
X113472785Y-81914143D01*
X112881181Y-81914143D01*
X112613583Y-81450651D01*
X112539881Y-81364832D01*
X112431927Y-81309257D01*
X112310857Y-81300061D01*
X112195747Y-81338693D01*
X110550299Y-82288693D01*
X110464480Y-82362396D01*
X110408905Y-82470349D01*
X110399709Y-82591419D01*
X110438341Y-82706529D01*
X110838341Y-83399349D01*
X110912043Y-83485168D01*
X111019997Y-83540743D01*
X111141067Y-83549939D01*
X111225962Y-83521447D01*
X111225962Y-83600955D01*
X110483519Y-84343398D01*
X110478440Y-84345103D01*
X110249115Y-84477504D01*
X109869439Y-84097829D01*
X109707228Y-83989442D01*
X109705207Y-83989040D01*
X109515886Y-83951382D01*
X108772881Y-83951382D01*
X108575052Y-83608732D01*
X108501349Y-83522913D01*
X108393396Y-83467338D01*
X108272326Y-83458142D01*
X108157216Y-83496774D01*
X107117986Y-84096774D01*
X107032167Y-84170477D01*
X106976592Y-84278430D01*
X106967396Y-84399500D01*
X106865540Y-84399500D01*
X106865540Y-82177634D01*
X107263094Y-81948106D01*
X107348913Y-81874403D01*
X107404488Y-81766450D01*
X107413684Y-81645380D01*
X107375052Y-81530270D01*
X107287507Y-81378638D01*
X108063869Y-80602276D01*
X112687551Y-80602276D01*
X112961417Y-81076625D01*
X113035119Y-81162444D01*
X113143073Y-81218019D01*
X113264143Y-81227215D01*
X113379253Y-81188583D01*
X115024701Y-80238583D01*
X115110520Y-80164880D01*
X115166095Y-80056927D01*
X115175291Y-79935857D01*
X115136659Y-79820747D01*
X115027223Y-79631198D01*
X118193554Y-76464867D01*
X118273113Y-76345798D01*
X118301940Y-76302656D01*
X118338272Y-76120000D01*
X118551990Y-76120000D01*
X118743332Y-76081940D01*
X118905543Y-75973553D01*
X120430674Y-74448423D01*
X120508452Y-74332020D01*
X120539060Y-74286212D01*
X120577120Y-74094870D01*
X120577120Y-73477120D01*
X120539060Y-73285778D01*
X120496995Y-73222824D01*
X120430673Y-73123566D01*
X120369397Y-73062290D01*
X120711183Y-73130276D01*
X121323476Y-73008483D01*
X121789989Y-72696770D01*
X121789989Y-77633271D01*
X116689755Y-82733506D01*
X116581368Y-82895717D01*
X116543308Y-83087059D01*
X116543308Y-83122537D01*
X116268876Y-83280981D01*
X116183057Y-83354684D01*
X116127482Y-83462637D01*
X116118286Y-83583707D01*
X116156918Y-83698817D01*
X116481918Y-84261733D01*
X116555621Y-84347552D01*
X116663574Y-84403127D01*
X116784644Y-84412323D01*
X116899754Y-84373691D01*
X117439036Y-84062336D01*
X120534892Y-84062336D01*
X122162317Y-85689762D01*
X120082514Y-85689762D01*
X119891172Y-85727822D01*
X119728961Y-85836208D01*
X119311494Y-86253675D01*
X119300955Y-86241403D01*
X119193001Y-86185828D01*
X119071931Y-86176632D01*
X118956822Y-86215264D01*
X118307302Y-86590264D01*
X118221482Y-86663967D01*
X118165907Y-86771920D01*
X118156711Y-86892990D01*
X118195343Y-87008100D01*
X118795343Y-88047330D01*
X118869045Y-88133149D01*
X118909754Y-88154106D01*
X118854259Y-88226428D01*
X118791656Y-88460064D01*
X118823228Y-88699873D01*
X119030697Y-89059220D01*
X119238333Y-89114856D01*
X119629367Y-88889092D01*
X120245368Y-88889092D01*
X120696368Y-89670247D01*
X120904003Y-89725883D01*
X121068495Y-89630914D01*
X121215741Y-89439020D01*
X121278344Y-89205384D01*
X121246772Y-88965575D01*
X121039303Y-88606228D01*
X120831667Y-88550592D01*
X120245368Y-88889092D01*
X119629367Y-88889092D01*
X119824632Y-88776356D01*
X119814632Y-88759036D01*
X120081368Y-88605036D01*
X120091368Y-88622356D01*
X120677667Y-88283856D01*
X120712222Y-88154895D01*
X128709412Y-88154895D01*
X128831205Y-88767188D01*
X129178041Y-89286266D01*
X129697119Y-89633102D01*
X130309412Y-89754895D01*
X130921705Y-89633102D01*
X131440783Y-89286266D01*
X131787619Y-88767188D01*
X131909412Y-88154895D01*
X140060028Y-88154895D01*
X140181821Y-88767188D01*
X140528657Y-89286266D01*
X141047735Y-89633102D01*
X141660028Y-89754895D01*
X142272321Y-89633102D01*
X142573233Y-89432039D01*
X158426308Y-89432039D01*
X158481944Y-89639675D01*
X158501915Y-89651205D01*
X158711387Y-89772144D01*
X158951195Y-89803716D01*
X159184830Y-89741113D01*
X159256263Y-89686300D01*
X159243745Y-89781388D01*
X159306347Y-90015024D01*
X159453593Y-90206918D01*
X159663065Y-90327856D01*
X159683036Y-90339387D01*
X159890672Y-90283751D01*
X160341672Y-89502596D01*
X160146408Y-89389860D01*
X160762408Y-89389860D01*
X161413659Y-89765860D01*
X161539719Y-89732082D01*
X161574161Y-89860620D01*
X162225412Y-90236620D01*
X162676412Y-89455465D01*
X162620776Y-89247829D01*
X162600805Y-89236299D01*
X162391333Y-89115360D01*
X162151525Y-89083788D01*
X161917890Y-89146391D01*
X161848695Y-89199486D01*
X161860335Y-89111068D01*
X161797733Y-88877432D01*
X161650487Y-88685538D01*
X161441015Y-88564600D01*
X161421044Y-88553069D01*
X161213408Y-88608705D01*
X160762408Y-89389860D01*
X160146408Y-89389860D01*
X159690421Y-89126596D01*
X159564330Y-89160382D01*
X159528559Y-89026884D01*
X158877308Y-88650884D01*
X158426308Y-89432039D01*
X142573233Y-89432039D01*
X142791399Y-89286266D01*
X143138235Y-88767188D01*
X143207072Y-88421119D01*
X156699108Y-88421119D01*
X156754744Y-88628755D01*
X156774715Y-88640285D01*
X156984187Y-88761224D01*
X157223995Y-88792796D01*
X157457630Y-88730193D01*
X157525488Y-88678124D01*
X157512645Y-88775676D01*
X157575247Y-89009312D01*
X157722493Y-89201206D01*
X157931965Y-89322144D01*
X157951936Y-89333675D01*
X158159572Y-89278039D01*
X158610572Y-88496884D01*
X158415308Y-88384148D01*
X159031308Y-88384148D01*
X159682559Y-88760148D01*
X159808650Y-88726362D01*
X159844421Y-88859860D01*
X160495672Y-89235860D01*
X160946672Y-88454705D01*
X160891036Y-88247069D01*
X160871065Y-88235539D01*
X160661593Y-88114600D01*
X160421785Y-88083028D01*
X160188150Y-88145631D01*
X160116717Y-88200444D01*
X160129235Y-88105356D01*
X160066633Y-87871720D01*
X159919387Y-87679826D01*
X159709915Y-87558888D01*
X159689944Y-87547357D01*
X159482308Y-87602993D01*
X159031308Y-88384148D01*
X158415308Y-88384148D01*
X157959321Y-88120884D01*
X157838171Y-88153346D01*
X157801359Y-88015964D01*
X157150108Y-87639964D01*
X156699108Y-88421119D01*
X143207072Y-88421119D01*
X143260028Y-88154895D01*
X143138235Y-87542602D01*
X143059864Y-87425311D01*
X154963108Y-87425311D01*
X155018744Y-87632947D01*
X155038715Y-87644477D01*
X155248187Y-87765416D01*
X155487995Y-87796988D01*
X155721630Y-87734385D01*
X155797064Y-87676503D01*
X155785445Y-87764756D01*
X155848047Y-87998392D01*
X155995293Y-88190286D01*
X156204765Y-88311224D01*
X156224736Y-88322755D01*
X156432372Y-88267119D01*
X156883372Y-87485964D01*
X156688108Y-87373228D01*
X157304108Y-87373228D01*
X157955359Y-87749228D01*
X158076509Y-87716766D01*
X158113321Y-87854148D01*
X158764572Y-88230148D01*
X159215572Y-87448993D01*
X159159936Y-87241357D01*
X159139965Y-87229827D01*
X158930493Y-87108888D01*
X158690685Y-87077316D01*
X158457050Y-87139919D01*
X158389192Y-87191988D01*
X158402035Y-87094436D01*
X158339433Y-86860800D01*
X158192187Y-86668906D01*
X157982715Y-86547968D01*
X157962744Y-86536437D01*
X157755108Y-86592073D01*
X157304108Y-87373228D01*
X156688108Y-87373228D01*
X156232121Y-87109964D01*
X156098982Y-87145639D01*
X156065359Y-87020156D01*
X155414108Y-86644156D01*
X154963108Y-87425311D01*
X143059864Y-87425311D01*
X142791399Y-87023524D01*
X142410399Y-86768948D01*
X154049445Y-86768948D01*
X154112047Y-87002584D01*
X154259293Y-87194478D01*
X154468765Y-87315416D01*
X154488736Y-87326947D01*
X154696372Y-87271311D01*
X155147372Y-86490156D01*
X154952108Y-86377420D01*
X155568108Y-86377420D01*
X156219359Y-86753420D01*
X156352498Y-86717745D01*
X156386121Y-86843228D01*
X157037372Y-87219228D01*
X157488372Y-86438073D01*
X157432736Y-86230437D01*
X157412765Y-86218907D01*
X157203293Y-86097968D01*
X156963485Y-86066396D01*
X156729850Y-86128999D01*
X156654416Y-86186881D01*
X156666035Y-86098628D01*
X156603433Y-85864992D01*
X156532657Y-85772755D01*
X157201661Y-85772755D01*
X157207509Y-85894032D01*
X157260080Y-86003480D01*
X157351090Y-86083852D01*
X158130512Y-86533852D01*
X158237251Y-86571323D01*
X158358529Y-86565475D01*
X158467976Y-86512904D01*
X158548348Y-86421894D01*
X159148348Y-85382664D01*
X159185819Y-85275925D01*
X159179971Y-85154648D01*
X159127400Y-85045200D01*
X159036390Y-84964828D01*
X158734622Y-84790602D01*
X159164723Y-84360501D01*
X159183290Y-84371221D01*
X159290028Y-84408692D01*
X159411306Y-84402844D01*
X159520753Y-84350273D01*
X159601125Y-84259263D01*
X159801125Y-83912853D01*
X159838596Y-83806114D01*
X159832748Y-83684836D01*
X159804563Y-83626158D01*
X159861306Y-83623422D01*
X159970753Y-83570851D01*
X160051125Y-83479841D01*
X160251125Y-83133431D01*
X160288596Y-83026692D01*
X160283099Y-82912704D01*
X160816983Y-82378820D01*
X160903692Y-82249051D01*
X160934140Y-82095977D01*
X160934140Y-80933737D01*
X161178360Y-80933737D01*
X161178360Y-83387304D01*
X161126354Y-83389812D01*
X161016907Y-83442383D01*
X160936535Y-83533393D01*
X160736535Y-83879803D01*
X160699064Y-83986542D01*
X160704912Y-84107820D01*
X160733097Y-84166498D01*
X160676354Y-84169234D01*
X160566907Y-84221805D01*
X160486535Y-84312815D01*
X160286535Y-84659225D01*
X160249064Y-84765964D01*
X160254561Y-84879953D01*
X159638097Y-85496416D01*
X159551388Y-85626185D01*
X159540037Y-85683250D01*
X158966332Y-86676936D01*
X158928861Y-86783675D01*
X158934709Y-86904952D01*
X158987280Y-87014400D01*
X159078290Y-87094772D01*
X159857712Y-87544772D01*
X159964451Y-87582243D01*
X160085729Y-87576395D01*
X160195176Y-87523824D01*
X160275548Y-87432814D01*
X160875548Y-86393584D01*
X160913019Y-86286845D01*
X160907171Y-86165568D01*
X160854600Y-86056120D01*
X160763590Y-85975748D01*
X160463433Y-85802452D01*
X160899543Y-85366341D01*
X160918110Y-85377061D01*
X161024848Y-85414532D01*
X161146126Y-85408684D01*
X161255573Y-85356113D01*
X161335945Y-85265103D01*
X161535945Y-84918693D01*
X161573416Y-84811954D01*
X161567568Y-84690676D01*
X161539383Y-84631998D01*
X161596126Y-84629262D01*
X161705573Y-84576691D01*
X161785945Y-84485681D01*
X161985945Y-84139271D01*
X162023416Y-84032532D01*
X162017568Y-83911254D01*
X161973126Y-83818730D01*
X161978360Y-83792417D01*
X161978360Y-80407610D01*
X162694880Y-81124130D01*
X162694880Y-84511130D01*
X162670175Y-84539105D01*
X162470175Y-84885515D01*
X162432704Y-84992254D01*
X162438552Y-85113532D01*
X162466737Y-85172210D01*
X162409994Y-85174946D01*
X162300547Y-85227517D01*
X162220175Y-85318527D01*
X162020175Y-85664937D01*
X161982704Y-85771676D01*
X161988201Y-85885664D01*
X161369197Y-86504668D01*
X161282488Y-86634437D01*
X161271908Y-86687627D01*
X160697432Y-87682648D01*
X160659961Y-87789387D01*
X160665809Y-87910664D01*
X160718380Y-88020112D01*
X160809390Y-88100484D01*
X161588812Y-88550484D01*
X161695551Y-88587955D01*
X161816829Y-88582107D01*
X161926276Y-88529536D01*
X162006648Y-88438526D01*
X162606648Y-87399296D01*
X162644119Y-87292557D01*
X162638271Y-87171280D01*
X162585700Y-87061832D01*
X162494690Y-86981460D01*
X162196143Y-86809094D01*
X162633183Y-86372054D01*
X162651750Y-86382773D01*
X162758488Y-86420244D01*
X162879766Y-86414396D01*
X162989213Y-86361825D01*
X163069585Y-86270815D01*
X163269585Y-85924405D01*
X163307056Y-85817666D01*
X163301208Y-85696388D01*
X163273023Y-85637710D01*
X163329766Y-85634974D01*
X163439213Y-85582403D01*
X163519585Y-85491393D01*
X163719585Y-85144983D01*
X163757056Y-85038244D01*
X163751208Y-84916966D01*
X163698637Y-84807518D01*
X163607626Y-84727147D01*
X163494880Y-84662053D01*
X163494880Y-81429139D01*
X164419540Y-82353799D01*
X164419540Y-85509350D01*
X164394835Y-85537325D01*
X164194835Y-85883735D01*
X164157364Y-85990474D01*
X164163212Y-86111752D01*
X164191397Y-86170430D01*
X164134654Y-86173166D01*
X164025207Y-86225737D01*
X163944835Y-86316747D01*
X163744835Y-86663157D01*
X163707364Y-86769896D01*
X163713212Y-86891174D01*
X163765783Y-87000622D01*
X163856794Y-87080993D01*
X163969540Y-87146087D01*
X163969540Y-87388287D01*
X163686297Y-87671529D01*
X163445008Y-87532220D01*
X163338269Y-87494749D01*
X163216991Y-87500597D01*
X163107544Y-87553168D01*
X163027172Y-87644178D01*
X162427172Y-88683408D01*
X162389701Y-88790147D01*
X162395549Y-88911424D01*
X162448120Y-89020872D01*
X162539130Y-89101244D01*
X163318552Y-89551244D01*
X163425291Y-89588715D01*
X163546569Y-89582867D01*
X163656016Y-89530296D01*
X163736388Y-89439286D01*
X164336388Y-88400056D01*
X164373859Y-88293317D01*
X164368011Y-88172040D01*
X164351510Y-88137687D01*
X164652380Y-87836817D01*
X164652383Y-87836815D01*
X164739092Y-87707045D01*
X164741768Y-87693592D01*
X164769541Y-87553972D01*
X164769540Y-87553967D01*
X164769540Y-87297010D01*
X164794245Y-87269035D01*
X164994245Y-86922625D01*
X165031716Y-86815886D01*
X165025868Y-86694608D01*
X164997683Y-86635930D01*
X165054426Y-86633194D01*
X165163873Y-86580623D01*
X165244245Y-86489613D01*
X165444245Y-86143203D01*
X165481716Y-86036464D01*
X165475868Y-85915186D01*
X165423297Y-85805738D01*
X165332286Y-85725367D01*
X165219540Y-85660273D01*
X165219540Y-82658810D01*
X166163340Y-83602610D01*
X166163340Y-86522682D01*
X166138635Y-86550657D01*
X165938635Y-86897067D01*
X165901164Y-87003806D01*
X165907012Y-87125084D01*
X165935197Y-87183762D01*
X165878454Y-87186498D01*
X165769007Y-87239069D01*
X165688635Y-87330079D01*
X165488635Y-87676489D01*
X165451164Y-87783228D01*
X165457012Y-87904506D01*
X165509583Y-88013954D01*
X165600594Y-88094325D01*
X165713340Y-88159419D01*
X165713340Y-88402926D01*
X165426197Y-88690069D01*
X165184908Y-88550760D01*
X165078169Y-88513289D01*
X164956891Y-88519137D01*
X164847444Y-88571708D01*
X164767072Y-88662718D01*
X164167072Y-89701948D01*
X164129601Y-89808687D01*
X164135449Y-89929964D01*
X164188020Y-90039412D01*
X164279030Y-90119784D01*
X165058452Y-90569784D01*
X165165191Y-90607255D01*
X165286469Y-90601407D01*
X165395916Y-90548836D01*
X165476288Y-90457826D01*
X166076288Y-89418596D01*
X166113759Y-89311857D01*
X166107911Y-89190580D01*
X166091411Y-89156227D01*
X166396183Y-88851455D01*
X166482892Y-88721686D01*
X166513340Y-88568612D01*
X166513340Y-88310342D01*
X166538045Y-88282367D01*
X166738045Y-87935957D01*
X166775516Y-87829218D01*
X166769668Y-87707940D01*
X166741483Y-87649262D01*
X166798226Y-87646526D01*
X166907673Y-87593955D01*
X166988045Y-87502945D01*
X167188045Y-87156535D01*
X167225516Y-87049796D01*
X167219668Y-86928518D01*
X167167097Y-86819070D01*
X167076086Y-86738699D01*
X166963340Y-86673605D01*
X166963340Y-83436924D01*
X166952622Y-83383040D01*
X166942441Y-83331857D01*
X167888000Y-84277416D01*
X167888000Y-87531062D01*
X167863295Y-87559037D01*
X167663295Y-87905447D01*
X167625824Y-88012186D01*
X167631672Y-88133464D01*
X167659857Y-88192142D01*
X167603114Y-88194878D01*
X167493667Y-88247449D01*
X167413295Y-88338459D01*
X167213295Y-88684869D01*
X167175824Y-88791608D01*
X167181321Y-88905596D01*
X166566037Y-89520880D01*
X166479328Y-89650649D01*
X166478864Y-89652984D01*
X166465960Y-89717856D01*
X165894272Y-90708048D01*
X165856801Y-90814787D01*
X165862649Y-90936064D01*
X165915220Y-91045512D01*
X166006230Y-91125884D01*
X166785652Y-91575884D01*
X166892391Y-91613355D01*
X167013669Y-91607507D01*
X167123116Y-91554936D01*
X167203488Y-91463926D01*
X167803488Y-90424696D01*
X167840959Y-90317957D01*
X167835111Y-90196680D01*
X167782540Y-90087232D01*
X167691530Y-90006860D01*
X167387158Y-89831131D01*
X167826303Y-89391986D01*
X167844870Y-89402705D01*
X167951608Y-89440176D01*
X168072886Y-89434328D01*
X168182333Y-89381757D01*
X168262705Y-89290747D01*
X168462705Y-88944337D01*
X168500176Y-88837598D01*
X168494328Y-88716320D01*
X168466143Y-88657642D01*
X168522886Y-88654906D01*
X168632333Y-88602335D01*
X168712705Y-88511325D01*
X168912705Y-88164915D01*
X168950176Y-88058176D01*
X168944328Y-87936898D01*
X168891757Y-87827450D01*
X168800746Y-87747079D01*
X168688000Y-87681985D01*
X168688000Y-84582426D01*
X169620280Y-85514706D01*
X169620280Y-88526742D01*
X169595575Y-88554717D01*
X169395575Y-88901127D01*
X169358104Y-89007866D01*
X169363952Y-89129144D01*
X169392137Y-89187822D01*
X169335394Y-89190558D01*
X169225947Y-89243129D01*
X169145575Y-89334139D01*
X168945575Y-89680549D01*
X168908104Y-89787288D01*
X168913601Y-89901277D01*
X168296597Y-90518280D01*
X168209888Y-90648049D01*
X168195731Y-90719223D01*
X167624832Y-91708048D01*
X167587361Y-91814787D01*
X167593209Y-91936064D01*
X167645780Y-92045512D01*
X167736790Y-92125884D01*
X168516212Y-92575884D01*
X168622951Y-92613355D01*
X168744229Y-92607507D01*
X168853676Y-92554936D01*
X168934048Y-92463926D01*
X169534048Y-91424696D01*
X169571519Y-91317957D01*
X169565671Y-91196680D01*
X169513100Y-91087232D01*
X169422090Y-91006860D01*
X169116070Y-90830179D01*
X169558583Y-90387665D01*
X169577150Y-90398385D01*
X169683888Y-90435856D01*
X169805166Y-90430008D01*
X169914613Y-90377437D01*
X169994985Y-90286427D01*
X170194985Y-89940017D01*
X170232456Y-89833278D01*
X170226608Y-89712000D01*
X170198423Y-89653322D01*
X170255166Y-89650586D01*
X170364613Y-89598015D01*
X170444985Y-89507005D01*
X170644985Y-89160595D01*
X170682456Y-89053856D01*
X170676608Y-88932578D01*
X170624037Y-88823130D01*
X170533026Y-88742759D01*
X170420280Y-88677665D01*
X170420280Y-85349020D01*
X170400152Y-85247829D01*
X170389832Y-85195946D01*
X170303123Y-85066177D01*
X165474011Y-80237065D01*
X166069215Y-79991132D01*
X166547850Y-79513332D01*
X166807204Y-78888736D01*
X166807794Y-78212435D01*
X166549530Y-77587387D01*
X166071730Y-77108752D01*
X165447134Y-76849398D01*
X164770833Y-76848808D01*
X164145785Y-77107072D01*
X163667150Y-77584872D01*
X163510088Y-77963122D01*
X161849268Y-76302302D01*
X161892140Y-76198798D01*
X161892140Y-76117360D01*
X161740140Y-75965360D01*
X160688140Y-75965360D01*
X160688140Y-75971983D01*
X160380140Y-75971983D01*
X160380140Y-75965360D01*
X159328140Y-75965360D01*
X159176140Y-76117360D01*
X159176140Y-76198798D01*
X159268702Y-76422264D01*
X159439735Y-76593297D01*
X159478263Y-76609256D01*
X159478263Y-76727860D01*
X159497770Y-76831531D01*
X159478263Y-76927860D01*
X159478263Y-77377860D01*
X159497770Y-77481531D01*
X159478263Y-77577860D01*
X159478263Y-78027860D01*
X159497770Y-78131531D01*
X159478263Y-78227860D01*
X159478263Y-78677860D01*
X159497770Y-78781531D01*
X159478263Y-78877860D01*
X159478263Y-79327860D01*
X159497770Y-79431531D01*
X159478263Y-79527860D01*
X159478263Y-79977860D01*
X159497770Y-80081531D01*
X159478263Y-80177860D01*
X159478263Y-80627860D01*
X159499182Y-80739033D01*
X159564885Y-80841139D01*
X159665137Y-80909638D01*
X159784140Y-80933737D01*
X160134140Y-80933737D01*
X160134140Y-81930291D01*
X159638117Y-82426314D01*
X159619550Y-82415595D01*
X159512812Y-82378124D01*
X159391534Y-82383972D01*
X159282087Y-82436543D01*
X159201715Y-82527553D01*
X159001715Y-82873963D01*
X158964244Y-82980702D01*
X158970092Y-83101980D01*
X158998277Y-83160658D01*
X158941534Y-83163394D01*
X158832087Y-83215965D01*
X158751715Y-83306975D01*
X158551715Y-83653385D01*
X158514244Y-83760124D01*
X158519741Y-83874113D01*
X157910897Y-84482956D01*
X157824188Y-84612725D01*
X157819581Y-84635885D01*
X157812067Y-84673665D01*
X157239132Y-85666016D01*
X157201661Y-85772755D01*
X156532657Y-85772755D01*
X156456187Y-85673098D01*
X156246715Y-85552160D01*
X156226744Y-85540629D01*
X156019108Y-85596265D01*
X155568108Y-86377420D01*
X154952108Y-86377420D01*
X154496121Y-86114156D01*
X154288485Y-86169792D01*
X154081016Y-86529139D01*
X154049445Y-86768948D01*
X142410399Y-86768948D01*
X142272321Y-86676688D01*
X141660028Y-86554895D01*
X141047735Y-86676688D01*
X140528657Y-87023524D01*
X140181821Y-87542602D01*
X140060028Y-88154895D01*
X131909412Y-88154895D01*
X131787619Y-87542602D01*
X131440783Y-87023524D01*
X130921705Y-86676688D01*
X130309412Y-86554895D01*
X129697119Y-86676688D01*
X129178041Y-87023524D01*
X128831205Y-87542602D01*
X128709412Y-88154895D01*
X120712222Y-88154895D01*
X120733303Y-88076220D01*
X120525833Y-87716873D01*
X120333939Y-87569627D01*
X120100303Y-87507024D01*
X120010457Y-87518853D01*
X120013289Y-87481562D01*
X119974657Y-87366452D01*
X119842256Y-87137127D01*
X120289621Y-86689762D01*
X122713462Y-86689762D01*
X122904804Y-86651702D01*
X123067015Y-86543315D01*
X123248550Y-86361781D01*
X143287993Y-86361781D01*
X143479335Y-86323721D01*
X143641546Y-86215334D01*
X144217096Y-85639784D01*
X154594485Y-85639784D01*
X154650121Y-85847420D01*
X155301372Y-86223420D01*
X155752372Y-85442265D01*
X155696736Y-85234629D01*
X155676765Y-85223099D01*
X155467293Y-85102160D01*
X155227485Y-85070588D01*
X154993850Y-85133191D01*
X154801955Y-85280437D01*
X154594485Y-85639784D01*
X144217096Y-85639784D01*
X146473840Y-83383040D01*
X153756880Y-83383040D01*
X153756880Y-83501979D01*
X153849443Y-83725445D01*
X154020476Y-83896478D01*
X154243942Y-83989040D01*
X154337880Y-83989040D01*
X154489880Y-83837040D01*
X154489880Y-83231040D01*
X154739880Y-83231040D01*
X154739880Y-83837040D01*
X154891880Y-83989040D01*
X154985818Y-83989040D01*
X155209284Y-83896478D01*
X155380317Y-83725445D01*
X155472880Y-83501979D01*
X155472880Y-83383040D01*
X155320880Y-83231040D01*
X154739880Y-83231040D01*
X154489880Y-83231040D01*
X153908880Y-83231040D01*
X153756880Y-83383040D01*
X146473840Y-83383040D01*
X147612471Y-82244409D01*
X147637797Y-82259031D01*
X147744536Y-82296502D01*
X147865814Y-82290654D01*
X147975261Y-82238083D01*
X148055633Y-82147073D01*
X148185161Y-81922724D01*
X151767707Y-81922724D01*
X151959049Y-81884664D01*
X152121260Y-81776277D01*
X152994678Y-80902860D01*
X153755217Y-80902860D01*
X153765137Y-80909638D01*
X153884140Y-80933737D01*
X154134140Y-80933737D01*
X154134140Y-81487340D01*
X154083102Y-81562037D01*
X154059003Y-81681040D01*
X154059003Y-82249644D01*
X154020476Y-82265602D01*
X153849443Y-82436635D01*
X153756880Y-82660101D01*
X153756880Y-82779040D01*
X153908880Y-82931040D01*
X154489880Y-82931040D01*
X154489880Y-82907040D01*
X154739880Y-82907040D01*
X154739880Y-82931040D01*
X155320880Y-82931040D01*
X155472880Y-82779040D01*
X155472880Y-82660101D01*
X155380317Y-82436635D01*
X155209284Y-82265602D01*
X155170757Y-82249644D01*
X155170757Y-81681040D01*
X155149838Y-81569867D01*
X155134140Y-81545471D01*
X155134140Y-80933737D01*
X155384140Y-80933737D01*
X155495313Y-80912818D01*
X155597419Y-80847115D01*
X155665918Y-80746863D01*
X155690017Y-80627860D01*
X155690017Y-80382280D01*
X157240901Y-81933164D01*
X157221804Y-81987562D01*
X157227652Y-82108840D01*
X157255837Y-82167518D01*
X157199094Y-82170254D01*
X157089647Y-82222825D01*
X157009275Y-82313835D01*
X156809275Y-82660245D01*
X156771804Y-82766984D01*
X156777652Y-82888262D01*
X156830223Y-82997710D01*
X156921234Y-83078081D01*
X157033980Y-83143175D01*
X157033980Y-83386606D01*
X156762257Y-83658329D01*
X156520968Y-83519020D01*
X156414229Y-83481549D01*
X156292951Y-83487397D01*
X156183504Y-83539968D01*
X156103132Y-83630978D01*
X155503132Y-84670208D01*
X155465661Y-84776947D01*
X155471509Y-84898224D01*
X155524080Y-85007672D01*
X155615090Y-85088044D01*
X156394512Y-85538044D01*
X156501251Y-85575515D01*
X156622529Y-85569667D01*
X156731976Y-85517096D01*
X156812348Y-85426086D01*
X157412348Y-84386856D01*
X157449819Y-84280117D01*
X157443971Y-84158840D01*
X157427471Y-84124487D01*
X157716823Y-83835135D01*
X157803532Y-83705366D01*
X157833981Y-83552292D01*
X157833980Y-83552287D01*
X157833980Y-83294098D01*
X157858685Y-83266123D01*
X158058685Y-82919713D01*
X158096156Y-82812974D01*
X158090308Y-82691696D01*
X158062123Y-82633018D01*
X158118866Y-82630282D01*
X158228313Y-82577711D01*
X158308685Y-82486701D01*
X158508685Y-82140291D01*
X158546156Y-82033552D01*
X158540308Y-81912274D01*
X158487737Y-81802826D01*
X158396726Y-81722455D01*
X157877110Y-81422455D01*
X157853154Y-81414045D01*
X155909126Y-79470017D01*
X155779357Y-79383308D01*
X155682682Y-79364078D01*
X155690017Y-79327860D01*
X155690017Y-79209256D01*
X155728545Y-79193297D01*
X155899578Y-79022264D01*
X155992140Y-78798798D01*
X155992140Y-78717360D01*
X155840140Y-78565360D01*
X154788140Y-78565360D01*
X154788140Y-78571983D01*
X154480140Y-78571983D01*
X154480140Y-78565360D01*
X154460140Y-78565360D01*
X154460140Y-78340360D01*
X154480140Y-78340360D01*
X154480140Y-78333737D01*
X154788140Y-78333737D01*
X154788140Y-78340360D01*
X155840140Y-78340360D01*
X155992140Y-78188360D01*
X155992140Y-78106922D01*
X155899578Y-77883456D01*
X155728545Y-77712423D01*
X155690017Y-77696464D01*
X155690017Y-77577860D01*
X155670510Y-77474189D01*
X155690017Y-77377860D01*
X155690017Y-76927860D01*
X155670510Y-76824189D01*
X155690017Y-76727860D01*
X155690017Y-76277860D01*
X155670510Y-76174189D01*
X155690017Y-76077860D01*
X155690017Y-75627860D01*
X155669098Y-75516687D01*
X155662815Y-75506922D01*
X159176140Y-75506922D01*
X159176140Y-75588360D01*
X159328140Y-75740360D01*
X160380140Y-75740360D01*
X160380140Y-75171860D01*
X160688140Y-75171860D01*
X160688140Y-75740360D01*
X161740140Y-75740360D01*
X161892140Y-75588360D01*
X161892140Y-75506922D01*
X161799578Y-75283456D01*
X161628545Y-75112423D01*
X161405079Y-75019860D01*
X160840140Y-75019860D01*
X160688140Y-75171860D01*
X160380140Y-75171860D01*
X160228140Y-75019860D01*
X159663201Y-75019860D01*
X159439735Y-75112423D01*
X159268702Y-75283456D01*
X159176140Y-75506922D01*
X155662815Y-75506922D01*
X155603395Y-75414581D01*
X155503143Y-75346082D01*
X155384140Y-75321983D01*
X154305701Y-75321983D01*
X155266993Y-74360691D01*
X155353702Y-74230922D01*
X155384151Y-74077848D01*
X155384150Y-74077843D01*
X155384150Y-71119055D01*
X155384151Y-71119050D01*
X155353702Y-70965977D01*
X155348880Y-70958760D01*
X155266993Y-70836207D01*
X155266990Y-70836205D01*
X154798937Y-70368152D01*
X165395131Y-76485864D01*
G36*
X104972796Y-78194468D02*
X104972206Y-78870769D01*
X105230470Y-79495817D01*
X105708270Y-79974452D01*
X106332866Y-80233806D01*
X107009167Y-80234396D01*
X107023428Y-80228504D01*
X106649602Y-80602330D01*
X106622326Y-80600258D01*
X106507216Y-80638890D01*
X105467986Y-81238890D01*
X105382167Y-81312593D01*
X105326592Y-81420546D01*
X105317396Y-81541616D01*
X105356028Y-81656726D01*
X105806028Y-82436148D01*
X105865540Y-82505443D01*
X105865540Y-88665720D01*
X105439702Y-89091558D01*
X105439798Y-88981525D01*
X105284079Y-88604659D01*
X104995994Y-88316070D01*
X104619400Y-88159694D01*
X104211629Y-88159338D01*
X103834763Y-88315057D01*
X103546174Y-88603142D01*
X103512384Y-88684516D01*
X102280829Y-88684516D01*
X102133607Y-88611914D01*
X101783196Y-88588946D01*
X101450669Y-88701823D01*
X100802035Y-89076312D01*
X100611903Y-89243052D01*
X100466804Y-88813139D01*
X100790831Y-83998221D01*
X102932855Y-79673670D01*
X105172837Y-77712713D01*
X104972796Y-78194468D01*
X104972796Y-78194468D01*
G37*
X104972796Y-78194468D02*
X104972206Y-78870769D01*
X105230470Y-79495817D01*
X105708270Y-79974452D01*
X106332866Y-80233806D01*
X107009167Y-80234396D01*
X107023428Y-80228504D01*
X106649602Y-80602330D01*
X106622326Y-80600258D01*
X106507216Y-80638890D01*
X105467986Y-81238890D01*
X105382167Y-81312593D01*
X105326592Y-81420546D01*
X105317396Y-81541616D01*
X105356028Y-81656726D01*
X105806028Y-82436148D01*
X105865540Y-82505443D01*
X105865540Y-88665720D01*
X105439702Y-89091558D01*
X105439798Y-88981525D01*
X105284079Y-88604659D01*
X104995994Y-88316070D01*
X104619400Y-88159694D01*
X104211629Y-88159338D01*
X103834763Y-88315057D01*
X103546174Y-88603142D01*
X103512384Y-88684516D01*
X102280829Y-88684516D01*
X102133607Y-88611914D01*
X101783196Y-88588946D01*
X101450669Y-88701823D01*
X100802035Y-89076312D01*
X100611903Y-89243052D01*
X100466804Y-88813139D01*
X100790831Y-83998221D01*
X102932855Y-79673670D01*
X105172837Y-77712713D01*
X104972796Y-78194468D01*
G36*
X146585230Y-53170914D02*
X146585230Y-60482733D01*
X146195241Y-60222151D01*
X145582948Y-60100358D01*
X144970655Y-60222151D01*
X144451577Y-60568987D01*
X144104741Y-61088065D01*
X143982948Y-61700358D01*
X144104741Y-62312651D01*
X144451577Y-62831729D01*
X144970655Y-63178565D01*
X145582948Y-63300358D01*
X146195241Y-63178565D01*
X146585230Y-62917983D01*
X146585230Y-67295230D01*
X146615678Y-67448304D01*
X146702387Y-67578073D01*
X147793760Y-68669446D01*
X147793760Y-78446570D01*
X147824208Y-78599644D01*
X147910917Y-78729413D01*
X148151025Y-78969521D01*
X148151025Y-78991091D01*
X148096417Y-79052927D01*
X147696417Y-79745747D01*
X147658946Y-79852486D01*
X147664794Y-79973763D01*
X147717365Y-80083211D01*
X147808375Y-80163583D01*
X148587797Y-80613583D01*
X148694536Y-80651054D01*
X148815814Y-80645206D01*
X148925261Y-80592635D01*
X149005633Y-80501625D01*
X149405633Y-79808805D01*
X149443104Y-79702066D01*
X149437256Y-79580789D01*
X149384685Y-79471341D01*
X149293675Y-79390969D01*
X148969550Y-79203835D01*
X149170876Y-79203835D01*
X149323950Y-79173387D01*
X149453719Y-79086678D01*
X149553303Y-78987093D01*
X149571870Y-78997813D01*
X149678608Y-79035284D01*
X149799886Y-79029436D01*
X149909333Y-78976865D01*
X149989705Y-78885855D01*
X150189705Y-78539445D01*
X150196810Y-78519205D01*
X152080464Y-80402860D01*
X151560601Y-80922724D01*
X148146753Y-80922724D01*
X147564253Y-80586417D01*
X147457514Y-80548946D01*
X147336236Y-80554794D01*
X147226789Y-80607365D01*
X147146417Y-80698375D01*
X146746417Y-81391195D01*
X146708946Y-81497934D01*
X146714794Y-81619211D01*
X146750052Y-81692616D01*
X143080887Y-85361781D01*
X130548887Y-85361781D01*
X125944759Y-80757653D01*
X125965021Y-80745954D01*
X126020657Y-80538318D01*
X125669657Y-79930368D01*
X125652337Y-79940368D01*
X125498337Y-79673632D01*
X125515657Y-79663632D01*
X125164657Y-79055682D01*
X124957021Y-79000046D01*
X124727577Y-79132516D01*
X124580332Y-79324411D01*
X124551521Y-79431935D01*
X124377276Y-79397276D01*
X124103111Y-79397276D01*
X123973583Y-79172927D01*
X123899880Y-79087108D01*
X123791927Y-79031533D01*
X123670857Y-79022337D01*
X123555747Y-79060969D01*
X122776325Y-79510969D01*
X122690506Y-79584672D01*
X122634931Y-79692625D01*
X122625735Y-79813695D01*
X122664367Y-79928805D01*
X123064367Y-80621625D01*
X123138070Y-80707444D01*
X123246023Y-80763019D01*
X123367093Y-80772215D01*
X123482203Y-80733583D01*
X124064703Y-80397276D01*
X124170170Y-80397276D01*
X124488987Y-80716093D01*
X123726325Y-81156417D01*
X123640506Y-81230120D01*
X123584931Y-81338073D01*
X123575735Y-81459143D01*
X123614367Y-81574253D01*
X123708579Y-81737434D01*
X123626013Y-81820000D01*
X121690000Y-81820000D01*
X121690000Y-79655686D01*
X123062843Y-78282843D01*
X123149552Y-78153074D01*
X123180000Y-78000000D01*
X123180000Y-70145686D01*
X130545686Y-62780000D01*
X134050083Y-62780000D01*
X131622129Y-63262950D01*
X127923703Y-65734160D01*
X125452493Y-69432586D01*
X124584720Y-73795177D01*
X125452493Y-78157768D01*
X125721838Y-78560871D01*
X125716473Y-78561577D01*
X125487029Y-78694046D01*
X125431393Y-78901682D01*
X125782393Y-79509632D01*
X125799713Y-79499632D01*
X125953713Y-79766368D01*
X125936393Y-79776368D01*
X126287393Y-80384318D01*
X126495029Y-80439954D01*
X126724473Y-80307484D01*
X126812358Y-80192949D01*
X127923703Y-81856194D01*
X131622129Y-84327404D01*
X135984720Y-85195177D01*
X140347311Y-84327404D01*
X144045737Y-81856194D01*
X145006495Y-80418318D01*
X146049343Y-80418318D01*
X146104979Y-80625954D01*
X146334423Y-80758423D01*
X146574231Y-80789994D01*
X146807867Y-80727392D01*
X146999761Y-80580146D01*
X147107230Y-80394003D01*
X147107230Y-80394004D01*
X147112822Y-80384318D01*
X147107230Y-80394003D01*
X147051594Y-80186368D01*
X146400343Y-79810368D01*
X146049343Y-80418318D01*
X145006495Y-80418318D01*
X145246749Y-80058753D01*
X145345527Y-80187484D01*
X145574971Y-80319954D01*
X145782607Y-80264318D01*
X146133607Y-79656368D01*
X146116287Y-79646368D01*
X146175601Y-79543632D01*
X146554343Y-79543632D01*
X147205594Y-79919632D01*
X147413230Y-79863996D01*
X147520699Y-79677854D01*
X147552271Y-79438046D01*
X147489668Y-79204411D01*
X147342423Y-79012516D01*
X147112979Y-78880046D01*
X146905343Y-78935682D01*
X146554343Y-79543632D01*
X146175601Y-79543632D01*
X146270287Y-79379632D01*
X146287607Y-79389632D01*
X146638607Y-78781682D01*
X146582971Y-78574046D01*
X146353527Y-78441577D01*
X146329431Y-78438405D01*
X146516947Y-78157768D01*
X147384720Y-73795177D01*
X146516947Y-69432586D01*
X144045737Y-65734160D01*
X140347311Y-63262950D01*
X137919357Y-62780000D01*
X141750000Y-62780000D01*
X141903074Y-62749552D01*
X142032843Y-62662843D01*
X143722843Y-60972843D01*
X143809552Y-60843074D01*
X143840000Y-60690000D01*
X143840000Y-56779688D01*
X145606845Y-55012843D01*
X145693554Y-54883074D01*
X145724002Y-54730000D01*
X145724002Y-52484002D01*
X145693554Y-52330929D01*
X145606845Y-52201159D01*
X144730686Y-51325000D01*
X144739314Y-51325000D01*
X146585230Y-53170914D01*
X146585230Y-53170914D01*
G37*
X146585230Y-53170914D02*
X146585230Y-60482733D01*
X146195241Y-60222151D01*
X145582948Y-60100358D01*
X144970655Y-60222151D01*
X144451577Y-60568987D01*
X144104741Y-61088065D01*
X143982948Y-61700358D01*
X144104741Y-62312651D01*
X144451577Y-62831729D01*
X144970655Y-63178565D01*
X145582948Y-63300358D01*
X146195241Y-63178565D01*
X146585230Y-62917983D01*
X146585230Y-67295230D01*
X146615678Y-67448304D01*
X146702387Y-67578073D01*
X147793760Y-68669446D01*
X147793760Y-78446570D01*
X147824208Y-78599644D01*
X147910917Y-78729413D01*
X148151025Y-78969521D01*
X148151025Y-78991091D01*
X148096417Y-79052927D01*
X147696417Y-79745747D01*
X147658946Y-79852486D01*
X147664794Y-79973763D01*
X147717365Y-80083211D01*
X147808375Y-80163583D01*
X148587797Y-80613583D01*
X148694536Y-80651054D01*
X148815814Y-80645206D01*
X148925261Y-80592635D01*
X149005633Y-80501625D01*
X149405633Y-79808805D01*
X149443104Y-79702066D01*
X149437256Y-79580789D01*
X149384685Y-79471341D01*
X149293675Y-79390969D01*
X148969550Y-79203835D01*
X149170876Y-79203835D01*
X149323950Y-79173387D01*
X149453719Y-79086678D01*
X149553303Y-78987093D01*
X149571870Y-78997813D01*
X149678608Y-79035284D01*
X149799886Y-79029436D01*
X149909333Y-78976865D01*
X149989705Y-78885855D01*
X150189705Y-78539445D01*
X150196810Y-78519205D01*
X152080464Y-80402860D01*
X151560601Y-80922724D01*
X148146753Y-80922724D01*
X147564253Y-80586417D01*
X147457514Y-80548946D01*
X147336236Y-80554794D01*
X147226789Y-80607365D01*
X147146417Y-80698375D01*
X146746417Y-81391195D01*
X146708946Y-81497934D01*
X146714794Y-81619211D01*
X146750052Y-81692616D01*
X143080887Y-85361781D01*
X130548887Y-85361781D01*
X125944759Y-80757653D01*
X125965021Y-80745954D01*
X126020657Y-80538318D01*
X125669657Y-79930368D01*
X125652337Y-79940368D01*
X125498337Y-79673632D01*
X125515657Y-79663632D01*
X125164657Y-79055682D01*
X124957021Y-79000046D01*
X124727577Y-79132516D01*
X124580332Y-79324411D01*
X124551521Y-79431935D01*
X124377276Y-79397276D01*
X124103111Y-79397276D01*
X123973583Y-79172927D01*
X123899880Y-79087108D01*
X123791927Y-79031533D01*
X123670857Y-79022337D01*
X123555747Y-79060969D01*
X122776325Y-79510969D01*
X122690506Y-79584672D01*
X122634931Y-79692625D01*
X122625735Y-79813695D01*
X122664367Y-79928805D01*
X123064367Y-80621625D01*
X123138070Y-80707444D01*
X123246023Y-80763019D01*
X123367093Y-80772215D01*
X123482203Y-80733583D01*
X124064703Y-80397276D01*
X124170170Y-80397276D01*
X124488987Y-80716093D01*
X123726325Y-81156417D01*
X123640506Y-81230120D01*
X123584931Y-81338073D01*
X123575735Y-81459143D01*
X123614367Y-81574253D01*
X123708579Y-81737434D01*
X123626013Y-81820000D01*
X121690000Y-81820000D01*
X121690000Y-79655686D01*
X123062843Y-78282843D01*
X123149552Y-78153074D01*
X123180000Y-78000000D01*
X123180000Y-70145686D01*
X130545686Y-62780000D01*
X134050083Y-62780000D01*
X131622129Y-63262950D01*
X127923703Y-65734160D01*
X125452493Y-69432586D01*
X124584720Y-73795177D01*
X125452493Y-78157768D01*
X125721838Y-78560871D01*
X125716473Y-78561577D01*
X125487029Y-78694046D01*
X125431393Y-78901682D01*
X125782393Y-79509632D01*
X125799713Y-79499632D01*
X125953713Y-79766368D01*
X125936393Y-79776368D01*
X126287393Y-80384318D01*
X126495029Y-80439954D01*
X126724473Y-80307484D01*
X126812358Y-80192949D01*
X127923703Y-81856194D01*
X131622129Y-84327404D01*
X135984720Y-85195177D01*
X140347311Y-84327404D01*
X144045737Y-81856194D01*
X145006495Y-80418318D01*
X146049343Y-80418318D01*
X146104979Y-80625954D01*
X146334423Y-80758423D01*
X146574231Y-80789994D01*
X146807867Y-80727392D01*
X146999761Y-80580146D01*
X147107230Y-80394003D01*
X147107230Y-80394004D01*
X147112822Y-80384318D01*
X147107230Y-80394003D01*
X147051594Y-80186368D01*
X146400343Y-79810368D01*
X146049343Y-80418318D01*
X145006495Y-80418318D01*
X145246749Y-80058753D01*
X145345527Y-80187484D01*
X145574971Y-80319954D01*
X145782607Y-80264318D01*
X146133607Y-79656368D01*
X146116287Y-79646368D01*
X146175601Y-79543632D01*
X146554343Y-79543632D01*
X147205594Y-79919632D01*
X147413230Y-79863996D01*
X147520699Y-79677854D01*
X147552271Y-79438046D01*
X147489668Y-79204411D01*
X147342423Y-79012516D01*
X147112979Y-78880046D01*
X146905343Y-78935682D01*
X146554343Y-79543632D01*
X146175601Y-79543632D01*
X146270287Y-79379632D01*
X146287607Y-79389632D01*
X146638607Y-78781682D01*
X146582971Y-78574046D01*
X146353527Y-78441577D01*
X146329431Y-78438405D01*
X146516947Y-78157768D01*
X147384720Y-73795177D01*
X146516947Y-69432586D01*
X144045737Y-65734160D01*
X140347311Y-63262950D01*
X137919357Y-62780000D01*
X141750000Y-62780000D01*
X141903074Y-62749552D01*
X142032843Y-62662843D01*
X143722843Y-60972843D01*
X143809552Y-60843074D01*
X143840000Y-60690000D01*
X143840000Y-56779688D01*
X145606845Y-55012843D01*
X145693554Y-54883074D01*
X145724002Y-54730000D01*
X145724002Y-52484002D01*
X145693554Y-52330929D01*
X145606845Y-52201159D01*
X144730686Y-51325000D01*
X144739314Y-51325000D01*
X146585230Y-53170914D01*
G36*
X123741386Y-46366547D02*
X123999650Y-46991595D01*
X124477450Y-47470230D01*
X125102046Y-47729584D01*
X125778347Y-47730174D01*
X126403395Y-47471910D01*
X126867000Y-47009114D01*
X126867000Y-47230939D01*
X126959563Y-47454405D01*
X127130596Y-47625438D01*
X127214321Y-47660118D01*
X127193222Y-47690997D01*
X127169123Y-47810000D01*
X127169123Y-49010000D01*
X127183040Y-49083960D01*
X127143178Y-49083960D01*
X127143178Y-49235958D01*
X126991180Y-49083960D01*
X126801242Y-49083960D01*
X126577776Y-49176522D01*
X126406743Y-49347555D01*
X126314180Y-49571021D01*
X126314180Y-49985960D01*
X126466180Y-50137960D01*
X127143180Y-50137960D01*
X127143180Y-50117960D01*
X127451180Y-50117960D01*
X127451180Y-50137960D01*
X128128180Y-50137960D01*
X128280180Y-49985960D01*
X128280180Y-49571021D01*
X128187617Y-49347555D01*
X128155939Y-49315877D01*
X128225000Y-49315877D01*
X128283722Y-49304828D01*
X128360000Y-49320000D01*
X128644123Y-49320000D01*
X128644123Y-49520000D01*
X128665042Y-49631173D01*
X128730745Y-49733279D01*
X128830997Y-49801778D01*
X128950000Y-49825877D01*
X129590191Y-49825877D01*
X131489314Y-51725000D01*
X130420685Y-51725000D01*
X130155877Y-51460192D01*
X130155877Y-50520000D01*
X130134958Y-50408827D01*
X130069255Y-50306721D01*
X129969003Y-50238222D01*
X129850000Y-50214123D01*
X128950000Y-50214123D01*
X128838827Y-50235042D01*
X128736721Y-50300745D01*
X128668222Y-50400997D01*
X128644123Y-50520000D01*
X128644123Y-51720000D01*
X128665042Y-51831173D01*
X128730745Y-51933279D01*
X128830997Y-52001778D01*
X128950000Y-52025877D01*
X129590192Y-52025877D01*
X129689315Y-52125000D01*
X128370905Y-52125000D01*
X128155023Y-51909117D01*
X128025254Y-51822408D01*
X127978057Y-51813020D01*
X127978057Y-51591960D01*
X127957138Y-51480787D01*
X127932362Y-51442284D01*
X128016584Y-51407398D01*
X128187617Y-51236365D01*
X128280180Y-51012899D01*
X128280180Y-50597960D01*
X128128180Y-50445960D01*
X127451180Y-50445960D01*
X127451180Y-50465960D01*
X127143180Y-50465960D01*
X127143180Y-50445960D01*
X126466180Y-50445960D01*
X126314180Y-50597960D01*
X126314180Y-51012899D01*
X126406743Y-51236365D01*
X126577776Y-51407398D01*
X126661501Y-51442078D01*
X126640402Y-51472957D01*
X126616303Y-51591960D01*
X126616303Y-52791960D01*
X126637222Y-52903133D01*
X126702925Y-53005239D01*
X126803177Y-53073738D01*
X126922180Y-53097837D01*
X127672180Y-53097837D01*
X127783353Y-53076918D01*
X127885459Y-53011215D01*
X127953958Y-52910963D01*
X127968588Y-52838720D01*
X127977987Y-52845000D01*
X128052146Y-52894552D01*
X128205220Y-52925001D01*
X128205225Y-52925000D01*
X129181820Y-52925000D01*
X129181820Y-52999500D01*
X129333820Y-53151500D01*
X129939820Y-53151500D01*
X129939820Y-53102500D01*
X130239820Y-53102500D01*
X130239820Y-53151500D01*
X130263820Y-53151500D01*
X130263820Y-53401500D01*
X130239820Y-53401500D01*
X130239820Y-53450500D01*
X129939820Y-53450500D01*
X129939820Y-53401500D01*
X129333820Y-53401500D01*
X129181820Y-53553500D01*
X129181820Y-53647438D01*
X129274382Y-53870904D01*
X129445415Y-54041937D01*
X129668881Y-54134500D01*
X129787820Y-54134500D01*
X129935818Y-53986502D01*
X129935818Y-54134500D01*
X130072295Y-54134500D01*
X129757004Y-54449790D01*
X129706755Y-54371701D01*
X129606503Y-54303202D01*
X129487500Y-54279103D01*
X127687500Y-54279103D01*
X127576327Y-54300022D01*
X127474221Y-54365725D01*
X127405722Y-54465977D01*
X127381623Y-54584980D01*
X127381623Y-54684980D01*
X126800791Y-54684980D01*
X126753535Y-54611541D01*
X126653283Y-54543042D01*
X126534280Y-54518943D01*
X125965676Y-54518943D01*
X125949718Y-54480416D01*
X125778685Y-54309383D01*
X125555219Y-54216820D01*
X125436280Y-54216820D01*
X125284280Y-54368820D01*
X125284280Y-54949820D01*
X125308280Y-54949820D01*
X125308280Y-55199820D01*
X125284280Y-55199820D01*
X125284280Y-55780820D01*
X125436280Y-55932820D01*
X125555219Y-55932820D01*
X125778685Y-55840257D01*
X125949718Y-55669224D01*
X125965676Y-55630697D01*
X126534280Y-55630697D01*
X126645453Y-55609778D01*
X126747559Y-55544075D01*
X126787937Y-55484980D01*
X127381623Y-55484980D01*
X127381623Y-55584980D01*
X127402542Y-55696153D01*
X127468245Y-55798259D01*
X127568497Y-55866758D01*
X127687500Y-55890857D01*
X129487500Y-55890857D01*
X129598673Y-55869938D01*
X129632760Y-55848004D01*
X129632760Y-56821143D01*
X129606503Y-56803202D01*
X129487500Y-56779103D01*
X127687500Y-56779103D01*
X127576327Y-56800022D01*
X127474221Y-56865725D01*
X127405722Y-56965977D01*
X127381623Y-57084980D01*
X127381623Y-57184980D01*
X126817901Y-57184980D01*
X126763695Y-57100741D01*
X126663443Y-57032242D01*
X126544440Y-57008143D01*
X125975836Y-57008143D01*
X125959878Y-56969616D01*
X125788845Y-56798583D01*
X125565379Y-56706020D01*
X125446440Y-56706020D01*
X125294440Y-56858020D01*
X125294440Y-57439020D01*
X125318440Y-57439020D01*
X125318440Y-57689020D01*
X125294440Y-57689020D01*
X125294440Y-58270020D01*
X125446440Y-58422020D01*
X125565379Y-58422020D01*
X125788845Y-58329457D01*
X125959878Y-58158424D01*
X125975836Y-58119897D01*
X126544440Y-58119897D01*
X126655613Y-58098978D01*
X126757719Y-58033275D01*
X126790717Y-57984980D01*
X127381623Y-57984980D01*
X127381623Y-58084980D01*
X127402542Y-58196153D01*
X127468245Y-58298259D01*
X127568497Y-58366758D01*
X127687500Y-58390857D01*
X129487500Y-58390857D01*
X129598673Y-58369938D01*
X129700779Y-58304235D01*
X129769278Y-58203983D01*
X129793377Y-58084980D01*
X129793377Y-57984980D01*
X129972130Y-57984980D01*
X130032760Y-57997040D01*
X130185833Y-57966592D01*
X130315603Y-57879883D01*
X130402312Y-57750113D01*
X130432760Y-57597040D01*
X130432760Y-55568166D01*
X130975685Y-55025240D01*
X132099075Y-55025240D01*
X131731297Y-55393017D01*
X131644588Y-55522786D01*
X131630705Y-55592583D01*
X131239140Y-55592583D01*
X131127967Y-55613502D01*
X131025861Y-55679205D01*
X130957362Y-55779457D01*
X130933263Y-55898460D01*
X130933263Y-57198460D01*
X130954182Y-57309633D01*
X131019885Y-57411739D01*
X131120137Y-57480238D01*
X131239140Y-57504337D01*
X131443658Y-57504337D01*
X130429022Y-58518972D01*
X130312440Y-58495363D01*
X129712440Y-58495363D01*
X129601267Y-58516282D01*
X129499161Y-58581985D01*
X129430662Y-58682237D01*
X129406563Y-58801240D01*
X129406563Y-59169844D01*
X129368036Y-59185802D01*
X129197003Y-59356835D01*
X129104440Y-59580301D01*
X129104440Y-59649240D01*
X129256440Y-59801240D01*
X129862440Y-59801240D01*
X129862440Y-59727240D01*
X130162440Y-59727240D01*
X130162440Y-59801240D01*
X130768440Y-59801240D01*
X130920440Y-59649240D01*
X130920440Y-59580301D01*
X130827877Y-59356835D01*
X130771210Y-59300168D01*
X130795283Y-59284083D01*
X132296980Y-57782385D01*
X132296983Y-57782383D01*
X132332197Y-57729681D01*
X140832000Y-57729681D01*
X140832000Y-58144620D01*
X140984000Y-58296620D01*
X141736000Y-58296620D01*
X141736000Y-57394620D01*
X141584000Y-57242620D01*
X141319062Y-57242620D01*
X141095596Y-57335182D01*
X140924563Y-57506215D01*
X140832000Y-57729681D01*
X132332197Y-57729681D01*
X132383692Y-57652613D01*
X132397145Y-57584980D01*
X132413187Y-57504337D01*
X132789140Y-57504337D01*
X132900313Y-57483418D01*
X133002419Y-57417715D01*
X133070918Y-57317463D01*
X133095017Y-57198460D01*
X133095017Y-56948460D01*
X138893263Y-56948460D01*
X138893263Y-57198460D01*
X138914182Y-57309633D01*
X138979885Y-57411739D01*
X139080137Y-57480238D01*
X139199140Y-57504337D01*
X140749140Y-57504337D01*
X140860313Y-57483418D01*
X140962419Y-57417715D01*
X141030918Y-57317463D01*
X141055017Y-57198460D01*
X141055017Y-55898460D01*
X141039456Y-55815761D01*
X141134123Y-55910428D01*
X141134123Y-56850620D01*
X141155042Y-56961793D01*
X141220745Y-57063899D01*
X141320997Y-57132398D01*
X141440000Y-57156497D01*
X142340000Y-57156497D01*
X142389381Y-57147205D01*
X142389381Y-57242620D01*
X142196000Y-57242620D01*
X142044000Y-57394620D01*
X142044000Y-58296620D01*
X142064000Y-58296620D01*
X142064000Y-58604620D01*
X142044000Y-58604620D01*
X142044000Y-58624620D01*
X141736000Y-58624620D01*
X141736000Y-58604620D01*
X140984000Y-58604620D01*
X140832000Y-58756620D01*
X140832000Y-59171559D01*
X140924563Y-59395025D01*
X141095596Y-59566058D01*
X141319062Y-59658620D01*
X141584000Y-59658620D01*
X141735998Y-59506622D01*
X141735998Y-59658620D01*
X141831873Y-59658620D01*
X141055017Y-60435477D01*
X141055017Y-60398460D01*
X141034098Y-60287287D01*
X140968395Y-60185181D01*
X140868143Y-60116682D01*
X140749140Y-60092583D01*
X139199140Y-60092583D01*
X139087967Y-60113502D01*
X138985861Y-60179205D01*
X138917362Y-60279457D01*
X138893263Y-60398460D01*
X138893263Y-60548460D01*
X133095017Y-60548460D01*
X133095017Y-60398460D01*
X133074098Y-60287287D01*
X133008395Y-60185181D01*
X132908143Y-60116682D01*
X132789140Y-60092583D01*
X131239140Y-60092583D01*
X131127967Y-60113502D01*
X131025861Y-60179205D01*
X130957362Y-60279457D01*
X130933263Y-60398460D01*
X130933263Y-60548460D01*
X130839140Y-60548460D01*
X130696736Y-60576786D01*
X130827877Y-60445645D01*
X130920440Y-60222179D01*
X130920440Y-60153240D01*
X130768440Y-60001240D01*
X130162440Y-60001240D01*
X130162440Y-60557240D01*
X130314440Y-60709240D01*
X130433378Y-60709240D01*
X130514298Y-60675722D01*
X130485586Y-60694907D01*
X121936436Y-69244058D01*
X121828049Y-69406269D01*
X121789989Y-69597611D01*
X121789989Y-70363782D01*
X121323476Y-70052069D01*
X120711183Y-69930276D01*
X120098890Y-70052069D01*
X119579812Y-70398905D01*
X119232976Y-70917983D01*
X119111183Y-71530276D01*
X119180171Y-71877100D01*
X119030122Y-71776840D01*
X118838780Y-71738780D01*
X116660209Y-71738780D01*
X116462380Y-71396130D01*
X116388677Y-71310311D01*
X116280724Y-71254736D01*
X116159654Y-71245540D01*
X116044544Y-71284172D01*
X115005314Y-71884172D01*
X114919495Y-71957875D01*
X114863920Y-72065828D01*
X114854724Y-72186898D01*
X114893356Y-72302008D01*
X115343356Y-73081430D01*
X115417059Y-73167249D01*
X115525012Y-73222824D01*
X115646082Y-73232020D01*
X115761192Y-73193388D01*
X116548596Y-72738780D01*
X118316274Y-72738780D01*
X117938674Y-72956787D01*
X117852854Y-73030490D01*
X117797279Y-73138443D01*
X117792883Y-73196319D01*
X117547529Y-73441673D01*
X117451390Y-73275155D01*
X117377687Y-73189336D01*
X117269734Y-73133761D01*
X117148664Y-73124565D01*
X117033554Y-73163197D01*
X116115568Y-73693197D01*
X116029749Y-73766900D01*
X115974174Y-73874853D01*
X115964978Y-73995923D01*
X116003610Y-74111033D01*
X116328610Y-74673949D01*
X116402313Y-74759768D01*
X116510266Y-74815343D01*
X116631336Y-74824539D01*
X116746446Y-74785907D01*
X117285728Y-74474552D01*
X117721757Y-74474552D01*
X117913099Y-74436492D01*
X118075310Y-74328105D01*
X118110741Y-74292674D01*
X118196705Y-74315708D01*
X118721516Y-74012708D01*
X118684516Y-73948623D01*
X118944324Y-73798623D01*
X118981324Y-73862708D01*
X119002108Y-73850708D01*
X119102108Y-74023914D01*
X119081324Y-74035914D01*
X119118324Y-74099999D01*
X118858516Y-74249999D01*
X118821516Y-74185914D01*
X118296705Y-74488914D01*
X118241069Y-74696549D01*
X118275538Y-74756252D01*
X118467433Y-74903498D01*
X118541531Y-74923352D01*
X118453692Y-75011192D01*
X118401390Y-74920603D01*
X118327687Y-74834784D01*
X118219734Y-74779209D01*
X118098664Y-74770013D01*
X117983554Y-74808645D01*
X117065568Y-75338645D01*
X116979749Y-75412348D01*
X116924174Y-75520301D01*
X116914978Y-75641371D01*
X116953610Y-75756481D01*
X117149110Y-76095097D01*
X116762407Y-76481800D01*
X116611832Y-76220998D01*
X116637219Y-76187913D01*
X116699822Y-75954278D01*
X116668250Y-75714470D01*
X116598281Y-75593280D01*
X116390645Y-75537644D01*
X115670112Y-75953644D01*
X115680112Y-75970964D01*
X115413376Y-76124964D01*
X115403376Y-76107644D01*
X114682843Y-76523644D01*
X114643636Y-76669966D01*
X114640317Y-76666641D01*
X114419871Y-76575104D01*
X114407200Y-76575093D01*
X114015693Y-76183587D01*
X113853482Y-76075200D01*
X113662140Y-76037140D01*
X112583746Y-76037140D01*
X112572519Y-76017695D01*
X112498817Y-75931876D01*
X112390863Y-75876301D01*
X112269793Y-75867105D01*
X112154684Y-75905737D01*
X111662258Y-76190039D01*
X111629174Y-76164652D01*
X111395539Y-76102050D01*
X111155730Y-76133621D01*
X111052726Y-76193090D01*
X110997090Y-76400726D01*
X111287590Y-76903887D01*
X111308374Y-76891887D01*
X111433374Y-77108393D01*
X111412590Y-77120393D01*
X111703090Y-77623554D01*
X111910726Y-77679190D01*
X112013730Y-77619720D01*
X112160976Y-77427825D01*
X112223578Y-77194190D01*
X112218135Y-77152844D01*
X112418541Y-77037140D01*
X113455034Y-77037140D01*
X113699906Y-77282013D01*
X113699896Y-77293824D01*
X113791048Y-77514429D01*
X113959683Y-77683359D01*
X114180129Y-77774896D01*
X114418824Y-77775104D01*
X114639429Y-77683952D01*
X114648397Y-77675000D01*
X115479744Y-77675000D01*
X115591421Y-77652786D01*
X114251932Y-78992276D01*
X114202592Y-78918434D01*
X113223726Y-77939569D01*
X113095673Y-77717774D01*
X113021970Y-77631954D01*
X112914017Y-77576379D01*
X112792947Y-77567183D01*
X112677837Y-77605815D01*
X112358617Y-77790117D01*
X112325534Y-77764731D01*
X112091899Y-77702128D01*
X111852090Y-77733699D01*
X111792387Y-77768169D01*
X111736752Y-77975805D01*
X112039752Y-78500616D01*
X112103837Y-78463616D01*
X112253837Y-78723424D01*
X112189752Y-78760424D01*
X112492752Y-79285235D01*
X112700387Y-79340871D01*
X112760090Y-79306402D01*
X112907336Y-79114507D01*
X112923632Y-79053688D01*
X113349038Y-79479094D01*
X113349038Y-79575875D01*
X113303310Y-79602276D01*
X112247621Y-79602276D01*
X112263911Y-79592871D01*
X112319546Y-79385235D01*
X112016546Y-78860424D01*
X111535036Y-79138424D01*
X111479400Y-79346059D01*
X111538869Y-79449063D01*
X111730764Y-79596309D01*
X111753033Y-79602276D01*
X108008724Y-79602276D01*
X108112850Y-79498332D01*
X108183635Y-79327860D01*
X111468893Y-79327860D01*
X111479400Y-79346060D01*
X111479400Y-79346059D01*
X111468893Y-79327860D01*
X108183635Y-79327860D01*
X108372204Y-78873736D01*
X108372547Y-78480169D01*
X111086360Y-78480169D01*
X111117931Y-78719977D01*
X111177400Y-78822980D01*
X111385036Y-78878616D01*
X111866546Y-78600616D01*
X111563546Y-78075805D01*
X111355911Y-78020169D01*
X111296208Y-78054638D01*
X111148962Y-78246533D01*
X111086360Y-78480169D01*
X108372547Y-78480169D01*
X108372794Y-78197435D01*
X108200739Y-77781029D01*
X110572335Y-77781029D01*
X110619304Y-77862382D01*
X110811198Y-78009628D01*
X111044833Y-78072230D01*
X111284642Y-78040659D01*
X111387646Y-77981190D01*
X111443282Y-77773554D01*
X111152782Y-77270393D01*
X110627971Y-77573393D01*
X110572335Y-77781029D01*
X108200739Y-77781029D01*
X108114530Y-77572387D01*
X107636730Y-77093752D01*
X107363001Y-76980090D01*
X110216794Y-76980090D01*
X110248366Y-77219898D01*
X110318969Y-77342187D01*
X110295335Y-77301251D01*
X110502971Y-77356887D01*
X111027782Y-77053887D01*
X110737282Y-76550726D01*
X110529646Y-76495090D01*
X110426642Y-76554560D01*
X110279396Y-76746455D01*
X110216794Y-76980090D01*
X107363001Y-76980090D01*
X107012134Y-76834398D01*
X106335833Y-76833808D01*
X106034649Y-76958254D01*
X106574153Y-76485954D01*
X112419734Y-73111008D01*
X111729189Y-73801554D01*
X111507394Y-73929607D01*
X111421574Y-74003310D01*
X111365999Y-74111263D01*
X111356803Y-74232333D01*
X111395435Y-74347443D01*
X111595435Y-74693853D01*
X111669137Y-74779672D01*
X111777091Y-74835247D01*
X111842001Y-74840177D01*
X111815999Y-74890685D01*
X111806803Y-75011755D01*
X111845435Y-75126865D01*
X112045435Y-75473275D01*
X112119137Y-75559094D01*
X112227091Y-75614669D01*
X112348161Y-75623865D01*
X112463270Y-75585233D01*
X112615867Y-75497131D01*
X114263533Y-75497131D01*
X114307656Y-75573554D01*
X114282269Y-75606639D01*
X114219666Y-75840274D01*
X114251238Y-76080082D01*
X114321207Y-76201272D01*
X114528843Y-76256908D01*
X115249376Y-75840908D01*
X115239376Y-75823588D01*
X115506112Y-75669588D01*
X115516112Y-75686908D01*
X116236645Y-75270908D01*
X116292281Y-75063272D01*
X116222312Y-74942082D01*
X116030418Y-74794836D01*
X115796782Y-74732234D01*
X115755436Y-74737677D01*
X115546134Y-74375155D01*
X115472431Y-74289336D01*
X115364478Y-74233761D01*
X115243408Y-74224565D01*
X115128298Y-74263197D01*
X114723113Y-74497131D01*
X112874357Y-74497131D01*
X112821143Y-74435168D01*
X112713189Y-74379593D01*
X112648279Y-74374663D01*
X112674281Y-74324155D01*
X112678677Y-74266278D01*
X113106176Y-73838780D01*
X113240271Y-73838780D01*
X113438100Y-74181430D01*
X113511803Y-74267249D01*
X113619756Y-74322824D01*
X113740826Y-74332020D01*
X113855936Y-74293388D01*
X114895166Y-73693388D01*
X114980985Y-73619685D01*
X115036560Y-73511732D01*
X115045756Y-73390662D01*
X115007124Y-73275552D01*
X114557124Y-72496130D01*
X114483421Y-72410311D01*
X114375468Y-72354736D01*
X114254398Y-72345540D01*
X114139288Y-72384172D01*
X113351884Y-72838780D01*
X112899069Y-72838780D01*
X112887136Y-72841154D01*
X122934722Y-67040180D01*
X122952089Y-67024950D01*
X122972788Y-67014742D01*
X123179895Y-66855824D01*
X123217510Y-66812933D01*
X123257843Y-66772599D01*
X123474616Y-66448176D01*
X123474617Y-66448175D01*
X123510002Y-66362748D01*
X123526877Y-66322008D01*
X123526877Y-66322007D01*
X123602997Y-65939324D01*
X123602997Y-65904852D01*
X123609722Y-65871043D01*
X123609722Y-61700358D01*
X124786492Y-61700358D01*
X124908285Y-62312651D01*
X125255121Y-62831729D01*
X125774199Y-63178565D01*
X126386492Y-63300358D01*
X126998785Y-63178565D01*
X127517863Y-62831729D01*
X127864699Y-62312651D01*
X127986492Y-61700358D01*
X127864699Y-61088065D01*
X127517863Y-60568987D01*
X126998785Y-60222151D01*
X126652348Y-60153240D01*
X129104440Y-60153240D01*
X129104440Y-60222179D01*
X129197003Y-60445645D01*
X129368036Y-60616678D01*
X129591502Y-60709240D01*
X129710440Y-60709240D01*
X129862440Y-60557240D01*
X129862440Y-60001240D01*
X129256440Y-60001240D01*
X129104440Y-60153240D01*
X126652348Y-60153240D01*
X126386492Y-60100358D01*
X125774199Y-60222151D01*
X125255121Y-60568987D01*
X124908285Y-61088065D01*
X124786492Y-61700358D01*
X123609722Y-61700358D01*
X123609722Y-57841020D01*
X124236440Y-57841020D01*
X124236440Y-57934958D01*
X124329002Y-58158424D01*
X124500035Y-58329457D01*
X124723501Y-58422020D01*
X124842440Y-58422020D01*
X124994440Y-58270020D01*
X124994440Y-57689020D01*
X124388440Y-57689020D01*
X124236440Y-57841020D01*
X123609722Y-57841020D01*
X123609722Y-57193082D01*
X124236440Y-57193082D01*
X124236440Y-57287020D01*
X124388440Y-57439020D01*
X124994440Y-57439020D01*
X124994440Y-56858020D01*
X124842440Y-56706020D01*
X124723501Y-56706020D01*
X124500035Y-56798583D01*
X124329002Y-56969616D01*
X124236440Y-57193082D01*
X123609722Y-57193082D01*
X123609722Y-55351820D01*
X124226280Y-55351820D01*
X124226280Y-55445758D01*
X124318842Y-55669224D01*
X124489875Y-55840257D01*
X124713341Y-55932820D01*
X124832280Y-55932820D01*
X124984280Y-55780820D01*
X124984280Y-55199820D01*
X124378280Y-55199820D01*
X124226280Y-55351820D01*
X123609722Y-55351820D01*
X123609722Y-54703882D01*
X124226280Y-54703882D01*
X124226280Y-54797820D01*
X124378280Y-54949820D01*
X124984280Y-54949820D01*
X124984280Y-54368820D01*
X124832280Y-54216820D01*
X124713341Y-54216820D01*
X124489875Y-54309383D01*
X124318842Y-54480416D01*
X124226280Y-54703882D01*
X123609722Y-54703882D01*
X123609722Y-46979641D01*
X123741429Y-46317506D01*
X123741386Y-46366547D01*
X123741386Y-46366547D01*
G37*
X123741386Y-46366547D02*
X123999650Y-46991595D01*
X124477450Y-47470230D01*
X125102046Y-47729584D01*
X125778347Y-47730174D01*
X126403395Y-47471910D01*
X126867000Y-47009114D01*
X126867000Y-47230939D01*
X126959563Y-47454405D01*
X127130596Y-47625438D01*
X127214321Y-47660118D01*
X127193222Y-47690997D01*
X127169123Y-47810000D01*
X127169123Y-49010000D01*
X127183040Y-49083960D01*
X127143178Y-49083960D01*
X127143178Y-49235958D01*
X126991180Y-49083960D01*
X126801242Y-49083960D01*
X126577776Y-49176522D01*
X126406743Y-49347555D01*
X126314180Y-49571021D01*
X126314180Y-49985960D01*
X126466180Y-50137960D01*
X127143180Y-50137960D01*
X127143180Y-50117960D01*
X127451180Y-50117960D01*
X127451180Y-50137960D01*
X128128180Y-50137960D01*
X128280180Y-49985960D01*
X128280180Y-49571021D01*
X128187617Y-49347555D01*
X128155939Y-49315877D01*
X128225000Y-49315877D01*
X128283722Y-49304828D01*
X128360000Y-49320000D01*
X128644123Y-49320000D01*
X128644123Y-49520000D01*
X128665042Y-49631173D01*
X128730745Y-49733279D01*
X128830997Y-49801778D01*
X128950000Y-49825877D01*
X129590191Y-49825877D01*
X131489314Y-51725000D01*
X130420685Y-51725000D01*
X130155877Y-51460192D01*
X130155877Y-50520000D01*
X130134958Y-50408827D01*
X130069255Y-50306721D01*
X129969003Y-50238222D01*
X129850000Y-50214123D01*
X128950000Y-50214123D01*
X128838827Y-50235042D01*
X128736721Y-50300745D01*
X128668222Y-50400997D01*
X128644123Y-50520000D01*
X128644123Y-51720000D01*
X128665042Y-51831173D01*
X128730745Y-51933279D01*
X128830997Y-52001778D01*
X128950000Y-52025877D01*
X129590192Y-52025877D01*
X129689315Y-52125000D01*
X128370905Y-52125000D01*
X128155023Y-51909117D01*
X128025254Y-51822408D01*
X127978057Y-51813020D01*
X127978057Y-51591960D01*
X127957138Y-51480787D01*
X127932362Y-51442284D01*
X128016584Y-51407398D01*
X128187617Y-51236365D01*
X128280180Y-51012899D01*
X128280180Y-50597960D01*
X128128180Y-50445960D01*
X127451180Y-50445960D01*
X127451180Y-50465960D01*
X127143180Y-50465960D01*
X127143180Y-50445960D01*
X126466180Y-50445960D01*
X126314180Y-50597960D01*
X126314180Y-51012899D01*
X126406743Y-51236365D01*
X126577776Y-51407398D01*
X126661501Y-51442078D01*
X126640402Y-51472957D01*
X126616303Y-51591960D01*
X126616303Y-52791960D01*
X126637222Y-52903133D01*
X126702925Y-53005239D01*
X126803177Y-53073738D01*
X126922180Y-53097837D01*
X127672180Y-53097837D01*
X127783353Y-53076918D01*
X127885459Y-53011215D01*
X127953958Y-52910963D01*
X127968588Y-52838720D01*
X127977987Y-52845000D01*
X128052146Y-52894552D01*
X128205220Y-52925001D01*
X128205225Y-52925000D01*
X129181820Y-52925000D01*
X129181820Y-52999500D01*
X129333820Y-53151500D01*
X129939820Y-53151500D01*
X129939820Y-53102500D01*
X130239820Y-53102500D01*
X130239820Y-53151500D01*
X130263820Y-53151500D01*
X130263820Y-53401500D01*
X130239820Y-53401500D01*
X130239820Y-53450500D01*
X129939820Y-53450500D01*
X129939820Y-53401500D01*
X129333820Y-53401500D01*
X129181820Y-53553500D01*
X129181820Y-53647438D01*
X129274382Y-53870904D01*
X129445415Y-54041937D01*
X129668881Y-54134500D01*
X129787820Y-54134500D01*
X129935818Y-53986502D01*
X129935818Y-54134500D01*
X130072295Y-54134500D01*
X129757004Y-54449790D01*
X129706755Y-54371701D01*
X129606503Y-54303202D01*
X129487500Y-54279103D01*
X127687500Y-54279103D01*
X127576327Y-54300022D01*
X127474221Y-54365725D01*
X127405722Y-54465977D01*
X127381623Y-54584980D01*
X127381623Y-54684980D01*
X126800791Y-54684980D01*
X126753535Y-54611541D01*
X126653283Y-54543042D01*
X126534280Y-54518943D01*
X125965676Y-54518943D01*
X125949718Y-54480416D01*
X125778685Y-54309383D01*
X125555219Y-54216820D01*
X125436280Y-54216820D01*
X125284280Y-54368820D01*
X125284280Y-54949820D01*
X125308280Y-54949820D01*
X125308280Y-55199820D01*
X125284280Y-55199820D01*
X125284280Y-55780820D01*
X125436280Y-55932820D01*
X125555219Y-55932820D01*
X125778685Y-55840257D01*
X125949718Y-55669224D01*
X125965676Y-55630697D01*
X126534280Y-55630697D01*
X126645453Y-55609778D01*
X126747559Y-55544075D01*
X126787937Y-55484980D01*
X127381623Y-55484980D01*
X127381623Y-55584980D01*
X127402542Y-55696153D01*
X127468245Y-55798259D01*
X127568497Y-55866758D01*
X127687500Y-55890857D01*
X129487500Y-55890857D01*
X129598673Y-55869938D01*
X129632760Y-55848004D01*
X129632760Y-56821143D01*
X129606503Y-56803202D01*
X129487500Y-56779103D01*
X127687500Y-56779103D01*
X127576327Y-56800022D01*
X127474221Y-56865725D01*
X127405722Y-56965977D01*
X127381623Y-57084980D01*
X127381623Y-57184980D01*
X126817901Y-57184980D01*
X126763695Y-57100741D01*
X126663443Y-57032242D01*
X126544440Y-57008143D01*
X125975836Y-57008143D01*
X125959878Y-56969616D01*
X125788845Y-56798583D01*
X125565379Y-56706020D01*
X125446440Y-56706020D01*
X125294440Y-56858020D01*
X125294440Y-57439020D01*
X125318440Y-57439020D01*
X125318440Y-57689020D01*
X125294440Y-57689020D01*
X125294440Y-58270020D01*
X125446440Y-58422020D01*
X125565379Y-58422020D01*
X125788845Y-58329457D01*
X125959878Y-58158424D01*
X125975836Y-58119897D01*
X126544440Y-58119897D01*
X126655613Y-58098978D01*
X126757719Y-58033275D01*
X126790717Y-57984980D01*
X127381623Y-57984980D01*
X127381623Y-58084980D01*
X127402542Y-58196153D01*
X127468245Y-58298259D01*
X127568497Y-58366758D01*
X127687500Y-58390857D01*
X129487500Y-58390857D01*
X129598673Y-58369938D01*
X129700779Y-58304235D01*
X129769278Y-58203983D01*
X129793377Y-58084980D01*
X129793377Y-57984980D01*
X129972130Y-57984980D01*
X130032760Y-57997040D01*
X130185833Y-57966592D01*
X130315603Y-57879883D01*
X130402312Y-57750113D01*
X130432760Y-57597040D01*
X130432760Y-55568166D01*
X130975685Y-55025240D01*
X132099075Y-55025240D01*
X131731297Y-55393017D01*
X131644588Y-55522786D01*
X131630705Y-55592583D01*
X131239140Y-55592583D01*
X131127967Y-55613502D01*
X131025861Y-55679205D01*
X130957362Y-55779457D01*
X130933263Y-55898460D01*
X130933263Y-57198460D01*
X130954182Y-57309633D01*
X131019885Y-57411739D01*
X131120137Y-57480238D01*
X131239140Y-57504337D01*
X131443658Y-57504337D01*
X130429022Y-58518972D01*
X130312440Y-58495363D01*
X129712440Y-58495363D01*
X129601267Y-58516282D01*
X129499161Y-58581985D01*
X129430662Y-58682237D01*
X129406563Y-58801240D01*
X129406563Y-59169844D01*
X129368036Y-59185802D01*
X129197003Y-59356835D01*
X129104440Y-59580301D01*
X129104440Y-59649240D01*
X129256440Y-59801240D01*
X129862440Y-59801240D01*
X129862440Y-59727240D01*
X130162440Y-59727240D01*
X130162440Y-59801240D01*
X130768440Y-59801240D01*
X130920440Y-59649240D01*
X130920440Y-59580301D01*
X130827877Y-59356835D01*
X130771210Y-59300168D01*
X130795283Y-59284083D01*
X132296980Y-57782385D01*
X132296983Y-57782383D01*
X132332197Y-57729681D01*
X140832000Y-57729681D01*
X140832000Y-58144620D01*
X140984000Y-58296620D01*
X141736000Y-58296620D01*
X141736000Y-57394620D01*
X141584000Y-57242620D01*
X141319062Y-57242620D01*
X141095596Y-57335182D01*
X140924563Y-57506215D01*
X140832000Y-57729681D01*
X132332197Y-57729681D01*
X132383692Y-57652613D01*
X132397145Y-57584980D01*
X132413187Y-57504337D01*
X132789140Y-57504337D01*
X132900313Y-57483418D01*
X133002419Y-57417715D01*
X133070918Y-57317463D01*
X133095017Y-57198460D01*
X133095017Y-56948460D01*
X138893263Y-56948460D01*
X138893263Y-57198460D01*
X138914182Y-57309633D01*
X138979885Y-57411739D01*
X139080137Y-57480238D01*
X139199140Y-57504337D01*
X140749140Y-57504337D01*
X140860313Y-57483418D01*
X140962419Y-57417715D01*
X141030918Y-57317463D01*
X141055017Y-57198460D01*
X141055017Y-55898460D01*
X141039456Y-55815761D01*
X141134123Y-55910428D01*
X141134123Y-56850620D01*
X141155042Y-56961793D01*
X141220745Y-57063899D01*
X141320997Y-57132398D01*
X141440000Y-57156497D01*
X142340000Y-57156497D01*
X142389381Y-57147205D01*
X142389381Y-57242620D01*
X142196000Y-57242620D01*
X142044000Y-57394620D01*
X142044000Y-58296620D01*
X142064000Y-58296620D01*
X142064000Y-58604620D01*
X142044000Y-58604620D01*
X142044000Y-58624620D01*
X141736000Y-58624620D01*
X141736000Y-58604620D01*
X140984000Y-58604620D01*
X140832000Y-58756620D01*
X140832000Y-59171559D01*
X140924563Y-59395025D01*
X141095596Y-59566058D01*
X141319062Y-59658620D01*
X141584000Y-59658620D01*
X141735998Y-59506622D01*
X141735998Y-59658620D01*
X141831873Y-59658620D01*
X141055017Y-60435477D01*
X141055017Y-60398460D01*
X141034098Y-60287287D01*
X140968395Y-60185181D01*
X140868143Y-60116682D01*
X140749140Y-60092583D01*
X139199140Y-60092583D01*
X139087967Y-60113502D01*
X138985861Y-60179205D01*
X138917362Y-60279457D01*
X138893263Y-60398460D01*
X138893263Y-60548460D01*
X133095017Y-60548460D01*
X133095017Y-60398460D01*
X133074098Y-60287287D01*
X133008395Y-60185181D01*
X132908143Y-60116682D01*
X132789140Y-60092583D01*
X131239140Y-60092583D01*
X131127967Y-60113502D01*
X131025861Y-60179205D01*
X130957362Y-60279457D01*
X130933263Y-60398460D01*
X130933263Y-60548460D01*
X130839140Y-60548460D01*
X130696736Y-60576786D01*
X130827877Y-60445645D01*
X130920440Y-60222179D01*
X130920440Y-60153240D01*
X130768440Y-60001240D01*
X130162440Y-60001240D01*
X130162440Y-60557240D01*
X130314440Y-60709240D01*
X130433378Y-60709240D01*
X130514298Y-60675722D01*
X130485586Y-60694907D01*
X121936436Y-69244058D01*
X121828049Y-69406269D01*
X121789989Y-69597611D01*
X121789989Y-70363782D01*
X121323476Y-70052069D01*
X120711183Y-69930276D01*
X120098890Y-70052069D01*
X119579812Y-70398905D01*
X119232976Y-70917983D01*
X119111183Y-71530276D01*
X119180171Y-71877100D01*
X119030122Y-71776840D01*
X118838780Y-71738780D01*
X116660209Y-71738780D01*
X116462380Y-71396130D01*
X116388677Y-71310311D01*
X116280724Y-71254736D01*
X116159654Y-71245540D01*
X116044544Y-71284172D01*
X115005314Y-71884172D01*
X114919495Y-71957875D01*
X114863920Y-72065828D01*
X114854724Y-72186898D01*
X114893356Y-72302008D01*
X115343356Y-73081430D01*
X115417059Y-73167249D01*
X115525012Y-73222824D01*
X115646082Y-73232020D01*
X115761192Y-73193388D01*
X116548596Y-72738780D01*
X118316274Y-72738780D01*
X117938674Y-72956787D01*
X117852854Y-73030490D01*
X117797279Y-73138443D01*
X117792883Y-73196319D01*
X117547529Y-73441673D01*
X117451390Y-73275155D01*
X117377687Y-73189336D01*
X117269734Y-73133761D01*
X117148664Y-73124565D01*
X117033554Y-73163197D01*
X116115568Y-73693197D01*
X116029749Y-73766900D01*
X115974174Y-73874853D01*
X115964978Y-73995923D01*
X116003610Y-74111033D01*
X116328610Y-74673949D01*
X116402313Y-74759768D01*
X116510266Y-74815343D01*
X116631336Y-74824539D01*
X116746446Y-74785907D01*
X117285728Y-74474552D01*
X117721757Y-74474552D01*
X117913099Y-74436492D01*
X118075310Y-74328105D01*
X118110741Y-74292674D01*
X118196705Y-74315708D01*
X118721516Y-74012708D01*
X118684516Y-73948623D01*
X118944324Y-73798623D01*
X118981324Y-73862708D01*
X119002108Y-73850708D01*
X119102108Y-74023914D01*
X119081324Y-74035914D01*
X119118324Y-74099999D01*
X118858516Y-74249999D01*
X118821516Y-74185914D01*
X118296705Y-74488914D01*
X118241069Y-74696549D01*
X118275538Y-74756252D01*
X118467433Y-74903498D01*
X118541531Y-74923352D01*
X118453692Y-75011192D01*
X118401390Y-74920603D01*
X118327687Y-74834784D01*
X118219734Y-74779209D01*
X118098664Y-74770013D01*
X117983554Y-74808645D01*
X117065568Y-75338645D01*
X116979749Y-75412348D01*
X116924174Y-75520301D01*
X116914978Y-75641371D01*
X116953610Y-75756481D01*
X117149110Y-76095097D01*
X116762407Y-76481800D01*
X116611832Y-76220998D01*
X116637219Y-76187913D01*
X116699822Y-75954278D01*
X116668250Y-75714470D01*
X116598281Y-75593280D01*
X116390645Y-75537644D01*
X115670112Y-75953644D01*
X115680112Y-75970964D01*
X115413376Y-76124964D01*
X115403376Y-76107644D01*
X114682843Y-76523644D01*
X114643636Y-76669966D01*
X114640317Y-76666641D01*
X114419871Y-76575104D01*
X114407200Y-76575093D01*
X114015693Y-76183587D01*
X113853482Y-76075200D01*
X113662140Y-76037140D01*
X112583746Y-76037140D01*
X112572519Y-76017695D01*
X112498817Y-75931876D01*
X112390863Y-75876301D01*
X112269793Y-75867105D01*
X112154684Y-75905737D01*
X111662258Y-76190039D01*
X111629174Y-76164652D01*
X111395539Y-76102050D01*
X111155730Y-76133621D01*
X111052726Y-76193090D01*
X110997090Y-76400726D01*
X111287590Y-76903887D01*
X111308374Y-76891887D01*
X111433374Y-77108393D01*
X111412590Y-77120393D01*
X111703090Y-77623554D01*
X111910726Y-77679190D01*
X112013730Y-77619720D01*
X112160976Y-77427825D01*
X112223578Y-77194190D01*
X112218135Y-77152844D01*
X112418541Y-77037140D01*
X113455034Y-77037140D01*
X113699906Y-77282013D01*
X113699896Y-77293824D01*
X113791048Y-77514429D01*
X113959683Y-77683359D01*
X114180129Y-77774896D01*
X114418824Y-77775104D01*
X114639429Y-77683952D01*
X114648397Y-77675000D01*
X115479744Y-77675000D01*
X115591421Y-77652786D01*
X114251932Y-78992276D01*
X114202592Y-78918434D01*
X113223726Y-77939569D01*
X113095673Y-77717774D01*
X113021970Y-77631954D01*
X112914017Y-77576379D01*
X112792947Y-77567183D01*
X112677837Y-77605815D01*
X112358617Y-77790117D01*
X112325534Y-77764731D01*
X112091899Y-77702128D01*
X111852090Y-77733699D01*
X111792387Y-77768169D01*
X111736752Y-77975805D01*
X112039752Y-78500616D01*
X112103837Y-78463616D01*
X112253837Y-78723424D01*
X112189752Y-78760424D01*
X112492752Y-79285235D01*
X112700387Y-79340871D01*
X112760090Y-79306402D01*
X112907336Y-79114507D01*
X112923632Y-79053688D01*
X113349038Y-79479094D01*
X113349038Y-79575875D01*
X113303310Y-79602276D01*
X112247621Y-79602276D01*
X112263911Y-79592871D01*
X112319546Y-79385235D01*
X112016546Y-78860424D01*
X111535036Y-79138424D01*
X111479400Y-79346059D01*
X111538869Y-79449063D01*
X111730764Y-79596309D01*
X111753033Y-79602276D01*
X108008724Y-79602276D01*
X108112850Y-79498332D01*
X108183635Y-79327860D01*
X111468893Y-79327860D01*
X111479400Y-79346060D01*
X111479400Y-79346059D01*
X111468893Y-79327860D01*
X108183635Y-79327860D01*
X108372204Y-78873736D01*
X108372547Y-78480169D01*
X111086360Y-78480169D01*
X111117931Y-78719977D01*
X111177400Y-78822980D01*
X111385036Y-78878616D01*
X111866546Y-78600616D01*
X111563546Y-78075805D01*
X111355911Y-78020169D01*
X111296208Y-78054638D01*
X111148962Y-78246533D01*
X111086360Y-78480169D01*
X108372547Y-78480169D01*
X108372794Y-78197435D01*
X108200739Y-77781029D01*
X110572335Y-77781029D01*
X110619304Y-77862382D01*
X110811198Y-78009628D01*
X111044833Y-78072230D01*
X111284642Y-78040659D01*
X111387646Y-77981190D01*
X111443282Y-77773554D01*
X111152782Y-77270393D01*
X110627971Y-77573393D01*
X110572335Y-77781029D01*
X108200739Y-77781029D01*
X108114530Y-77572387D01*
X107636730Y-77093752D01*
X107363001Y-76980090D01*
X110216794Y-76980090D01*
X110248366Y-77219898D01*
X110318969Y-77342187D01*
X110295335Y-77301251D01*
X110502971Y-77356887D01*
X111027782Y-77053887D01*
X110737282Y-76550726D01*
X110529646Y-76495090D01*
X110426642Y-76554560D01*
X110279396Y-76746455D01*
X110216794Y-76980090D01*
X107363001Y-76980090D01*
X107012134Y-76834398D01*
X106335833Y-76833808D01*
X106034649Y-76958254D01*
X106574153Y-76485954D01*
X112419734Y-73111008D01*
X111729189Y-73801554D01*
X111507394Y-73929607D01*
X111421574Y-74003310D01*
X111365999Y-74111263D01*
X111356803Y-74232333D01*
X111395435Y-74347443D01*
X111595435Y-74693853D01*
X111669137Y-74779672D01*
X111777091Y-74835247D01*
X111842001Y-74840177D01*
X111815999Y-74890685D01*
X111806803Y-75011755D01*
X111845435Y-75126865D01*
X112045435Y-75473275D01*
X112119137Y-75559094D01*
X112227091Y-75614669D01*
X112348161Y-75623865D01*
X112463270Y-75585233D01*
X112615867Y-75497131D01*
X114263533Y-75497131D01*
X114307656Y-75573554D01*
X114282269Y-75606639D01*
X114219666Y-75840274D01*
X114251238Y-76080082D01*
X114321207Y-76201272D01*
X114528843Y-76256908D01*
X115249376Y-75840908D01*
X115239376Y-75823588D01*
X115506112Y-75669588D01*
X115516112Y-75686908D01*
X116236645Y-75270908D01*
X116292281Y-75063272D01*
X116222312Y-74942082D01*
X116030418Y-74794836D01*
X115796782Y-74732234D01*
X115755436Y-74737677D01*
X115546134Y-74375155D01*
X115472431Y-74289336D01*
X115364478Y-74233761D01*
X115243408Y-74224565D01*
X115128298Y-74263197D01*
X114723113Y-74497131D01*
X112874357Y-74497131D01*
X112821143Y-74435168D01*
X112713189Y-74379593D01*
X112648279Y-74374663D01*
X112674281Y-74324155D01*
X112678677Y-74266278D01*
X113106176Y-73838780D01*
X113240271Y-73838780D01*
X113438100Y-74181430D01*
X113511803Y-74267249D01*
X113619756Y-74322824D01*
X113740826Y-74332020D01*
X113855936Y-74293388D01*
X114895166Y-73693388D01*
X114980985Y-73619685D01*
X115036560Y-73511732D01*
X115045756Y-73390662D01*
X115007124Y-73275552D01*
X114557124Y-72496130D01*
X114483421Y-72410311D01*
X114375468Y-72354736D01*
X114254398Y-72345540D01*
X114139288Y-72384172D01*
X113351884Y-72838780D01*
X112899069Y-72838780D01*
X112887136Y-72841154D01*
X122934722Y-67040180D01*
X122952089Y-67024950D01*
X122972788Y-67014742D01*
X123179895Y-66855824D01*
X123217510Y-66812933D01*
X123257843Y-66772599D01*
X123474616Y-66448176D01*
X123474617Y-66448175D01*
X123510002Y-66362748D01*
X123526877Y-66322008D01*
X123526877Y-66322007D01*
X123602997Y-65939324D01*
X123602997Y-65904852D01*
X123609722Y-65871043D01*
X123609722Y-61700358D01*
X124786492Y-61700358D01*
X124908285Y-62312651D01*
X125255121Y-62831729D01*
X125774199Y-63178565D01*
X126386492Y-63300358D01*
X126998785Y-63178565D01*
X127517863Y-62831729D01*
X127864699Y-62312651D01*
X127986492Y-61700358D01*
X127864699Y-61088065D01*
X127517863Y-60568987D01*
X126998785Y-60222151D01*
X126652348Y-60153240D01*
X129104440Y-60153240D01*
X129104440Y-60222179D01*
X129197003Y-60445645D01*
X129368036Y-60616678D01*
X129591502Y-60709240D01*
X129710440Y-60709240D01*
X129862440Y-60557240D01*
X129862440Y-60001240D01*
X129256440Y-60001240D01*
X129104440Y-60153240D01*
X126652348Y-60153240D01*
X126386492Y-60100358D01*
X125774199Y-60222151D01*
X125255121Y-60568987D01*
X124908285Y-61088065D01*
X124786492Y-61700358D01*
X123609722Y-61700358D01*
X123609722Y-57841020D01*
X124236440Y-57841020D01*
X124236440Y-57934958D01*
X124329002Y-58158424D01*
X124500035Y-58329457D01*
X124723501Y-58422020D01*
X124842440Y-58422020D01*
X124994440Y-58270020D01*
X124994440Y-57689020D01*
X124388440Y-57689020D01*
X124236440Y-57841020D01*
X123609722Y-57841020D01*
X123609722Y-57193082D01*
X124236440Y-57193082D01*
X124236440Y-57287020D01*
X124388440Y-57439020D01*
X124994440Y-57439020D01*
X124994440Y-56858020D01*
X124842440Y-56706020D01*
X124723501Y-56706020D01*
X124500035Y-56798583D01*
X124329002Y-56969616D01*
X124236440Y-57193082D01*
X123609722Y-57193082D01*
X123609722Y-55351820D01*
X124226280Y-55351820D01*
X124226280Y-55445758D01*
X124318842Y-55669224D01*
X124489875Y-55840257D01*
X124713341Y-55932820D01*
X124832280Y-55932820D01*
X124984280Y-55780820D01*
X124984280Y-55199820D01*
X124378280Y-55199820D01*
X124226280Y-55351820D01*
X123609722Y-55351820D01*
X123609722Y-54703882D01*
X124226280Y-54703882D01*
X124226280Y-54797820D01*
X124378280Y-54949820D01*
X124984280Y-54949820D01*
X124984280Y-54368820D01*
X124832280Y-54216820D01*
X124713341Y-54216820D01*
X124489875Y-54309383D01*
X124318842Y-54480416D01*
X124226280Y-54703882D01*
X123609722Y-54703882D01*
X123609722Y-46979641D01*
X123741429Y-46317506D01*
X123741386Y-46366547D01*
G36*
X144250000Y-52405000D02*
X144274000Y-52405000D01*
X144274000Y-52655000D01*
X144250000Y-52655000D01*
X144250000Y-53236000D01*
X144402000Y-53388000D01*
X144520939Y-53388000D01*
X144744405Y-53295437D01*
X144915438Y-53124404D01*
X144924002Y-53103729D01*
X144924002Y-54564314D01*
X143389381Y-56098935D01*
X143389381Y-53229223D01*
X143455595Y-53295437D01*
X143679061Y-53388000D01*
X143798000Y-53388000D01*
X143950000Y-53236000D01*
X143950000Y-52655000D01*
X143926000Y-52655000D01*
X143926000Y-52405000D01*
X143950000Y-52405000D01*
X143950000Y-52356000D01*
X144250000Y-52356000D01*
X144250000Y-52405000D01*
X144250000Y-52405000D01*
G37*
X144250000Y-52405000D02*
X144274000Y-52405000D01*
X144274000Y-52655000D01*
X144250000Y-52655000D01*
X144250000Y-53236000D01*
X144402000Y-53388000D01*
X144520939Y-53388000D01*
X144744405Y-53295437D01*
X144915438Y-53124404D01*
X144924002Y-53103729D01*
X144924002Y-54564314D01*
X143389381Y-56098935D01*
X143389381Y-53229223D01*
X143455595Y-53295437D01*
X143679061Y-53388000D01*
X143798000Y-53388000D01*
X143950000Y-53236000D01*
X143950000Y-52655000D01*
X143926000Y-52655000D01*
X143926000Y-52405000D01*
X143950000Y-52405000D01*
X143950000Y-52356000D01*
X144250000Y-52356000D01*
X144250000Y-52405000D01*
G36*
X141194622Y-52533563D02*
X141194625Y-52533565D01*
X141544613Y-52883553D01*
X141706824Y-52991940D01*
X141898166Y-53030000D01*
X142389381Y-53030000D01*
X142389381Y-55354743D01*
X142340000Y-55344743D01*
X141699808Y-55344743D01*
X140955877Y-54600811D01*
X140955877Y-54190000D01*
X140934958Y-54078827D01*
X140869255Y-53976721D01*
X140769003Y-53908222D01*
X140650000Y-53884123D01*
X140250000Y-53884123D01*
X140138827Y-53905042D01*
X140036721Y-53970745D01*
X139999996Y-54024494D01*
X139969255Y-53976721D01*
X139869003Y-53908222D01*
X139750000Y-53884123D01*
X139350000Y-53884123D01*
X139238827Y-53905042D01*
X139173052Y-53947366D01*
X138717844Y-53492158D01*
X138635877Y-53437389D01*
X138635877Y-53188467D01*
X138679404Y-53170438D01*
X138850437Y-52999405D01*
X138868467Y-52955877D01*
X139205000Y-52955877D01*
X139316173Y-52934958D01*
X139331648Y-52925000D01*
X140603186Y-52925000D01*
X140756260Y-52894552D01*
X140886029Y-52807843D01*
X141177466Y-52516406D01*
X141194622Y-52533563D01*
X141194622Y-52533563D01*
G37*
X141194622Y-52533563D02*
X141194625Y-52533565D01*
X141544613Y-52883553D01*
X141706824Y-52991940D01*
X141898166Y-53030000D01*
X142389381Y-53030000D01*
X142389381Y-55354743D01*
X142340000Y-55344743D01*
X141699808Y-55344743D01*
X140955877Y-54600811D01*
X140955877Y-54190000D01*
X140934958Y-54078827D01*
X140869255Y-53976721D01*
X140769003Y-53908222D01*
X140650000Y-53884123D01*
X140250000Y-53884123D01*
X140138827Y-53905042D01*
X140036721Y-53970745D01*
X139999996Y-54024494D01*
X139969255Y-53976721D01*
X139869003Y-53908222D01*
X139750000Y-53884123D01*
X139350000Y-53884123D01*
X139238827Y-53905042D01*
X139173052Y-53947366D01*
X138717844Y-53492158D01*
X138635877Y-53437389D01*
X138635877Y-53188467D01*
X138679404Y-53170438D01*
X138850437Y-52999405D01*
X138868467Y-52955877D01*
X139205000Y-52955877D01*
X139316173Y-52934958D01*
X139331648Y-52925000D01*
X140603186Y-52925000D01*
X140756260Y-52894552D01*
X140886029Y-52807843D01*
X141177466Y-52516406D01*
X141194622Y-52533563D01*
G36*
X135524000Y-35046000D02*
X135544000Y-35046000D01*
X135544000Y-35354000D01*
X135524000Y-35354000D01*
X135524000Y-36143515D01*
X135693751Y-36259646D01*
X135890366Y-36178221D01*
X136225104Y-35904623D01*
X136234001Y-35888058D01*
X136333853Y-35954777D01*
X136640000Y-36015673D01*
X136946147Y-35954777D01*
X137205685Y-35781358D01*
X137275000Y-35677622D01*
X137344315Y-35781358D01*
X137603853Y-35954777D01*
X137910000Y-36015673D01*
X138216147Y-35954777D01*
X138475685Y-35781358D01*
X138649104Y-35521820D01*
X138710000Y-35215673D01*
X138710000Y-35184327D01*
X138696497Y-35116441D01*
X140717804Y-35518504D01*
X144730318Y-38199580D01*
X147411394Y-42212094D01*
X147975966Y-45050390D01*
X147515910Y-44589530D01*
X146891314Y-44330176D01*
X146215013Y-44329586D01*
X145589965Y-44587850D01*
X145111330Y-45065650D01*
X144851976Y-45690246D01*
X144851386Y-46366547D01*
X145109650Y-46991595D01*
X145587450Y-47470230D01*
X146212046Y-47729584D01*
X146888347Y-47730174D01*
X147513395Y-47471910D01*
X147992030Y-46994110D01*
X148242576Y-46390727D01*
X148359718Y-46979641D01*
X148359718Y-51790030D01*
X144811845Y-48242157D01*
X144682076Y-48155448D01*
X144529002Y-48125000D01*
X139510877Y-48125000D01*
X139510877Y-48000000D01*
X139489958Y-47888827D01*
X139474626Y-47865000D01*
X139887940Y-47865000D01*
X140041014Y-47834552D01*
X140170783Y-47747843D01*
X140481055Y-47437571D01*
X140634164Y-47437704D01*
X140854769Y-47346552D01*
X141023699Y-47177917D01*
X141115236Y-46957471D01*
X141115444Y-46718776D01*
X141024292Y-46498171D01*
X140855657Y-46329241D01*
X140635211Y-46237704D01*
X140396516Y-46237496D01*
X140175911Y-46328648D01*
X140006981Y-46497283D01*
X139915444Y-46717729D01*
X139915310Y-46871945D01*
X139722254Y-47065000D01*
X138624587Y-47065000D01*
X138614958Y-47013827D01*
X138549255Y-46911721D01*
X138449003Y-46843222D01*
X138330000Y-46819123D01*
X138205000Y-46819123D01*
X138205000Y-46365906D01*
X138273105Y-46297800D01*
X138738433Y-46297800D01*
X138846603Y-46406159D01*
X139067049Y-46497696D01*
X139305744Y-46497904D01*
X139526349Y-46406752D01*
X139695279Y-46238117D01*
X139786816Y-46017671D01*
X139787024Y-45778976D01*
X139695872Y-45558371D01*
X139527237Y-45389441D01*
X139306791Y-45297904D01*
X139068096Y-45297696D01*
X138847491Y-45388848D01*
X138738348Y-45497800D01*
X138197885Y-45497800D01*
X138443945Y-45251740D01*
X139974840Y-45251740D01*
X139983385Y-45265019D01*
X140083637Y-45333518D01*
X140202640Y-45357617D01*
X140802640Y-45357617D01*
X140913813Y-45336698D01*
X141015919Y-45270995D01*
X141029075Y-45251740D01*
X142616330Y-45251740D01*
X142629602Y-45322273D01*
X142695305Y-45424379D01*
X142795557Y-45492878D01*
X142914560Y-45516977D01*
X143414560Y-45516977D01*
X143525733Y-45496058D01*
X143627839Y-45430355D01*
X143696338Y-45330103D01*
X143720437Y-45211100D01*
X143720437Y-44642496D01*
X143758964Y-44626538D01*
X143929997Y-44455505D01*
X144022560Y-44232039D01*
X144022560Y-44113100D01*
X143870560Y-43961100D01*
X143289560Y-43961100D01*
X143289560Y-43985100D01*
X143039560Y-43985100D01*
X143039560Y-43961100D01*
X142458560Y-43961100D01*
X142306560Y-44113100D01*
X142306560Y-44232039D01*
X142397563Y-44451740D01*
X141030440Y-44451740D01*
X141021895Y-44438461D01*
X140968146Y-44401736D01*
X141015919Y-44370995D01*
X141084418Y-44270743D01*
X141108517Y-44151740D01*
X141108517Y-43751740D01*
X141087598Y-43640567D01*
X141021895Y-43538461D01*
X140921643Y-43469962D01*
X140902640Y-43466114D01*
X140902640Y-43205209D01*
X140986239Y-43151415D01*
X141054738Y-43051163D01*
X141078837Y-42932160D01*
X141078837Y-42432160D01*
X141072960Y-42400927D01*
X141072960Y-38332160D01*
X141872960Y-38332160D01*
X141872960Y-42932160D01*
X141895796Y-43046965D01*
X141960828Y-43144292D01*
X142058155Y-43209324D01*
X142172960Y-43232160D01*
X142372006Y-43232160D01*
X142306560Y-43390161D01*
X142306560Y-43509100D01*
X142458560Y-43661100D01*
X143039560Y-43661100D01*
X143039560Y-43637100D01*
X143289560Y-43637100D01*
X143289560Y-43661100D01*
X143870560Y-43661100D01*
X144022560Y-43509100D01*
X144022560Y-43390161D01*
X143929997Y-43166695D01*
X143758964Y-42995662D01*
X143535498Y-42903100D01*
X143441560Y-42903100D01*
X143363142Y-42981518D01*
X143372960Y-42932160D01*
X143372960Y-37532160D01*
X143350124Y-37417355D01*
X143285092Y-37320028D01*
X143187765Y-37254996D01*
X143072960Y-37232160D01*
X138072960Y-37232160D01*
X137958155Y-37254996D01*
X137860828Y-37320028D01*
X137795796Y-37417355D01*
X137772960Y-37532160D01*
X137772960Y-39872160D01*
X136372960Y-39872160D01*
X136372960Y-37532160D01*
X136350124Y-37417355D01*
X136285092Y-37320028D01*
X136187765Y-37254996D01*
X136072960Y-37232160D01*
X133372960Y-37232160D01*
X133258155Y-37254996D01*
X133160828Y-37320028D01*
X133095796Y-37417355D01*
X133072960Y-37532160D01*
X133072960Y-39872160D01*
X131672960Y-39872160D01*
X131672960Y-37532160D01*
X131650124Y-37417355D01*
X131585092Y-37320028D01*
X131487765Y-37254996D01*
X131372960Y-37232160D01*
X128686968Y-37232160D01*
X131251636Y-35518504D01*
X133294123Y-35112228D01*
X133294123Y-35700000D01*
X133315042Y-35811173D01*
X133380745Y-35913279D01*
X133480997Y-35981778D01*
X133600000Y-36005877D01*
X134600000Y-36005877D01*
X134631520Y-35999946D01*
X134849634Y-36178221D01*
X135046249Y-36259646D01*
X135216000Y-36143515D01*
X135216000Y-35354000D01*
X135196000Y-35354000D01*
X135196000Y-35046000D01*
X135216000Y-35046000D01*
X135216000Y-35026000D01*
X135524000Y-35026000D01*
X135524000Y-35046000D01*
X135524000Y-35046000D01*
G37*
X135524000Y-35046000D02*
X135544000Y-35046000D01*
X135544000Y-35354000D01*
X135524000Y-35354000D01*
X135524000Y-36143515D01*
X135693751Y-36259646D01*
X135890366Y-36178221D01*
X136225104Y-35904623D01*
X136234001Y-35888058D01*
X136333853Y-35954777D01*
X136640000Y-36015673D01*
X136946147Y-35954777D01*
X137205685Y-35781358D01*
X137275000Y-35677622D01*
X137344315Y-35781358D01*
X137603853Y-35954777D01*
X137910000Y-36015673D01*
X138216147Y-35954777D01*
X138475685Y-35781358D01*
X138649104Y-35521820D01*
X138710000Y-35215673D01*
X138710000Y-35184327D01*
X138696497Y-35116441D01*
X140717804Y-35518504D01*
X144730318Y-38199580D01*
X147411394Y-42212094D01*
X147975966Y-45050390D01*
X147515910Y-44589530D01*
X146891314Y-44330176D01*
X146215013Y-44329586D01*
X145589965Y-44587850D01*
X145111330Y-45065650D01*
X144851976Y-45690246D01*
X144851386Y-46366547D01*
X145109650Y-46991595D01*
X145587450Y-47470230D01*
X146212046Y-47729584D01*
X146888347Y-47730174D01*
X147513395Y-47471910D01*
X147992030Y-46994110D01*
X148242576Y-46390727D01*
X148359718Y-46979641D01*
X148359718Y-51790030D01*
X144811845Y-48242157D01*
X144682076Y-48155448D01*
X144529002Y-48125000D01*
X139510877Y-48125000D01*
X139510877Y-48000000D01*
X139489958Y-47888827D01*
X139474626Y-47865000D01*
X139887940Y-47865000D01*
X140041014Y-47834552D01*
X140170783Y-47747843D01*
X140481055Y-47437571D01*
X140634164Y-47437704D01*
X140854769Y-47346552D01*
X141023699Y-47177917D01*
X141115236Y-46957471D01*
X141115444Y-46718776D01*
X141024292Y-46498171D01*
X140855657Y-46329241D01*
X140635211Y-46237704D01*
X140396516Y-46237496D01*
X140175911Y-46328648D01*
X140006981Y-46497283D01*
X139915444Y-46717729D01*
X139915310Y-46871945D01*
X139722254Y-47065000D01*
X138624587Y-47065000D01*
X138614958Y-47013827D01*
X138549255Y-46911721D01*
X138449003Y-46843222D01*
X138330000Y-46819123D01*
X138205000Y-46819123D01*
X138205000Y-46365906D01*
X138273105Y-46297800D01*
X138738433Y-46297800D01*
X138846603Y-46406159D01*
X139067049Y-46497696D01*
X139305744Y-46497904D01*
X139526349Y-46406752D01*
X139695279Y-46238117D01*
X139786816Y-46017671D01*
X139787024Y-45778976D01*
X139695872Y-45558371D01*
X139527237Y-45389441D01*
X139306791Y-45297904D01*
X139068096Y-45297696D01*
X138847491Y-45388848D01*
X138738348Y-45497800D01*
X138197885Y-45497800D01*
X138443945Y-45251740D01*
X139974840Y-45251740D01*
X139983385Y-45265019D01*
X140083637Y-45333518D01*
X140202640Y-45357617D01*
X140802640Y-45357617D01*
X140913813Y-45336698D01*
X141015919Y-45270995D01*
X141029075Y-45251740D01*
X142616330Y-45251740D01*
X142629602Y-45322273D01*
X142695305Y-45424379D01*
X142795557Y-45492878D01*
X142914560Y-45516977D01*
X143414560Y-45516977D01*
X143525733Y-45496058D01*
X143627839Y-45430355D01*
X143696338Y-45330103D01*
X143720437Y-45211100D01*
X143720437Y-44642496D01*
X143758964Y-44626538D01*
X143929997Y-44455505D01*
X144022560Y-44232039D01*
X144022560Y-44113100D01*
X143870560Y-43961100D01*
X143289560Y-43961100D01*
X143289560Y-43985100D01*
X143039560Y-43985100D01*
X143039560Y-43961100D01*
X142458560Y-43961100D01*
X142306560Y-44113100D01*
X142306560Y-44232039D01*
X142397563Y-44451740D01*
X141030440Y-44451740D01*
X141021895Y-44438461D01*
X140968146Y-44401736D01*
X141015919Y-44370995D01*
X141084418Y-44270743D01*
X141108517Y-44151740D01*
X141108517Y-43751740D01*
X141087598Y-43640567D01*
X141021895Y-43538461D01*
X140921643Y-43469962D01*
X140902640Y-43466114D01*
X140902640Y-43205209D01*
X140986239Y-43151415D01*
X141054738Y-43051163D01*
X141078837Y-42932160D01*
X141078837Y-42432160D01*
X141072960Y-42400927D01*
X141072960Y-38332160D01*
X141872960Y-38332160D01*
X141872960Y-42932160D01*
X141895796Y-43046965D01*
X141960828Y-43144292D01*
X142058155Y-43209324D01*
X142172960Y-43232160D01*
X142372006Y-43232160D01*
X142306560Y-43390161D01*
X142306560Y-43509100D01*
X142458560Y-43661100D01*
X143039560Y-43661100D01*
X143039560Y-43637100D01*
X143289560Y-43637100D01*
X143289560Y-43661100D01*
X143870560Y-43661100D01*
X144022560Y-43509100D01*
X144022560Y-43390161D01*
X143929997Y-43166695D01*
X143758964Y-42995662D01*
X143535498Y-42903100D01*
X143441560Y-42903100D01*
X143363142Y-42981518D01*
X143372960Y-42932160D01*
X143372960Y-37532160D01*
X143350124Y-37417355D01*
X143285092Y-37320028D01*
X143187765Y-37254996D01*
X143072960Y-37232160D01*
X138072960Y-37232160D01*
X137958155Y-37254996D01*
X137860828Y-37320028D01*
X137795796Y-37417355D01*
X137772960Y-37532160D01*
X137772960Y-39872160D01*
X136372960Y-39872160D01*
X136372960Y-37532160D01*
X136350124Y-37417355D01*
X136285092Y-37320028D01*
X136187765Y-37254996D01*
X136072960Y-37232160D01*
X133372960Y-37232160D01*
X133258155Y-37254996D01*
X133160828Y-37320028D01*
X133095796Y-37417355D01*
X133072960Y-37532160D01*
X133072960Y-39872160D01*
X131672960Y-39872160D01*
X131672960Y-37532160D01*
X131650124Y-37417355D01*
X131585092Y-37320028D01*
X131487765Y-37254996D01*
X131372960Y-37232160D01*
X128686968Y-37232160D01*
X131251636Y-35518504D01*
X133294123Y-35112228D01*
X133294123Y-35700000D01*
X133315042Y-35811173D01*
X133380745Y-35913279D01*
X133480997Y-35981778D01*
X133600000Y-36005877D01*
X134600000Y-36005877D01*
X134631520Y-35999946D01*
X134849634Y-36178221D01*
X135046249Y-36259646D01*
X135216000Y-36143515D01*
X135216000Y-35354000D01*
X135196000Y-35354000D01*
X135196000Y-35046000D01*
X135216000Y-35046000D01*
X135216000Y-35026000D01*
X135524000Y-35026000D01*
X135524000Y-35046000D01*
G36*
X129465042Y-45311173D02*
X129530745Y-45413279D01*
X129630997Y-45481778D01*
X129750000Y-45505877D01*
X130390191Y-45505877D01*
X131537158Y-46652844D01*
X131666927Y-46739553D01*
X131820001Y-46770002D01*
X131820006Y-46770001D01*
X133484315Y-46770001D01*
X133560022Y-46845708D01*
X133466721Y-46905745D01*
X133398222Y-47005997D01*
X133386273Y-47065000D01*
X132373191Y-47065000D01*
X132329255Y-46996721D01*
X132229003Y-46928222D01*
X132110000Y-46904123D01*
X131541396Y-46904123D01*
X131525438Y-46865596D01*
X131354405Y-46694563D01*
X131130939Y-46602000D01*
X131012000Y-46602000D01*
X130860000Y-46754000D01*
X130860000Y-47335000D01*
X130884000Y-47335000D01*
X130884000Y-47585000D01*
X130860000Y-47585000D01*
X130860000Y-48166000D01*
X131012000Y-48318000D01*
X131130939Y-48318000D01*
X131354405Y-48225437D01*
X131525438Y-48054404D01*
X131541396Y-48015877D01*
X132110000Y-48015877D01*
X132221173Y-47994958D01*
X132323279Y-47929255D01*
X132367182Y-47865000D01*
X132534152Y-47865000D01*
X132523222Y-47880997D01*
X132499123Y-48000000D01*
X132499123Y-48250000D01*
X132513754Y-48327753D01*
X132499123Y-48400000D01*
X132499123Y-48650000D01*
X132513754Y-48727753D01*
X132499123Y-48800000D01*
X132499123Y-49050000D01*
X132513754Y-49127753D01*
X132499123Y-49200000D01*
X132499123Y-49450000D01*
X132513754Y-49527753D01*
X132499123Y-49600000D01*
X132499123Y-49850000D01*
X132513754Y-49927753D01*
X132499123Y-50000000D01*
X132499123Y-50250000D01*
X132513754Y-50327753D01*
X132499123Y-50400000D01*
X132499123Y-50650000D01*
X132502370Y-50667259D01*
X132460596Y-50684562D01*
X132289563Y-50855595D01*
X132197000Y-51079061D01*
X132197000Y-51110500D01*
X132257498Y-51170998D01*
X132197000Y-51170998D01*
X132197000Y-51301314D01*
X130155877Y-49260191D01*
X130155877Y-48320000D01*
X130144211Y-48258001D01*
X130289061Y-48318000D01*
X130408000Y-48318000D01*
X130560000Y-48166000D01*
X130560000Y-47585000D01*
X129954000Y-47585000D01*
X129802000Y-47737000D01*
X129802000Y-47830938D01*
X129880430Y-48020285D01*
X129850000Y-48014123D01*
X128950000Y-48014123D01*
X128838827Y-48035042D01*
X128736721Y-48100745D01*
X128668222Y-48200997D01*
X128644123Y-48320000D01*
X128644123Y-48520000D01*
X128530877Y-48520000D01*
X128530877Y-47810000D01*
X128509958Y-47698827D01*
X128485182Y-47660324D01*
X128569404Y-47625438D01*
X128740437Y-47454405D01*
X128833000Y-47230939D01*
X128833000Y-47089062D01*
X129802000Y-47089062D01*
X129802000Y-47183000D01*
X129954000Y-47335000D01*
X130560000Y-47335000D01*
X130560000Y-46754000D01*
X130408000Y-46602000D01*
X130289061Y-46602000D01*
X130065595Y-46694563D01*
X129894562Y-46865596D01*
X129802000Y-47089062D01*
X128833000Y-47089062D01*
X128833000Y-46816000D01*
X128681000Y-46664000D01*
X128004000Y-46664000D01*
X128004000Y-46684000D01*
X127696000Y-46684000D01*
X127696000Y-46664000D01*
X127676000Y-46664000D01*
X127676000Y-46356000D01*
X127696000Y-46356000D01*
X127696000Y-46336000D01*
X128004000Y-46336000D01*
X128004000Y-46356000D01*
X128681000Y-46356000D01*
X128833000Y-46204000D01*
X128833000Y-45789061D01*
X128740437Y-45565595D01*
X128575854Y-45401012D01*
X128661173Y-45384958D01*
X128763279Y-45319255D01*
X128831778Y-45219003D01*
X128835626Y-45200000D01*
X129444123Y-45200000D01*
X129465042Y-45311173D01*
X129465042Y-45311173D01*
G37*
X129465042Y-45311173D02*
X129530745Y-45413279D01*
X129630997Y-45481778D01*
X129750000Y-45505877D01*
X130390191Y-45505877D01*
X131537158Y-46652844D01*
X131666927Y-46739553D01*
X131820001Y-46770002D01*
X131820006Y-46770001D01*
X133484315Y-46770001D01*
X133560022Y-46845708D01*
X133466721Y-46905745D01*
X133398222Y-47005997D01*
X133386273Y-47065000D01*
X132373191Y-47065000D01*
X132329255Y-46996721D01*
X132229003Y-46928222D01*
X132110000Y-46904123D01*
X131541396Y-46904123D01*
X131525438Y-46865596D01*
X131354405Y-46694563D01*
X131130939Y-46602000D01*
X131012000Y-46602000D01*
X130860000Y-46754000D01*
X130860000Y-47335000D01*
X130884000Y-47335000D01*
X130884000Y-47585000D01*
X130860000Y-47585000D01*
X130860000Y-48166000D01*
X131012000Y-48318000D01*
X131130939Y-48318000D01*
X131354405Y-48225437D01*
X131525438Y-48054404D01*
X131541396Y-48015877D01*
X132110000Y-48015877D01*
X132221173Y-47994958D01*
X132323279Y-47929255D01*
X132367182Y-47865000D01*
X132534152Y-47865000D01*
X132523222Y-47880997D01*
X132499123Y-48000000D01*
X132499123Y-48250000D01*
X132513754Y-48327753D01*
X132499123Y-48400000D01*
X132499123Y-48650000D01*
X132513754Y-48727753D01*
X132499123Y-48800000D01*
X132499123Y-49050000D01*
X132513754Y-49127753D01*
X132499123Y-49200000D01*
X132499123Y-49450000D01*
X132513754Y-49527753D01*
X132499123Y-49600000D01*
X132499123Y-49850000D01*
X132513754Y-49927753D01*
X132499123Y-50000000D01*
X132499123Y-50250000D01*
X132513754Y-50327753D01*
X132499123Y-50400000D01*
X132499123Y-50650000D01*
X132502370Y-50667259D01*
X132460596Y-50684562D01*
X132289563Y-50855595D01*
X132197000Y-51079061D01*
X132197000Y-51110500D01*
X132257498Y-51170998D01*
X132197000Y-51170998D01*
X132197000Y-51301314D01*
X130155877Y-49260191D01*
X130155877Y-48320000D01*
X130144211Y-48258001D01*
X130289061Y-48318000D01*
X130408000Y-48318000D01*
X130560000Y-48166000D01*
X130560000Y-47585000D01*
X129954000Y-47585000D01*
X129802000Y-47737000D01*
X129802000Y-47830938D01*
X129880430Y-48020285D01*
X129850000Y-48014123D01*
X128950000Y-48014123D01*
X128838827Y-48035042D01*
X128736721Y-48100745D01*
X128668222Y-48200997D01*
X128644123Y-48320000D01*
X128644123Y-48520000D01*
X128530877Y-48520000D01*
X128530877Y-47810000D01*
X128509958Y-47698827D01*
X128485182Y-47660324D01*
X128569404Y-47625438D01*
X128740437Y-47454405D01*
X128833000Y-47230939D01*
X128833000Y-47089062D01*
X129802000Y-47089062D01*
X129802000Y-47183000D01*
X129954000Y-47335000D01*
X130560000Y-47335000D01*
X130560000Y-46754000D01*
X130408000Y-46602000D01*
X130289061Y-46602000D01*
X130065595Y-46694563D01*
X129894562Y-46865596D01*
X129802000Y-47089062D01*
X128833000Y-47089062D01*
X128833000Y-46816000D01*
X128681000Y-46664000D01*
X128004000Y-46664000D01*
X128004000Y-46684000D01*
X127696000Y-46684000D01*
X127696000Y-46664000D01*
X127676000Y-46664000D01*
X127676000Y-46356000D01*
X127696000Y-46356000D01*
X127696000Y-46336000D01*
X128004000Y-46336000D01*
X128004000Y-46356000D01*
X128681000Y-46356000D01*
X128833000Y-46204000D01*
X128833000Y-45789061D01*
X128740437Y-45565595D01*
X128575854Y-45401012D01*
X128661173Y-45384958D01*
X128763279Y-45319255D01*
X128831778Y-45219003D01*
X128835626Y-45200000D01*
X129444123Y-45200000D01*
X129465042Y-45311173D01*
G36*
X136159000Y-50171000D02*
X136179000Y-50171000D01*
X136179000Y-50479000D01*
X136159000Y-50479000D01*
X136159000Y-50499000D01*
X135851000Y-50499000D01*
X135851000Y-50479000D01*
X135831000Y-50479000D01*
X135831000Y-50171000D01*
X135851000Y-50171000D01*
X135851000Y-50151000D01*
X136159000Y-50151000D01*
X136159000Y-50171000D01*
X136159000Y-50171000D01*
G37*
X136159000Y-50171000D02*
X136179000Y-50171000D01*
X136179000Y-50479000D01*
X136159000Y-50479000D01*
X136159000Y-50499000D01*
X135851000Y-50499000D01*
X135851000Y-50479000D01*
X135831000Y-50479000D01*
X135831000Y-50171000D01*
X135851000Y-50171000D01*
X135851000Y-50151000D01*
X136159000Y-50151000D01*
X136159000Y-50171000D01*
G36*
X128372960Y-37532160D02*
X128372960Y-41972160D01*
X128395796Y-42086965D01*
X128460828Y-42184292D01*
X128558155Y-42249324D01*
X128672960Y-42272160D01*
X129172960Y-42272160D01*
X129287765Y-42249324D01*
X129385092Y-42184292D01*
X129450124Y-42086965D01*
X129472960Y-41972160D01*
X129472960Y-38332160D01*
X130572960Y-38332160D01*
X130572960Y-40672160D01*
X130595796Y-40786965D01*
X130660828Y-40884292D01*
X130758155Y-40949324D01*
X130872960Y-40972160D01*
X133872960Y-40972160D01*
X133987765Y-40949324D01*
X134085092Y-40884292D01*
X134150124Y-40786965D01*
X134172960Y-40672160D01*
X134172960Y-38332160D01*
X135272960Y-38332160D01*
X135272960Y-40672160D01*
X135295796Y-40786965D01*
X135360828Y-40884292D01*
X135458155Y-40949324D01*
X135572960Y-40972160D01*
X138572960Y-40972160D01*
X138687765Y-40949324D01*
X138785092Y-40884292D01*
X138850124Y-40786965D01*
X138872960Y-40672160D01*
X138872960Y-38332160D01*
X139972960Y-38332160D01*
X139972960Y-42403139D01*
X139967083Y-42432160D01*
X139967083Y-42932160D01*
X139988002Y-43043333D01*
X140053705Y-43145439D01*
X140102640Y-43178875D01*
X140102640Y-43464680D01*
X140091467Y-43466782D01*
X139989361Y-43532485D01*
X139920862Y-43632737D01*
X139896763Y-43751740D01*
X139896763Y-44151740D01*
X139917682Y-44262913D01*
X139983385Y-44365019D01*
X140037134Y-44401744D01*
X139989361Y-44432485D01*
X139976205Y-44451740D01*
X138278260Y-44451740D01*
X138125187Y-44482188D01*
X137995417Y-44568897D01*
X137995415Y-44568900D01*
X136047314Y-46517000D01*
X136019500Y-46517000D01*
X135900671Y-46635829D01*
X135874404Y-46609562D01*
X135650938Y-46517000D01*
X135619500Y-46517000D01*
X135605000Y-46531500D01*
X135590500Y-46517000D01*
X135559062Y-46517000D01*
X135405000Y-46580814D01*
X135405000Y-45415877D01*
X135540000Y-45415877D01*
X135651173Y-45394958D01*
X135753279Y-45329255D01*
X135821778Y-45229003D01*
X135845877Y-45110000D01*
X135845877Y-44541396D01*
X135884404Y-44525438D01*
X136055437Y-44354405D01*
X136148000Y-44130939D01*
X136148000Y-44012000D01*
X135996000Y-43860000D01*
X135415000Y-43860000D01*
X135415000Y-43884000D01*
X135165000Y-43884000D01*
X135165000Y-43860000D01*
X134584000Y-43860000D01*
X134464843Y-43979157D01*
X133902843Y-43417157D01*
X133773074Y-43330448D01*
X133710446Y-43317991D01*
X133705003Y-43289061D01*
X134432000Y-43289061D01*
X134432000Y-43408000D01*
X134584000Y-43560000D01*
X135165000Y-43560000D01*
X135165000Y-42954000D01*
X135415000Y-42954000D01*
X135415000Y-43560000D01*
X135996000Y-43560000D01*
X136148000Y-43408000D01*
X136148000Y-43289061D01*
X136055437Y-43065595D01*
X135884404Y-42894562D01*
X135660938Y-42802000D01*
X135567000Y-42802000D01*
X135415000Y-42954000D01*
X135165000Y-42954000D01*
X135013000Y-42802000D01*
X134919062Y-42802000D01*
X134695596Y-42894562D01*
X134524563Y-43065595D01*
X134432000Y-43289061D01*
X133705003Y-43289061D01*
X133704958Y-43288827D01*
X133639255Y-43186721D01*
X133539003Y-43118222D01*
X133420000Y-43094123D01*
X132920000Y-43094123D01*
X132808827Y-43115042D01*
X132706721Y-43180745D01*
X132638222Y-43280997D01*
X132634374Y-43300000D01*
X132355877Y-43300000D01*
X132334958Y-43188827D01*
X132269255Y-43086721D01*
X132169003Y-43018222D01*
X132050000Y-42994123D01*
X131181396Y-42994123D01*
X131165438Y-42955596D01*
X130994405Y-42784563D01*
X130770939Y-42692000D01*
X130506000Y-42692000D01*
X130354000Y-42844000D01*
X130354000Y-43546000D01*
X130374000Y-43546000D01*
X130374000Y-43854000D01*
X130354000Y-43854000D01*
X130354000Y-43874000D01*
X130046000Y-43874000D01*
X130046000Y-43854000D01*
X129294000Y-43854000D01*
X129152000Y-43996000D01*
X129006000Y-43850000D01*
X128425000Y-43850000D01*
X128425000Y-43874000D01*
X128175000Y-43874000D01*
X128175000Y-43850000D01*
X127594000Y-43850000D01*
X127442000Y-44002000D01*
X127442000Y-44120939D01*
X127534563Y-44344405D01*
X127705596Y-44515438D01*
X127744123Y-44531396D01*
X127744123Y-45100000D01*
X127765042Y-45211173D01*
X127823487Y-45302000D01*
X127695998Y-45302000D01*
X127695998Y-45453998D01*
X127544000Y-45302000D01*
X127354062Y-45302000D01*
X127130596Y-45394562D01*
X127051327Y-45473831D01*
X126883710Y-45068165D01*
X126405910Y-44589530D01*
X125781314Y-44330176D01*
X125105013Y-44329586D01*
X124479965Y-44587850D01*
X124001330Y-45065650D01*
X123980424Y-45115998D01*
X124345813Y-43279061D01*
X127442000Y-43279061D01*
X127442000Y-43398000D01*
X127594000Y-43550000D01*
X128175000Y-43550000D01*
X128175000Y-42944000D01*
X128425000Y-42944000D01*
X128425000Y-43550000D01*
X129006000Y-43550000D01*
X129152000Y-43404000D01*
X129294000Y-43546000D01*
X130046000Y-43546000D01*
X130046000Y-42844000D01*
X129894000Y-42692000D01*
X129629061Y-42692000D01*
X129405595Y-42784563D01*
X129234562Y-42955596D01*
X129142000Y-43179062D01*
X129142000Y-43240434D01*
X129065437Y-43055595D01*
X128894404Y-42884562D01*
X128670938Y-42792000D01*
X128577000Y-42792000D01*
X128425000Y-42944000D01*
X128175000Y-42944000D01*
X128023000Y-42792000D01*
X127929062Y-42792000D01*
X127705596Y-42884562D01*
X127534563Y-43055595D01*
X127442000Y-43279061D01*
X124345813Y-43279061D01*
X124558046Y-42212094D01*
X127239122Y-38199580D01*
X128393649Y-37428150D01*
X128372960Y-37532160D01*
X128372960Y-37532160D01*
G37*
X128372960Y-37532160D02*
X128372960Y-41972160D01*
X128395796Y-42086965D01*
X128460828Y-42184292D01*
X128558155Y-42249324D01*
X128672960Y-42272160D01*
X129172960Y-42272160D01*
X129287765Y-42249324D01*
X129385092Y-42184292D01*
X129450124Y-42086965D01*
X129472960Y-41972160D01*
X129472960Y-38332160D01*
X130572960Y-38332160D01*
X130572960Y-40672160D01*
X130595796Y-40786965D01*
X130660828Y-40884292D01*
X130758155Y-40949324D01*
X130872960Y-40972160D01*
X133872960Y-40972160D01*
X133987765Y-40949324D01*
X134085092Y-40884292D01*
X134150124Y-40786965D01*
X134172960Y-40672160D01*
X134172960Y-38332160D01*
X135272960Y-38332160D01*
X135272960Y-40672160D01*
X135295796Y-40786965D01*
X135360828Y-40884292D01*
X135458155Y-40949324D01*
X135572960Y-40972160D01*
X138572960Y-40972160D01*
X138687765Y-40949324D01*
X138785092Y-40884292D01*
X138850124Y-40786965D01*
X138872960Y-40672160D01*
X138872960Y-38332160D01*
X139972960Y-38332160D01*
X139972960Y-42403139D01*
X139967083Y-42432160D01*
X139967083Y-42932160D01*
X139988002Y-43043333D01*
X140053705Y-43145439D01*
X140102640Y-43178875D01*
X140102640Y-43464680D01*
X140091467Y-43466782D01*
X139989361Y-43532485D01*
X139920862Y-43632737D01*
X139896763Y-43751740D01*
X139896763Y-44151740D01*
X139917682Y-44262913D01*
X139983385Y-44365019D01*
X140037134Y-44401744D01*
X139989361Y-44432485D01*
X139976205Y-44451740D01*
X138278260Y-44451740D01*
X138125187Y-44482188D01*
X137995417Y-44568897D01*
X137995415Y-44568900D01*
X136047314Y-46517000D01*
X136019500Y-46517000D01*
X135900671Y-46635829D01*
X135874404Y-46609562D01*
X135650938Y-46517000D01*
X135619500Y-46517000D01*
X135605000Y-46531500D01*
X135590500Y-46517000D01*
X135559062Y-46517000D01*
X135405000Y-46580814D01*
X135405000Y-45415877D01*
X135540000Y-45415877D01*
X135651173Y-45394958D01*
X135753279Y-45329255D01*
X135821778Y-45229003D01*
X135845877Y-45110000D01*
X135845877Y-44541396D01*
X135884404Y-44525438D01*
X136055437Y-44354405D01*
X136148000Y-44130939D01*
X136148000Y-44012000D01*
X135996000Y-43860000D01*
X135415000Y-43860000D01*
X135415000Y-43884000D01*
X135165000Y-43884000D01*
X135165000Y-43860000D01*
X134584000Y-43860000D01*
X134464843Y-43979157D01*
X133902843Y-43417157D01*
X133773074Y-43330448D01*
X133710446Y-43317991D01*
X133705003Y-43289061D01*
X134432000Y-43289061D01*
X134432000Y-43408000D01*
X134584000Y-43560000D01*
X135165000Y-43560000D01*
X135165000Y-42954000D01*
X135415000Y-42954000D01*
X135415000Y-43560000D01*
X135996000Y-43560000D01*
X136148000Y-43408000D01*
X136148000Y-43289061D01*
X136055437Y-43065595D01*
X135884404Y-42894562D01*
X135660938Y-42802000D01*
X135567000Y-42802000D01*
X135415000Y-42954000D01*
X135165000Y-42954000D01*
X135013000Y-42802000D01*
X134919062Y-42802000D01*
X134695596Y-42894562D01*
X134524563Y-43065595D01*
X134432000Y-43289061D01*
X133705003Y-43289061D01*
X133704958Y-43288827D01*
X133639255Y-43186721D01*
X133539003Y-43118222D01*
X133420000Y-43094123D01*
X132920000Y-43094123D01*
X132808827Y-43115042D01*
X132706721Y-43180745D01*
X132638222Y-43280997D01*
X132634374Y-43300000D01*
X132355877Y-43300000D01*
X132334958Y-43188827D01*
X132269255Y-43086721D01*
X132169003Y-43018222D01*
X132050000Y-42994123D01*
X131181396Y-42994123D01*
X131165438Y-42955596D01*
X130994405Y-42784563D01*
X130770939Y-42692000D01*
X130506000Y-42692000D01*
X130354000Y-42844000D01*
X130354000Y-43546000D01*
X130374000Y-43546000D01*
X130374000Y-43854000D01*
X130354000Y-43854000D01*
X130354000Y-43874000D01*
X130046000Y-43874000D01*
X130046000Y-43854000D01*
X129294000Y-43854000D01*
X129152000Y-43996000D01*
X129006000Y-43850000D01*
X128425000Y-43850000D01*
X128425000Y-43874000D01*
X128175000Y-43874000D01*
X128175000Y-43850000D01*
X127594000Y-43850000D01*
X127442000Y-44002000D01*
X127442000Y-44120939D01*
X127534563Y-44344405D01*
X127705596Y-44515438D01*
X127744123Y-44531396D01*
X127744123Y-45100000D01*
X127765042Y-45211173D01*
X127823487Y-45302000D01*
X127695998Y-45302000D01*
X127695998Y-45453998D01*
X127544000Y-45302000D01*
X127354062Y-45302000D01*
X127130596Y-45394562D01*
X127051327Y-45473831D01*
X126883710Y-45068165D01*
X126405910Y-44589530D01*
X125781314Y-44330176D01*
X125105013Y-44329586D01*
X124479965Y-44587850D01*
X124001330Y-45065650D01*
X123980424Y-45115998D01*
X124345813Y-43279061D01*
X127442000Y-43279061D01*
X127442000Y-43398000D01*
X127594000Y-43550000D01*
X128175000Y-43550000D01*
X128175000Y-42944000D01*
X128425000Y-42944000D01*
X128425000Y-43550000D01*
X129006000Y-43550000D01*
X129152000Y-43404000D01*
X129294000Y-43546000D01*
X130046000Y-43546000D01*
X130046000Y-42844000D01*
X129894000Y-42692000D01*
X129629061Y-42692000D01*
X129405595Y-42784563D01*
X129234562Y-42955596D01*
X129142000Y-43179062D01*
X129142000Y-43240434D01*
X129065437Y-43055595D01*
X128894404Y-42884562D01*
X128670938Y-42792000D01*
X128577000Y-42792000D01*
X128425000Y-42944000D01*
X128175000Y-42944000D01*
X128023000Y-42792000D01*
X127929062Y-42792000D01*
X127705596Y-42884562D01*
X127534563Y-43055595D01*
X127442000Y-43279061D01*
X124345813Y-43279061D01*
X124558046Y-42212094D01*
X127239122Y-38199580D01*
X128393649Y-37428150D01*
X128372960Y-37532160D01*
G36*
X134205000Y-44850685D02*
X134205000Y-46359314D01*
X133932844Y-46087158D01*
X133803075Y-46000449D01*
X133650001Y-45970001D01*
X131985687Y-45970001D01*
X131754002Y-45738316D01*
X131754002Y-45656002D01*
X131906000Y-45808000D01*
X132170939Y-45808000D01*
X132394405Y-45715437D01*
X132535000Y-45574842D01*
X132575596Y-45615438D01*
X132799062Y-45708000D01*
X132893000Y-45708000D01*
X133045000Y-45556000D01*
X133045000Y-44950000D01*
X133295000Y-44950000D01*
X133295000Y-45556000D01*
X133447000Y-45708000D01*
X133540938Y-45708000D01*
X133764404Y-45615438D01*
X133935437Y-45444405D01*
X134028000Y-45220939D01*
X134028000Y-45102000D01*
X133876000Y-44950000D01*
X133295000Y-44950000D01*
X133045000Y-44950000D01*
X132464000Y-44950000D01*
X132460000Y-44954000D01*
X131754000Y-44954000D01*
X131754000Y-44974000D01*
X131446000Y-44974000D01*
X131446000Y-44954000D01*
X131426000Y-44954000D01*
X131426000Y-44646000D01*
X131446000Y-44646000D01*
X131446000Y-44626000D01*
X131754000Y-44626000D01*
X131754000Y-44646000D01*
X132460000Y-44646000D01*
X132464000Y-44650000D01*
X133045000Y-44650000D01*
X133045000Y-44626000D01*
X133295000Y-44626000D01*
X133295000Y-44650000D01*
X133876000Y-44650000D01*
X133940157Y-44585843D01*
X134205000Y-44850685D01*
X134205000Y-44850685D01*
G37*
X134205000Y-44850685D02*
X134205000Y-46359314D01*
X133932844Y-46087158D01*
X133803075Y-46000449D01*
X133650001Y-45970001D01*
X131985687Y-45970001D01*
X131754002Y-45738316D01*
X131754002Y-45656002D01*
X131906000Y-45808000D01*
X132170939Y-45808000D01*
X132394405Y-45715437D01*
X132535000Y-45574842D01*
X132575596Y-45615438D01*
X132799062Y-45708000D01*
X132893000Y-45708000D01*
X133045000Y-45556000D01*
X133045000Y-44950000D01*
X133295000Y-44950000D01*
X133295000Y-45556000D01*
X133447000Y-45708000D01*
X133540938Y-45708000D01*
X133764404Y-45615438D01*
X133935437Y-45444405D01*
X134028000Y-45220939D01*
X134028000Y-45102000D01*
X133876000Y-44950000D01*
X133295000Y-44950000D01*
X133045000Y-44950000D01*
X132464000Y-44950000D01*
X132460000Y-44954000D01*
X131754000Y-44954000D01*
X131754000Y-44974000D01*
X131446000Y-44974000D01*
X131446000Y-44954000D01*
X131426000Y-44954000D01*
X131426000Y-44646000D01*
X131446000Y-44646000D01*
X131446000Y-44626000D01*
X131754000Y-44626000D01*
X131754000Y-44646000D01*
X132460000Y-44646000D01*
X132464000Y-44650000D01*
X133045000Y-44650000D01*
X133045000Y-44626000D01*
X133295000Y-44626000D01*
X133295000Y-44650000D01*
X133876000Y-44650000D01*
X133940157Y-44585843D01*
X134205000Y-44850685D01*
M02*
