M48
;DRILL file {KiCad 4.0.7} date 2018 May 15, Tuesday 19:28:00
;FORMAT={-:-/ absolute / inch / decimal}
FMAT,2
INCH,TZ
T1C0.012
T2C0.016
T3C0.024
T4C0.026
T5C0.033
T6C0.073
%
G90
G05
M72
T1
X5.6151Y-1.6804
T2
X3.978Y-3.3591
X4.4075Y-3.452
X4.4075Y-3.8969
X4.5Y-3.0384
X4.5118Y-3.665
X4.5824Y-3.1238
X4.8843Y-1.8854
X4.9055Y-1.7291
X4.9102Y-1.6717
X4.9138Y-2.0142
X4.9204Y-2.3283
X4.9421Y-2.0787
X4.976Y-1.6335
X4.976Y-1.7075
X4.9898Y-2.1161
X5.0055Y-1.5622
X5.0269Y-2.3267
X5.0762Y-2.1023
X5.0823Y-1.722
X5.1087Y-1.8295
X5.1764Y-1.9681
X5.1768Y-1.9102
X5.1795Y-1.4067
X5.2303Y-1.7996
X5.2378Y-1.4354
X5.2858Y-2.0445
X5.2862Y-1.9594
X5.2862Y-2.0035
X5.2866Y-1.9268
X5.3315Y-1.9594
X5.3315Y-2.0035
X5.3315Y-2.0437
X5.3327Y-1.9268
X5.3543Y-1.8118
X5.3768Y-1.9594
X5.3768Y-2.0035
X5.3768Y-2.0437
X5.3772Y-1.9268
X5.3886Y-1.6988
X5.422Y-1.9268
X5.422Y-1.9594
X5.422Y-2.0035
X5.422Y-2.0437
X5.4539Y-1.7154
X5.4798Y-1.807
X5.49Y-1.39
X5.5197Y-1.8886
X5.5321Y-1.844
X5.55Y-1.42
X5.5563Y-2.115
X5.561Y-2.0425
X5.5898Y-1.7268
X5.5961Y-1.815
X5.6197Y-1.872
X5.6594Y-2.1161
X5.6748Y-1.8051
X5.6846Y-1.8713
X5.6878Y-1.6161
X5.6894Y-2.335
X5.6913Y-1.5614
X5.6921Y-2.2504
X5.711Y-1.7
X5.7366Y-1.6382
X5.75Y-2.1862
X5.752Y-2.2618
X5.7551Y-2.3516
X5.7949Y-1.6976
X5.8268Y-1.8811
X6.0205Y-3.5886
X6.3181Y-3.7402
X6.3252Y-3.8756
T4
X5.2795Y-1.3858
X5.3295Y-1.3858
X5.3795Y-1.3858
X5.4295Y-1.3858
T5
X4.1108Y-3.5112
X4.2092Y-3.6817
T6
X4.1997Y-3.0919
X4.6153Y-3.8116
X4.9386Y-1.8122
X5.7698Y-1.8122
X6.0847Y-3.8122
X6.5003Y-3.0925
T3
X3.9871Y-3.5371G85X4.011Y-3.5234
G05
X4.1488Y-3.762G85X4.1249Y-3.7758
G05
T0
M30
