G04 #@! TF.FileFunction,Legend,Top*
%FSLAX46Y46*%
G04 Gerber Fmt 4.6, Leading zero omitted, Abs format (unit mm)*
G04 Created by KiCad (PCBNEW 4.0.7) date 2018 May 15, Tuesday 19:27:55*
%MOMM*%
%LPD*%
G01*
G04 APERTURE LIST*
%ADD10C,0.100000*%
%ADD11C,0.120000*%
%ADD12C,0.150000*%
%ADD13C,0.075000*%
G04 APERTURE END LIST*
D10*
D11*
X142694560Y-44111100D02*
X142694560Y-44611100D01*
X143634560Y-44611100D02*
X143634560Y-44111100D01*
X131510000Y-46990000D02*
X131010000Y-46990000D01*
X131010000Y-47930000D02*
X131510000Y-47930000D01*
X127897180Y-50891960D02*
X127897180Y-51591960D01*
X126697180Y-51591960D02*
X126697180Y-50891960D01*
X130389820Y-53746500D02*
X130889820Y-53746500D01*
X130889820Y-52806500D02*
X130389820Y-52806500D01*
X134820000Y-44010000D02*
X134820000Y-44510000D01*
X135760000Y-44510000D02*
X135760000Y-44010000D01*
X128450000Y-47110000D02*
X128450000Y-47810000D01*
X127250000Y-47810000D02*
X127250000Y-47110000D01*
X125434280Y-55544820D02*
X125934280Y-55544820D01*
X125934280Y-54604820D02*
X125434280Y-54604820D01*
X133640000Y-44500000D02*
X133640000Y-44000000D01*
X132700000Y-44000000D02*
X132700000Y-44500000D01*
X125444440Y-58034020D02*
X125944440Y-58034020D01*
X125944440Y-57094020D02*
X125444440Y-57094020D01*
X127830000Y-44000000D02*
X127830000Y-44500000D01*
X128770000Y-44500000D02*
X128770000Y-44000000D01*
X107449515Y-85470997D02*
X109181565Y-84470997D01*
X109181565Y-84470997D02*
X107231565Y-81093498D01*
X107449515Y-85470997D02*
X105499515Y-82093498D01*
X154531426Y-86765006D02*
X155484054Y-87315006D01*
X155484054Y-87315006D02*
X156784054Y-85063340D01*
X154531426Y-86765006D02*
X155831426Y-84513340D01*
X156267426Y-87760814D02*
X157220054Y-88310814D01*
X157220054Y-88310814D02*
X158520054Y-86059148D01*
X156267426Y-87760814D02*
X157567426Y-85509148D01*
X157994626Y-88771734D02*
X158947254Y-89321734D01*
X158947254Y-89321734D02*
X160247254Y-87070068D01*
X157994626Y-88771734D02*
X159294626Y-86520068D01*
X159725726Y-89777446D02*
X160678354Y-90327446D01*
X160678354Y-90327446D02*
X161978354Y-88075780D01*
X159725726Y-89777446D02*
X161025726Y-87525780D01*
X161455466Y-90778206D02*
X162408094Y-91328206D01*
X162408094Y-91328206D02*
X163708094Y-89076540D01*
X161455466Y-90778206D02*
X162755466Y-88526540D01*
X163195366Y-91796746D02*
X164147994Y-92346746D01*
X164147994Y-92346746D02*
X165447994Y-90095080D01*
X163195366Y-91796746D02*
X164495366Y-89545080D01*
X164922566Y-92802846D02*
X165875194Y-93352846D01*
X165875194Y-93352846D02*
X167175194Y-91101180D01*
X164922566Y-92802846D02*
X166222566Y-90551180D01*
X166653126Y-93802846D02*
X167605754Y-94352846D01*
X167605754Y-94352846D02*
X168905754Y-92101180D01*
X166653126Y-93802846D02*
X167953126Y-91551180D01*
X141032640Y-44651740D02*
X141032640Y-44151740D01*
X139972640Y-44151740D02*
X139972640Y-44651740D01*
X111576821Y-80686680D02*
X112041821Y-81492083D01*
X113156821Y-83423320D02*
X112691821Y-82617917D01*
X113156821Y-83423320D02*
X115893461Y-81843320D01*
X111576821Y-80686680D02*
X112841218Y-79956680D01*
X132764140Y-62028460D02*
X132764140Y-61998460D01*
X132764140Y-55568460D02*
X132764140Y-55598460D01*
X139224140Y-55568460D02*
X139224140Y-55598460D01*
X139224140Y-61998460D02*
X139224140Y-62028460D01*
X132764140Y-60098460D02*
X132764140Y-57498460D01*
X139224140Y-62028460D02*
X132764140Y-62028460D01*
X139224140Y-60098460D02*
X139224140Y-57498460D01*
X139224140Y-55568460D02*
X132764140Y-55568460D01*
X132885000Y-53445000D02*
X132885000Y-52875000D01*
X133505000Y-47205000D02*
X132885000Y-47205000D01*
X139125000Y-47775000D02*
X139125000Y-47205000D01*
X139125000Y-47205000D02*
X138555000Y-47205000D01*
X139125000Y-52875000D02*
X139125000Y-53445000D01*
X139125000Y-53445000D02*
X138555000Y-53445000D01*
X132885000Y-47775000D02*
X132885000Y-47205000D01*
X116591257Y-86779361D02*
X118150103Y-85879361D01*
X116540103Y-83090759D02*
X114418341Y-84315759D01*
X116437949Y-77191577D02*
X117996795Y-76291577D01*
X116386795Y-73502975D02*
X114265033Y-74727975D01*
D12*
X159784140Y-75402860D02*
X155384140Y-75402860D01*
X161359140Y-80927860D02*
X155384140Y-80927860D01*
D11*
X129462500Y-57009980D02*
X129462500Y-55659980D01*
X127712500Y-57009980D02*
X127712500Y-55659980D01*
X132250000Y-45400000D02*
X132250000Y-43100000D01*
X132250000Y-43100000D02*
X129550000Y-43100000D01*
X128720000Y-50520000D02*
X128720000Y-49520000D01*
X130080000Y-49520000D02*
X130080000Y-50520000D01*
X157992973Y-82881774D02*
X158242973Y-82448762D01*
X157324987Y-81918762D02*
X157074987Y-82351774D01*
X159735413Y-83874914D02*
X159985413Y-83441902D01*
X159067427Y-82911902D02*
X158817427Y-83344914D01*
X161470233Y-84880754D02*
X161720233Y-84447742D01*
X160802247Y-83917742D02*
X160552247Y-84350754D01*
X163203873Y-85886466D02*
X163453873Y-85453454D01*
X162535887Y-84923454D02*
X162285887Y-85356466D01*
X164928533Y-86884686D02*
X165178533Y-86451674D01*
X164260547Y-85921674D02*
X164010547Y-86354686D01*
X166672333Y-87898018D02*
X166922333Y-87465006D01*
X166004347Y-86935006D02*
X165754347Y-87368018D01*
X168396993Y-88906398D02*
X168646993Y-88473386D01*
X167729007Y-87943386D02*
X167479007Y-88376398D01*
X170129273Y-89902078D02*
X170379273Y-89469066D01*
X169461287Y-88939066D02*
X169211287Y-89372078D01*
X110079649Y-86054375D02*
X109473431Y-86404375D01*
X108873431Y-85365145D02*
X109479649Y-85015145D01*
X119904615Y-87406891D02*
X120254615Y-88013109D01*
X119215385Y-88613109D02*
X118865385Y-88006891D01*
X112466354Y-79039513D02*
X112899366Y-78789513D01*
X112369366Y-77871527D02*
X111936354Y-78121527D01*
X113324847Y-86474534D02*
X113574847Y-86907546D01*
X114492833Y-86377546D02*
X114242833Y-85944534D01*
X140250000Y-53960000D02*
X139750000Y-53960000D01*
X139750000Y-55020000D02*
X140250000Y-55020000D01*
X130542440Y-59701240D02*
X130542440Y-59201240D01*
X129482440Y-59201240D02*
X129482440Y-59701240D01*
X112829133Y-74558926D02*
X112579133Y-74125914D01*
X111661147Y-74655914D02*
X111911147Y-75088926D01*
X119260413Y-73586106D02*
X119010413Y-73153094D01*
X118092427Y-73683094D02*
X118342427Y-74116106D01*
X150123993Y-78501506D02*
X150373993Y-78068494D01*
X149456007Y-77538494D02*
X149206007Y-77971506D01*
X143300000Y-53000000D02*
X143800000Y-53000000D01*
X143800000Y-52060000D02*
X143300000Y-52060000D01*
X141340000Y-59150620D02*
X142440000Y-59150620D01*
X142440000Y-59150620D02*
X142440000Y-56550620D01*
X141340000Y-59150620D02*
X141340000Y-56550620D01*
X113116394Y-73212466D02*
X113666394Y-74165094D01*
X113666394Y-74165094D02*
X115918060Y-72865094D01*
X113116394Y-73212466D02*
X115368060Y-71912466D01*
X111714994Y-77344172D02*
X112148006Y-77094172D01*
X111678006Y-76280108D02*
X111244994Y-76530108D01*
X155084880Y-82781040D02*
X155084880Y-82281040D01*
X154144880Y-82281040D02*
X154144880Y-82781040D01*
X147341821Y-78351680D02*
X146876821Y-79157083D01*
X145761821Y-81088320D02*
X146226821Y-80282917D01*
X145761821Y-81088320D02*
X147632436Y-82168320D01*
X147341821Y-78351680D02*
X148606218Y-79081680D01*
X103974427Y-87822081D02*
X104199427Y-88211792D01*
X102372280Y-88747081D02*
X103974427Y-87822081D01*
X104063916Y-96777079D02*
X104280422Y-96652079D01*
X100163916Y-90022081D02*
X100380422Y-89897081D01*
X106272280Y-95502079D02*
X107874427Y-94577079D01*
X107874427Y-94577079D02*
X107649427Y-94187368D01*
X105550741Y-89452337D02*
X105775741Y-89842048D01*
X105550741Y-89452337D02*
X105161030Y-89677337D01*
X124946007Y-83468494D02*
X125196007Y-83901506D01*
X126113993Y-83371506D02*
X125863993Y-82938494D01*
X126308179Y-81208320D02*
X125843179Y-80402917D01*
X124728179Y-78471680D02*
X125193179Y-79277083D01*
X124728179Y-78471680D02*
X122857564Y-79551680D01*
X126308179Y-81208320D02*
X125043782Y-81938320D01*
D10*
X143666020Y-46014466D02*
X143699353Y-46047800D01*
X143732687Y-46147800D01*
X143732687Y-46214466D01*
X143699353Y-46314466D01*
X143632687Y-46381133D01*
X143566020Y-46414466D01*
X143432687Y-46447800D01*
X143332687Y-46447800D01*
X143199353Y-46414466D01*
X143132687Y-46381133D01*
X143066020Y-46314466D01*
X143032687Y-46214466D01*
X143032687Y-46147800D01*
X143066020Y-46047800D01*
X143099353Y-46014466D01*
X143732687Y-45347800D02*
X143732687Y-45747800D01*
X143732687Y-45547800D02*
X143032687Y-45547800D01*
X143132687Y-45614466D01*
X143199353Y-45681133D01*
X143232687Y-45747800D01*
X130587334Y-46692000D02*
X130554000Y-46725333D01*
X130454000Y-46758667D01*
X130387334Y-46758667D01*
X130287334Y-46725333D01*
X130220667Y-46658667D01*
X130187334Y-46592000D01*
X130154000Y-46458667D01*
X130154000Y-46358667D01*
X130187334Y-46225333D01*
X130220667Y-46158667D01*
X130287334Y-46092000D01*
X130387334Y-46058667D01*
X130454000Y-46058667D01*
X130554000Y-46092000D01*
X130587334Y-46125333D01*
X130820667Y-46058667D02*
X131254000Y-46058667D01*
X131020667Y-46325333D01*
X131120667Y-46325333D01*
X131187334Y-46358667D01*
X131220667Y-46392000D01*
X131254000Y-46458667D01*
X131254000Y-46625333D01*
X131220667Y-46692000D01*
X131187334Y-46725333D01*
X131120667Y-46758667D01*
X130920667Y-46758667D01*
X130854000Y-46725333D01*
X130820667Y-46692000D01*
X128377180Y-50324626D02*
X128410513Y-50357960D01*
X128443847Y-50457960D01*
X128443847Y-50524626D01*
X128410513Y-50624626D01*
X128343847Y-50691293D01*
X128277180Y-50724626D01*
X128143847Y-50757960D01*
X128043847Y-50757960D01*
X127910513Y-50724626D01*
X127843847Y-50691293D01*
X127777180Y-50624626D01*
X127743847Y-50524626D01*
X127743847Y-50457960D01*
X127777180Y-50357960D01*
X127810513Y-50324626D01*
X127977180Y-49724626D02*
X128443847Y-49724626D01*
X127710513Y-49891293D02*
X128210513Y-50057960D01*
X128210513Y-49624626D01*
X129055034Y-53437600D02*
X129021700Y-53470933D01*
X128921700Y-53504267D01*
X128855034Y-53504267D01*
X128755034Y-53470933D01*
X128688367Y-53404267D01*
X128655034Y-53337600D01*
X128621700Y-53204267D01*
X128621700Y-53104267D01*
X128655034Y-52970933D01*
X128688367Y-52904267D01*
X128755034Y-52837600D01*
X128855034Y-52804267D01*
X128921700Y-52804267D01*
X129021700Y-52837600D01*
X129055034Y-52870933D01*
X129655034Y-52804267D02*
X129521700Y-52804267D01*
X129455034Y-52837600D01*
X129421700Y-52870933D01*
X129355034Y-52970933D01*
X129321700Y-53104267D01*
X129321700Y-53370933D01*
X129355034Y-53437600D01*
X129388367Y-53470933D01*
X129455034Y-53504267D01*
X129588367Y-53504267D01*
X129655034Y-53470933D01*
X129688367Y-53437600D01*
X129721700Y-53370933D01*
X129721700Y-53204267D01*
X129688367Y-53137600D01*
X129655034Y-53104267D01*
X129588367Y-53070933D01*
X129455034Y-53070933D01*
X129388367Y-53104267D01*
X129355034Y-53137600D01*
X129321700Y-53204267D01*
X136648000Y-44566666D02*
X136681333Y-44600000D01*
X136714667Y-44700000D01*
X136714667Y-44766666D01*
X136681333Y-44866666D01*
X136614667Y-44933333D01*
X136548000Y-44966666D01*
X136414667Y-45000000D01*
X136314667Y-45000000D01*
X136181333Y-44966666D01*
X136114667Y-44933333D01*
X136048000Y-44866666D01*
X136014667Y-44766666D01*
X136014667Y-44700000D01*
X136048000Y-44600000D01*
X136081333Y-44566666D01*
X136314667Y-44166666D02*
X136281333Y-44233333D01*
X136248000Y-44266666D01*
X136181333Y-44300000D01*
X136148000Y-44300000D01*
X136081333Y-44266666D01*
X136048000Y-44233333D01*
X136014667Y-44166666D01*
X136014667Y-44033333D01*
X136048000Y-43966666D01*
X136081333Y-43933333D01*
X136148000Y-43900000D01*
X136181333Y-43900000D01*
X136248000Y-43933333D01*
X136281333Y-43966666D01*
X136314667Y-44033333D01*
X136314667Y-44166666D01*
X136348000Y-44233333D01*
X136381333Y-44266666D01*
X136448000Y-44300000D01*
X136581333Y-44300000D01*
X136648000Y-44266666D01*
X136681333Y-44233333D01*
X136714667Y-44166666D01*
X136714667Y-44033333D01*
X136681333Y-43966666D01*
X136648000Y-43933333D01*
X136581333Y-43900000D01*
X136448000Y-43900000D01*
X136381333Y-43933333D01*
X136348000Y-43966666D01*
X136314667Y-44033333D01*
X126900000Y-47830000D02*
X126933333Y-47863334D01*
X126966667Y-47963334D01*
X126966667Y-48030000D01*
X126933333Y-48130000D01*
X126866667Y-48196667D01*
X126800000Y-48230000D01*
X126666667Y-48263334D01*
X126566667Y-48263334D01*
X126433333Y-48230000D01*
X126366667Y-48196667D01*
X126300000Y-48130000D01*
X126266667Y-48030000D01*
X126266667Y-47963334D01*
X126300000Y-47863334D01*
X126333333Y-47830000D01*
X126966667Y-47163334D02*
X126966667Y-47563334D01*
X126966667Y-47363334D02*
X126266667Y-47363334D01*
X126366667Y-47430000D01*
X126433333Y-47496667D01*
X126466667Y-47563334D01*
X126266667Y-46730000D02*
X126266667Y-46663333D01*
X126300000Y-46596667D01*
X126333333Y-46563333D01*
X126400000Y-46530000D01*
X126533333Y-46496667D01*
X126700000Y-46496667D01*
X126833333Y-46530000D01*
X126900000Y-46563333D01*
X126933333Y-46596667D01*
X126966667Y-46663333D01*
X126966667Y-46730000D01*
X126933333Y-46796667D01*
X126900000Y-46830000D01*
X126833333Y-46863333D01*
X126700000Y-46896667D01*
X126533333Y-46896667D01*
X126400000Y-46863333D01*
X126333333Y-46830000D01*
X126300000Y-46796667D01*
X126266667Y-46730000D01*
X125175860Y-56414480D02*
X125142526Y-56447813D01*
X125042526Y-56481147D01*
X124975860Y-56481147D01*
X124875860Y-56447813D01*
X124809193Y-56381147D01*
X124775860Y-56314480D01*
X124742526Y-56181147D01*
X124742526Y-56081147D01*
X124775860Y-55947813D01*
X124809193Y-55881147D01*
X124875860Y-55814480D01*
X124975860Y-55781147D01*
X125042526Y-55781147D01*
X125142526Y-55814480D01*
X125175860Y-55847813D01*
X125842526Y-56481147D02*
X125442526Y-56481147D01*
X125642526Y-56481147D02*
X125642526Y-55781147D01*
X125575860Y-55881147D01*
X125509193Y-55947813D01*
X125442526Y-55981147D01*
X126509193Y-56481147D02*
X126109193Y-56481147D01*
X126309193Y-56481147D02*
X126309193Y-55781147D01*
X126242527Y-55881147D01*
X126175860Y-55947813D01*
X126109193Y-55981147D01*
X134432000Y-44700000D02*
X134465333Y-44733334D01*
X134498667Y-44833334D01*
X134498667Y-44900000D01*
X134465333Y-45000000D01*
X134398667Y-45066667D01*
X134332000Y-45100000D01*
X134198667Y-45133334D01*
X134098667Y-45133334D01*
X133965333Y-45100000D01*
X133898667Y-45066667D01*
X133832000Y-45000000D01*
X133798667Y-44900000D01*
X133798667Y-44833334D01*
X133832000Y-44733334D01*
X133865333Y-44700000D01*
X134498667Y-44033334D02*
X134498667Y-44433334D01*
X134498667Y-44233334D02*
X133798667Y-44233334D01*
X133898667Y-44300000D01*
X133965333Y-44366667D01*
X133998667Y-44433334D01*
X133865333Y-43766667D02*
X133832000Y-43733333D01*
X133798667Y-43666667D01*
X133798667Y-43500000D01*
X133832000Y-43433333D01*
X133865333Y-43400000D01*
X133932000Y-43366667D01*
X133998667Y-43366667D01*
X134098667Y-43400000D01*
X134498667Y-43800000D01*
X134498667Y-43366667D01*
X125173320Y-58908760D02*
X125139986Y-58942093D01*
X125039986Y-58975427D01*
X124973320Y-58975427D01*
X124873320Y-58942093D01*
X124806653Y-58875427D01*
X124773320Y-58808760D01*
X124739986Y-58675427D01*
X124739986Y-58575427D01*
X124773320Y-58442093D01*
X124806653Y-58375427D01*
X124873320Y-58308760D01*
X124973320Y-58275427D01*
X125039986Y-58275427D01*
X125139986Y-58308760D01*
X125173320Y-58342093D01*
X125839986Y-58975427D02*
X125439986Y-58975427D01*
X125639986Y-58975427D02*
X125639986Y-58275427D01*
X125573320Y-58375427D01*
X125506653Y-58442093D01*
X125439986Y-58475427D01*
X126073320Y-58275427D02*
X126506653Y-58275427D01*
X126273320Y-58542093D01*
X126373320Y-58542093D01*
X126439987Y-58575427D01*
X126473320Y-58608760D01*
X126506653Y-58675427D01*
X126506653Y-58842093D01*
X126473320Y-58908760D01*
X126439987Y-58942093D01*
X126373320Y-58975427D01*
X126173320Y-58975427D01*
X126106653Y-58942093D01*
X126073320Y-58908760D01*
X127560000Y-44720000D02*
X127593333Y-44753334D01*
X127626667Y-44853334D01*
X127626667Y-44920000D01*
X127593333Y-45020000D01*
X127526667Y-45086667D01*
X127460000Y-45120000D01*
X127326667Y-45153334D01*
X127226667Y-45153334D01*
X127093333Y-45120000D01*
X127026667Y-45086667D01*
X126960000Y-45020000D01*
X126926667Y-44920000D01*
X126926667Y-44853334D01*
X126960000Y-44753334D01*
X126993333Y-44720000D01*
X127626667Y-44053334D02*
X127626667Y-44453334D01*
X127626667Y-44253334D02*
X126926667Y-44253334D01*
X127026667Y-44320000D01*
X127093333Y-44386667D01*
X127126667Y-44453334D01*
X127160000Y-43453333D02*
X127626667Y-43453333D01*
X126893333Y-43620000D02*
X127393333Y-43786667D01*
X127393333Y-43353333D01*
X108177425Y-82030888D02*
X108783643Y-81680888D01*
X108866976Y-81825225D01*
X108888109Y-81928494D01*
X108863707Y-82019562D01*
X108822639Y-82081763D01*
X108723835Y-82177298D01*
X108637233Y-82227298D01*
X108505096Y-82265096D01*
X108430694Y-82269562D01*
X108339626Y-82245160D01*
X108260758Y-82175225D01*
X108177425Y-82030888D01*
X108710758Y-82954647D02*
X108510758Y-82608237D01*
X108610758Y-82781442D02*
X109216976Y-82431442D01*
X109097041Y-82423708D01*
X109005973Y-82399306D01*
X108943771Y-82358237D01*
X140819307Y-45836667D02*
X140819307Y-46170000D01*
X140119307Y-46170000D01*
X140819307Y-45236667D02*
X140819307Y-45636667D01*
X140819307Y-45436667D02*
X140119307Y-45436667D01*
X140219307Y-45503333D01*
X140285973Y-45570000D01*
X140319307Y-45636667D01*
X112659690Y-81808931D02*
X112655225Y-81734530D01*
X112679626Y-81643461D01*
X112716229Y-81506859D01*
X112711763Y-81432457D01*
X112678430Y-81374723D01*
X112550758Y-81486923D02*
X112546293Y-81412521D01*
X112570694Y-81321454D01*
X112669498Y-81225918D01*
X112871570Y-81109252D01*
X113003707Y-81071454D01*
X113094775Y-81095855D01*
X113156976Y-81136923D01*
X113223643Y-81252393D01*
X113228109Y-81326795D01*
X113203707Y-81417864D01*
X113104904Y-81513397D01*
X112902832Y-81630064D01*
X112770694Y-81667864D01*
X112679626Y-81643461D01*
X112617425Y-81602393D01*
X112550758Y-81486923D01*
X113034091Y-82324081D02*
X112834091Y-81977670D01*
X112934091Y-82150876D02*
X113540309Y-81800876D01*
X113420374Y-81793141D01*
X113329306Y-81768739D01*
X113267104Y-81727670D01*
X116630990Y-84281514D02*
X116140242Y-84564847D01*
X116099174Y-84627047D01*
X116086973Y-84672581D01*
X116091438Y-84746983D01*
X116158105Y-84862453D01*
X116220306Y-84903521D01*
X116265840Y-84915722D01*
X116340242Y-84911257D01*
X116830990Y-84627924D01*
X116923255Y-84921063D02*
X116968789Y-84933265D01*
X117030989Y-84974333D01*
X117114323Y-85118671D01*
X117118789Y-85193073D01*
X117106588Y-85238606D01*
X117065519Y-85300807D01*
X117007784Y-85334141D01*
X116904515Y-85355273D01*
X116358105Y-85208863D01*
X116574771Y-85584141D01*
X116477682Y-74693730D02*
X115986934Y-74977063D01*
X115945866Y-75039263D01*
X115933665Y-75084797D01*
X115938130Y-75159199D01*
X116004797Y-75274669D01*
X116066998Y-75315737D01*
X116112532Y-75327938D01*
X116186934Y-75323473D01*
X116677682Y-75040140D01*
X116811015Y-75271079D02*
X117027681Y-75646357D01*
X116680075Y-75577617D01*
X116730075Y-75664220D01*
X116734540Y-75738622D01*
X116722340Y-75784156D01*
X116681271Y-75846357D01*
X116536934Y-75929690D01*
X116462532Y-75934156D01*
X116416998Y-75921955D01*
X116354797Y-75880887D01*
X116254797Y-75707682D01*
X116250331Y-75633279D01*
X116262532Y-75587746D01*
X157050807Y-77744527D02*
X157050807Y-78311193D01*
X157084140Y-78377860D01*
X157117473Y-78411193D01*
X157184140Y-78444527D01*
X157317473Y-78444527D01*
X157384140Y-78411193D01*
X157417473Y-78377860D01*
X157450807Y-78311193D01*
X157450807Y-77744527D01*
X158084140Y-77977860D02*
X158084140Y-78444527D01*
X157917473Y-77711193D02*
X157750806Y-78211193D01*
X158184140Y-78211193D01*
X128629253Y-56698473D02*
X128962587Y-56698473D01*
X128262587Y-56931806D02*
X128629253Y-56698473D01*
X128262587Y-56465140D01*
X128962587Y-55865140D02*
X128962587Y-56265140D01*
X128962587Y-56065140D02*
X128262587Y-56065140D01*
X128362587Y-56131806D01*
X128429253Y-56198473D01*
X128462587Y-56265140D01*
X130566667Y-44233333D02*
X130566667Y-44566667D01*
X130333334Y-43866667D02*
X130566667Y-44233333D01*
X130800000Y-43866667D01*
X131000000Y-43933333D02*
X131033334Y-43900000D01*
X131100000Y-43866667D01*
X131266667Y-43866667D01*
X131333334Y-43900000D01*
X131366667Y-43933333D01*
X131400000Y-44000000D01*
X131400000Y-44066667D01*
X131366667Y-44166667D01*
X130966667Y-44566667D01*
X131400000Y-44566667D01*
D13*
X129580952Y-50086667D02*
X129580952Y-50277143D01*
X129180952Y-50277143D01*
X129219048Y-49972381D02*
X129200000Y-49953333D01*
X129180952Y-49915238D01*
X129180952Y-49820000D01*
X129200000Y-49781904D01*
X129219048Y-49762857D01*
X129257143Y-49743809D01*
X129295238Y-49743809D01*
X129352381Y-49762857D01*
X129580952Y-49991428D01*
X129580952Y-49743809D01*
D10*
X110125504Y-87067131D02*
X110113303Y-87112666D01*
X110043367Y-87191534D01*
X109985633Y-87224867D01*
X109882363Y-87245999D01*
X109791295Y-87221598D01*
X109729094Y-87180529D01*
X109633560Y-87081726D01*
X109583560Y-86995124D01*
X109545761Y-86862986D01*
X109541295Y-86788585D01*
X109565697Y-86697516D01*
X109635633Y-86618649D01*
X109693367Y-86585316D01*
X109796636Y-86564183D01*
X109842171Y-86576383D01*
X110357320Y-86201982D02*
X110068645Y-86368649D01*
X110206444Y-86673991D01*
X110218645Y-86628457D01*
X110259713Y-86566255D01*
X110404051Y-86482922D01*
X110478453Y-86478457D01*
X110523987Y-86490657D01*
X110586187Y-86531726D01*
X110669520Y-86676063D01*
X110673987Y-86750465D01*
X110661786Y-86795999D01*
X110620718Y-86858200D01*
X110476380Y-86941534D01*
X110401978Y-86945999D01*
X110356444Y-86933798D01*
X120367693Y-87408964D02*
X120322158Y-87396763D01*
X120243290Y-87326827D01*
X120209957Y-87269093D01*
X120188825Y-87165823D01*
X120213226Y-87074755D01*
X120254295Y-87012554D01*
X120353098Y-86917020D01*
X120439700Y-86867020D01*
X120571838Y-86829221D01*
X120646239Y-86824755D01*
X120737308Y-86849157D01*
X120816175Y-86919093D01*
X120849508Y-86976827D01*
X120870641Y-87080096D01*
X120858441Y-87125631D01*
X120476624Y-87730973D02*
X120543290Y-87846442D01*
X120605492Y-87887511D01*
X120651026Y-87899711D01*
X120770962Y-87907447D01*
X120903098Y-87869647D01*
X121134038Y-87736314D01*
X121175107Y-87674113D01*
X121187308Y-87628580D01*
X121182842Y-87554178D01*
X121116175Y-87438708D01*
X121053974Y-87397639D01*
X121008441Y-87385438D01*
X120934038Y-87389904D01*
X120789700Y-87473237D01*
X120748633Y-87535438D01*
X120736431Y-87580973D01*
X120740898Y-87655374D01*
X120807564Y-87770844D01*
X120869765Y-87811913D01*
X120915300Y-87824113D01*
X120989700Y-87819647D01*
X111235158Y-79458095D02*
X110866418Y-79286086D01*
X110888748Y-79658095D02*
X110538748Y-79051877D01*
X110769687Y-78918544D01*
X110844089Y-78914078D01*
X110889623Y-78926278D01*
X110951824Y-78967347D01*
X111001824Y-79053949D01*
X111006290Y-79128352D01*
X110994089Y-79173885D01*
X110953020Y-79236086D01*
X110722081Y-79369419D01*
X111812507Y-79124762D02*
X111466097Y-79324762D01*
X111639302Y-79224762D02*
X111289302Y-78618544D01*
X111281568Y-78738479D01*
X111257166Y-78829547D01*
X111216097Y-78891749D01*
X112556265Y-87093338D02*
X112728274Y-86724598D01*
X112356265Y-86746928D02*
X112962483Y-86396928D01*
X113095816Y-86627867D01*
X113100282Y-86702269D01*
X113088082Y-86747803D01*
X113047013Y-86810004D01*
X112960411Y-86860004D01*
X112886008Y-86864470D01*
X112840475Y-86852269D01*
X112778274Y-86811200D01*
X112644941Y-86580261D01*
X113238082Y-87007610D02*
X113283616Y-87019812D01*
X113345816Y-87060880D01*
X113429150Y-87205218D01*
X113433616Y-87279620D01*
X113421415Y-87325153D01*
X113380346Y-87387354D01*
X113322611Y-87420687D01*
X113219342Y-87441820D01*
X112672932Y-87295410D01*
X112889598Y-87670687D01*
X141496667Y-54606666D02*
X141163333Y-54840000D01*
X141496667Y-55006666D02*
X140796667Y-55006666D01*
X140796667Y-54740000D01*
X140830000Y-54673333D01*
X140863333Y-54640000D01*
X140930000Y-54606666D01*
X141030000Y-54606666D01*
X141096667Y-54640000D01*
X141130000Y-54673333D01*
X141163333Y-54740000D01*
X141163333Y-55006666D01*
X140796667Y-54373333D02*
X140796667Y-53940000D01*
X141063333Y-54173333D01*
X141063333Y-54073333D01*
X141096667Y-54006666D01*
X141130000Y-53973333D01*
X141196667Y-53940000D01*
X141363333Y-53940000D01*
X141430000Y-53973333D01*
X141463333Y-54006666D01*
X141496667Y-54073333D01*
X141496667Y-54273333D01*
X141463333Y-54340000D01*
X141430000Y-54373333D01*
X129176847Y-59671679D02*
X128843513Y-59905013D01*
X129176847Y-60071679D02*
X128476847Y-60071679D01*
X128476847Y-59805013D01*
X128510180Y-59738346D01*
X128543513Y-59705013D01*
X128610180Y-59671679D01*
X128710180Y-59671679D01*
X128776847Y-59705013D01*
X128810180Y-59738346D01*
X128843513Y-59805013D01*
X128843513Y-60071679D01*
X128710180Y-59071679D02*
X129176847Y-59071679D01*
X128443513Y-59238346D02*
X128943513Y-59405013D01*
X128943513Y-58971679D01*
X112612565Y-75964718D02*
X112784574Y-75595978D01*
X112412565Y-75618308D02*
X113018783Y-75268308D01*
X113152116Y-75499247D01*
X113156582Y-75573649D01*
X113144382Y-75619183D01*
X113103313Y-75681384D01*
X113016711Y-75731384D01*
X112942308Y-75735850D01*
X112896775Y-75723649D01*
X112834574Y-75682580D01*
X112701241Y-75451641D01*
X113535450Y-76163200D02*
X113368783Y-75874525D01*
X113063441Y-76012324D01*
X113108975Y-76024525D01*
X113171177Y-76065593D01*
X113254510Y-76209931D01*
X113258975Y-76284333D01*
X113246775Y-76329867D01*
X113205706Y-76392067D01*
X113061369Y-76475400D01*
X112986967Y-76479867D01*
X112941433Y-76467666D01*
X112879232Y-76426598D01*
X112795898Y-76282260D01*
X112791433Y-76207858D01*
X112803634Y-76162324D01*
X119267425Y-73157298D02*
X119439434Y-72788558D01*
X119067425Y-72810888D02*
X119673643Y-72460888D01*
X119806976Y-72691827D01*
X119811442Y-72766229D01*
X119799242Y-72811763D01*
X119758173Y-72873964D01*
X119671571Y-72923964D01*
X119597168Y-72928430D01*
X119551635Y-72916229D01*
X119489434Y-72875160D01*
X119356101Y-72644221D01*
X120173643Y-73326913D02*
X120106976Y-73211442D01*
X120044776Y-73170374D01*
X119999242Y-73158173D01*
X119879306Y-73150438D01*
X119747168Y-73188237D01*
X119516229Y-73321570D01*
X119475161Y-73383772D01*
X119462960Y-73429306D01*
X119467425Y-73503708D01*
X119534092Y-73619178D01*
X119596293Y-73660246D01*
X119641827Y-73672447D01*
X119716229Y-73667980D01*
X119860566Y-73584647D01*
X119901635Y-73522447D01*
X119913835Y-73476913D01*
X119909370Y-73402511D01*
X119842704Y-73287041D01*
X119780502Y-73245973D01*
X119734968Y-73233772D01*
X119660566Y-73238237D01*
X151008376Y-78860045D02*
X150603033Y-78895451D01*
X150808376Y-79206455D02*
X150202158Y-78856455D01*
X150335491Y-78625516D01*
X150397692Y-78584447D01*
X150443225Y-78572246D01*
X150517628Y-78576711D01*
X150604230Y-78626711D01*
X150645299Y-78688913D01*
X150657499Y-78734447D01*
X150653033Y-78808849D01*
X150519700Y-79039788D01*
X151341709Y-78282695D02*
X151141709Y-78629105D01*
X151241709Y-78455900D02*
X150635491Y-78105900D01*
X150688760Y-78213635D01*
X150713161Y-78304703D01*
X150708696Y-78379105D01*
X150852158Y-77730622D02*
X151085491Y-77326477D01*
X151541709Y-77936284D01*
X143433334Y-53810000D02*
X143400000Y-53843333D01*
X143300000Y-53876667D01*
X143233334Y-53876667D01*
X143133334Y-53843333D01*
X143066667Y-53776667D01*
X143033334Y-53710000D01*
X143000000Y-53576667D01*
X143000000Y-53476667D01*
X143033334Y-53343333D01*
X143066667Y-53276667D01*
X143133334Y-53210000D01*
X143233334Y-53176667D01*
X143300000Y-53176667D01*
X143400000Y-53210000D01*
X143433334Y-53243333D01*
X143700000Y-53243333D02*
X143733334Y-53210000D01*
X143800000Y-53176667D01*
X143966667Y-53176667D01*
X144033334Y-53210000D01*
X144066667Y-53243333D01*
X144100000Y-53310000D01*
X144100000Y-53376667D01*
X144066667Y-53476667D01*
X143666667Y-53876667D01*
X144100000Y-53876667D01*
X110731789Y-76428646D02*
X110719587Y-76474181D01*
X110649651Y-76553049D01*
X110591917Y-76586382D01*
X110488647Y-76607514D01*
X110397579Y-76583113D01*
X110335378Y-76542044D01*
X110239844Y-76443241D01*
X110189844Y-76356639D01*
X110152045Y-76224501D01*
X110147579Y-76150100D01*
X110171981Y-76059031D01*
X110241917Y-75980164D01*
X110299651Y-75946831D01*
X110402920Y-75925698D01*
X110448455Y-75937898D01*
X111342472Y-76153049D02*
X110996062Y-76353049D01*
X111169267Y-76253049D02*
X110819267Y-75646831D01*
X110811532Y-75766766D01*
X110787130Y-75857834D01*
X110746062Y-75920036D01*
X111540955Y-75230164D02*
X111252280Y-75396830D01*
X111390079Y-75702172D01*
X111402280Y-75656638D01*
X111443348Y-75594437D01*
X111587686Y-75511103D01*
X111662088Y-75506638D01*
X111707622Y-75518839D01*
X111769822Y-75559908D01*
X111853155Y-75704245D01*
X111857622Y-75778646D01*
X111845421Y-75824180D01*
X111804353Y-75886382D01*
X111660015Y-75969715D01*
X111585613Y-75974180D01*
X111540079Y-75961980D01*
X153935535Y-83347487D02*
X153968868Y-83380821D01*
X154002202Y-83480821D01*
X154002202Y-83547487D01*
X153968868Y-83647487D01*
X153902202Y-83714154D01*
X153835535Y-83747487D01*
X153702202Y-83780821D01*
X153602202Y-83780821D01*
X153468868Y-83747487D01*
X153402202Y-83714154D01*
X153335535Y-83647487D01*
X153302202Y-83547487D01*
X153302202Y-83480821D01*
X153335535Y-83380821D01*
X153368868Y-83347487D01*
X154002202Y-82680821D02*
X154002202Y-83080821D01*
X154002202Y-82880821D02*
X153302202Y-82880821D01*
X153402202Y-82947487D01*
X153468868Y-83014154D01*
X153502202Y-83080821D01*
X153302202Y-82080820D02*
X153302202Y-82214154D01*
X153335535Y-82280820D01*
X153368868Y-82314154D01*
X153468868Y-82380820D01*
X153602202Y-82414154D01*
X153868868Y-82414154D01*
X153935535Y-82380820D01*
X153968868Y-82347487D01*
X154002202Y-82280820D01*
X154002202Y-82147487D01*
X153968868Y-82080820D01*
X153935535Y-82047487D01*
X153868868Y-82014154D01*
X153702202Y-82014154D01*
X153635535Y-82047487D01*
X153602202Y-82080820D01*
X153568868Y-82147487D01*
X153568868Y-82280820D01*
X153602202Y-82347487D01*
X153635535Y-82380820D01*
X153702202Y-82414154D01*
X146611357Y-80370213D02*
X147102105Y-80653546D01*
X147176506Y-80658013D01*
X147222040Y-80645812D01*
X147284242Y-80604744D01*
X147350908Y-80489274D01*
X147355374Y-80414872D01*
X147343173Y-80369338D01*
X147302105Y-80307136D01*
X146811357Y-80023803D01*
X147128024Y-79475321D02*
X147061357Y-79590791D01*
X147056891Y-79665192D01*
X147069091Y-79710727D01*
X147122361Y-79818461D01*
X147221165Y-79913997D01*
X147452104Y-80047330D01*
X147526506Y-80051795D01*
X147572040Y-80039594D01*
X147634242Y-79998526D01*
X147700908Y-79883056D01*
X147705374Y-79808654D01*
X147693173Y-79763120D01*
X147652104Y-79700919D01*
X147507767Y-79617586D01*
X147433365Y-79613120D01*
X147387832Y-79625321D01*
X147325630Y-79666389D01*
X147258963Y-79781859D01*
X147254498Y-79856261D01*
X147266699Y-79901795D01*
X147307767Y-79963997D01*
M02*
